<svg width="133" height="28" viewBox="0 0 133 28" fill="none" xmlns="http://www.w3.org/2000/svg">
<path d="M8.28125 3.35742V7.98047H11.6387V11.1445H8.28125V21.7617C8.28125 22.4883 8.42188 23.0156 8.70312 23.3438C8.99609 23.6602 9.51172 23.8184 10.25 23.8184C10.7422 23.8184 11.2402 23.7598 11.7441 23.6426V26.9473C10.7715 27.2168 9.83398 27.3516 8.93164 27.3516C5.65039 27.3516 4.00977 25.541 4.00977 21.9199V11.1445H0.880859V7.98047H4.00977V3.35742H8.28125ZM24.875 11.8828C24.3125 11.7891 23.7324 11.7422 23.1348 11.7422C21.1777 11.7422 19.8594 12.4922 19.1797 13.9922V27H14.9082V7.98047H18.9863L19.0918 10.1074C20.123 8.45508 21.5527 7.62891 23.3809 7.62891C23.9902 7.62891 24.4941 7.71094 24.8926 7.875L24.875 11.8828ZM38.4102 27C38.2227 26.6367 38.0586 26.0449 37.918 25.2246C36.5586 26.6426 34.8945 27.3516 32.9258 27.3516C31.0156 27.3516 29.457 26.8066 28.25 25.7168C27.043 24.627 26.4395 23.2793 26.4395 21.6738C26.4395 19.6465 27.1895 18.0938 28.6895 17.0156C30.2012 15.9258 32.3574 15.3809 35.1582 15.3809H37.7773V14.1328C37.7773 13.1484 37.502 12.3633 36.9512 11.7773C36.4004 11.1797 35.5625 10.8809 34.4375 10.8809C33.4648 10.8809 32.668 11.127 32.0469 11.6191C31.4258 12.0996 31.1152 12.7148 31.1152 13.4648H26.8438C26.8438 12.4219 27.1895 11.4492 27.8809 10.5469C28.5723 9.63281 29.5098 8.91797 30.6934 8.40234C31.8887 7.88672 33.2188 7.62891 34.6836 7.62891C36.9102 7.62891 38.6855 8.19141 40.0098 9.31641C41.334 10.4297 42.0137 12 42.0488 14.0273V22.6055C42.0488 24.3164 42.2891 25.6816 42.7695 26.7012V27H38.4102ZM33.7168 23.9238C34.5605 23.9238 35.3516 23.7188 36.0898 23.3086C36.8398 22.8984 37.4023 22.3477 37.7773 21.6562V18.0703H35.4746C33.8926 18.0703 32.7031 18.3457 31.9062 18.8965C31.1094 19.4473 30.7109 20.2266 30.7109 21.2344C30.7109 22.0547 30.9805 22.7109 31.5195 23.2031C32.0703 23.6836 32.8027 23.9238 33.7168 23.9238ZM54.3359 23.9414C55.4023 23.9414 56.2871 23.6309 56.9902 23.0098C57.6934 22.3887 58.0684 21.6211 58.1152 20.707H62.1406C62.0938 21.8906 61.7246 22.998 61.0332 24.0293C60.3418 25.0488 59.4043 25.8574 58.2207 26.4551C57.0371 27.0527 55.7598 27.3516 54.3887 27.3516C51.7285 27.3516 49.6191 26.4902 48.0605 24.7676C46.502 23.0449 45.7227 20.666 45.7227 17.6309V17.1914C45.7227 14.2969 46.4961 11.9824 48.043 10.248C49.5898 8.50195 51.6992 7.62891 54.3711 7.62891C56.6328 7.62891 58.4727 8.29102 59.8906 9.61523C61.3203 10.9277 62.0703 12.6562 62.1406 14.8008H58.1152C58.0684 13.7109 57.6934 12.8145 56.9902 12.1113C56.2988 11.4082 55.4141 11.0566 54.3359 11.0566C52.9531 11.0566 51.8867 11.5605 51.1367 12.5684C50.3867 13.5645 50.0059 15.082 49.9941 17.1211V17.8066C49.9941 19.8691 50.3633 21.4102 51.1016 22.4297C51.8516 23.4375 52.9297 23.9414 54.3359 23.9414ZM71.5449 18.8438L69.6465 20.7949V27H65.375V0H69.6465V15.5742L70.9824 13.9043L76.2383 7.98047H81.3711L74.3047 15.9082L82.127 27H77.1875L71.5449 18.8438ZM89.5273 3.35742V7.98047H92.8848V11.1445H89.5273V21.7617C89.5273 22.4883 89.668 23.0156 89.9492 23.3438C90.2422 23.6602 90.7578 23.8184 91.4961 23.8184C91.9883 23.8184 92.4863 23.7598 92.9902 23.6426V26.9473C92.0176 27.2168 91.0801 27.3516 90.1777 27.3516C86.8965 27.3516 85.2559 25.541 85.2559 21.9199V11.1445H82.127V7.98047H85.2559V3.35742H89.5273ZM107.527 27C107.34 26.6367 107.176 26.0449 107.035 25.2246C105.676 26.6426 104.012 27.3516 102.043 27.3516C100.133 27.3516 98.5742 26.8066 97.3672 25.7168C96.1602 24.627 95.5566 23.2793 95.5566 21.6738C95.5566 19.6465 96.3066 18.0938 97.8066 17.0156C99.3184 15.9258 101.475 15.3809 104.275 15.3809H106.895V14.1328C106.895 13.1484 106.619 12.3633 106.068 11.7773C105.518 11.1797 104.68 10.8809 103.555 10.8809C102.582 10.8809 101.785 11.127 101.164 11.6191C100.543 12.0996 100.232 12.7148 100.232 13.4648H95.9609C95.9609 12.4219 96.3066 11.4492 96.998 10.5469C97.6895 9.63281 98.627 8.91797 99.8105 8.40234C101.006 7.88672 102.336 7.62891 103.801 7.62891C106.027 7.62891 107.803 8.19141 109.127 9.31641C110.451 10.4297 111.131 12 111.166 14.0273V22.6055C111.166 24.3164 111.406 25.6816 111.887 26.7012V27H107.527ZM102.834 23.9238C103.678 23.9238 104.469 23.7188 105.207 23.3086C105.957 22.8984 106.52 22.3477 106.895 21.6562V18.0703H104.592C103.01 18.0703 101.82 18.3457 101.023 18.8965C100.227 19.4473 99.8281 20.2266 99.8281 21.2344C99.8281 22.0547 100.098 22.7109 100.637 23.2031C101.188 23.6836 101.92 23.9238 102.834 23.9238ZM121.818 18.8438L119.92 20.7949V27H115.648V0H119.92V15.5742L121.256 13.9043L126.512 7.98047H131.645L124.578 15.9082L132.4 27H127.461L121.818 18.8438Z" fill="#6240C8"/>
</svg>
