<svg width="169" height="29" viewBox="0 0 312 55" fill="none" xmlns="http://www.w3.org/2000/svg"><path d="M23.94 53c-9.937 0-14.905-4.728-14.905-14.184V24.992H3.42c-.528 0-.984-.168-1.368-.504-.336-.336-.504-.768-.504-1.296V17.36c0-.528.168-.96.504-1.296.384-.336.84-.504 1.368-.504h5.616V3.68c0-.528.168-.96.504-1.296a1.917 1.917 0 011.296-.504h8.352c.528 0 .96.168 1.296.504.336.336.504.768.504 1.296v11.88h9c.528 0 .96.168 1.296.504.384.336.576.768.576 1.296v5.832c0 .528-.192.96-.576 1.296-.336.336-.768.504-1.296.504h-9v12.816c0 3.552 1.368 5.328 4.104 5.328h5.544c.528 0 .96.168 1.296.504.336.336.504.768.504 1.296V51.2c0 .48-.168.912-.504 1.296-.336.336-.768.504-1.296.504H23.94zm16.256 0c-.528 0-.96-.168-1.296-.504-.336-.336-.504-.768-.504-1.296V17.36c0-.528.168-.96.504-1.296.336-.336.768-.504 1.296-.504h8.28c.528 0 .96.192 1.296.576.384.336.576.744.576 1.224v2.88c2.64-3.12 6.192-4.68 10.656-4.68h3.168c.528 0 .96.168 1.296.504.336.336.504.768.504 1.296v7.416c0 .48-.168.912-.504 1.296-.336.336-.768.504-1.296.504h-6.984c-1.968 0-3.504.552-4.608 1.656-1.056 1.056-1.584 2.568-1.584 4.536V51.2c0 .528-.192.96-.576 1.296-.336.336-.768.504-1.296.504h-8.928zm41.495.72c-2.544 0-4.872-.48-6.984-1.44-2.064-1.008-3.696-2.352-4.896-4.032a10.042 10.042 0 01-1.728-5.688c0-3.312 1.344-5.976 4.032-7.992 2.736-2.016 6.48-3.408 11.232-4.176l9-1.368v-1.008c0-1.824-.384-3.168-1.152-4.032-.768-.864-2.064-1.296-3.888-1.296-1.104 0-2.016.192-2.736.576-.72.384-1.464.912-2.232 1.584-.672.576-1.176.96-1.512 1.152-.144.384-.408.576-.792.576h-7.848c-.48 0-.888-.144-1.224-.432a1.455 1.455 0 01-.36-1.152c.048-1.296.672-2.736 1.872-4.32 1.248-1.584 3.12-2.952 5.616-4.104 2.544-1.152 5.664-1.728 9.36-1.728 5.904 0 10.272 1.32 13.104 3.96 2.832 2.592 4.248 6.096 4.248 10.512V51.2c0 .48-.168.912-.504 1.296-.336.336-.768.504-1.296.504h-8.352c-.48 0-.912-.168-1.296-.504a1.917 1.917 0 01-.504-1.296v-2.52c-1.056 1.488-2.544 2.712-4.464 3.672-1.872.912-4.104 1.368-6.696 1.368zm3.384-8.208c2.208 0 3.984-.72 5.328-2.16 1.392-1.44 2.088-3.552 2.088-6.336v-1.008l-6.12 1.08c-4.32.768-6.48 2.28-6.48 4.536 0 1.2.504 2.16 1.512 2.88 1.008.672 2.232 1.008 3.672 1.008zm45.061 8.208c-5.424 0-9.816-1.44-13.176-4.32-3.36-2.928-5.16-6.984-5.4-12.168l-.072-2.88.072-2.952c.192-5.184 1.968-9.24 5.328-12.168 3.408-2.928 7.824-4.392 13.248-4.392 4.08 0 7.512.744 10.296 2.232 2.832 1.44 4.92 3.192 6.264 5.256 1.392 2.016 2.136 3.864 2.232 5.544.048.48-.12.912-.504 1.296-.336.336-.768.504-1.296.504h-9.144c-.528 0-.936-.12-1.224-.36-.288-.24-.552-.6-.792-1.08-.576-1.488-1.32-2.544-2.232-3.168-.864-.624-1.992-.936-3.384-.936-3.936 0-5.976 2.544-6.12 7.632l-.072 2.736.072 2.376c.096 2.592.648 4.512 1.656 5.76 1.056 1.2 2.544 1.8 4.464 1.8 1.488 0 2.664-.312 3.528-.936.864-.624 1.56-1.68 2.088-3.168.24-.48.504-.84.792-1.08.288-.24.696-.36 1.224-.36h9.144c.48 0 .888.168 1.224.504.384.288.576.672.576 1.152 0 1.536-.672 3.336-2.016 5.4-1.296 2.064-3.36 3.888-6.192 5.472-2.832 1.536-6.36 2.304-10.584 2.304zm27.06-.72c-.48 0-.912-.168-1.296-.504a1.917 1.917 0 01-.504-1.296V3.68c0-.528.168-.96.504-1.296a1.917 1.917 0 011.296-.504h8.352c.528 0 .96.168 1.296.504.336.336.504.768.504 1.296V27.8l10.008-11.016.504-.504c.288-.24.576-.408.864-.504a2.227 2.227 0 011.008-.216h9.648c.432 0 .792.168 1.08.504.336.288.504.648.504 1.08 0 .528-.192.936-.576 1.224l-12.96 13.968 14.76 17.928c.384.384.576.744.576 1.08 0 .48-.168.888-.504 1.224-.288.288-.672.432-1.152.432h-9.864c-.624 0-1.104-.096-1.44-.288-.288-.192-.648-.504-1.08-.936l-11.376-13.68V51.2c0 .48-.168.912-.504 1.296-.336.336-.768.504-1.296.504h-8.352zm59.47 0c-9.936 0-14.904-4.728-14.904-14.184V24.992h-5.616c-.528 0-.984-.168-1.368-.504-.336-.336-.504-.768-.504-1.296V17.36c0-.528.168-.96.504-1.296.384-.336.84-.504 1.368-.504h5.616V3.68c0-.528.168-.96.504-1.296a1.917 1.917 0 011.296-.504h8.352c.528 0 .96.168 1.296.504.336.336.504.768.504 1.296v11.88h9c.528 0 .96.168 1.296.504.384.336.576.768.576 1.296v5.832c0 .528-.192.96-.576 1.296-.336.336-.768.504-1.296.504h-9v12.816c0 3.552 1.368 5.328 4.104 5.328h5.544c.528 0 .96.168 1.296.504.336.336.504.768.504 1.296V51.2c0 .48-.168.912-.504 1.296-.336.336-.768.504-1.296.504h-6.696zm25.689.72c-2.544 0-4.872-.48-6.984-1.44-2.064-1.008-3.696-2.352-4.896-4.032a10.042 10.042 0 01-1.728-5.688c0-3.312 1.344-5.976 4.032-7.992 2.736-2.016 6.48-3.408 11.232-4.176l9-1.368v-1.008c0-1.824-.384-3.168-1.152-4.032-.768-.864-2.064-1.296-3.888-1.296-1.104 0-2.016.192-2.736.576-.72.384-1.464.912-2.232 1.584-.672.576-1.176.96-1.512 1.152-.144.384-.408.576-.792.576h-7.848c-.48 0-.888-.144-1.224-.432a1.455 1.455 0 01-.36-1.152c.048-1.296.672-2.736 1.872-4.32 1.248-1.584 3.12-2.952 5.616-4.104 2.544-1.152 5.664-1.728 9.36-1.728 5.904 0 10.272 1.32 13.104 3.96 2.832 2.592 4.248 6.096 4.248 10.512V51.2c0 .48-.168.912-.504 1.296-.336.336-.768.504-1.296.504h-8.352c-.48 0-.912-.168-1.296-.504a1.917 1.917 0 01-.504-1.296v-2.52c-1.056 1.488-2.544 2.712-4.464 3.672-1.872.912-4.104 1.368-6.696 1.368zm3.384-8.208c2.208 0 3.984-.72 5.328-2.16 1.392-1.44 2.088-3.552 2.088-6.336v-1.008l-6.12 1.08c-4.32.768-6.48 2.28-6.48 4.536 0 1.2.504 2.16 1.512 2.88 1.008.672 2.232 1.008 3.672 1.008zM275.392 53c-.48 0-.912-.168-1.296-.504a1.917 1.917 0 01-.504-1.296V3.68c0-.528.168-.96.504-1.296a1.917 1.917 0 011.296-.504h8.352c.528 0 .96.168 1.296.504.336.336.504.768.504 1.296V27.8l10.008-11.016.504-.504c.288-.24.576-.408.864-.504a2.227 2.227 0 011.008-.216h9.648c.432 0 .792.168 1.08.504.336.288.504.648.504 1.08 0 .528-.192.936-.576 1.224l-12.96 13.968 14.76 17.928c.384.384.576.744.576 1.08 0 .48-.168.888-.504 1.224-.288.288-.672.432-1.152.432h-9.864c-.624 0-1.104-.096-1.44-.288-.288-.192-.648-.504-1.08-.936l-11.376-13.68V51.2c0 .48-.168.912-.504 1.296-.336.336-.768.504-1.296.504h-8.352z" fill="#51509C"/><path d="M23.94 53c-9.937 0-14.905-4.728-14.905-14.184V24.992H3.42c-.528 0-.984-.168-1.368-.504-.336-.336-.504-.768-.504-1.296V17.36c0-.528.168-.96.504-1.296.384-.336.84-.504 1.368-.504h5.616V3.68c0-.528.168-.96.504-1.296a1.917 1.917 0 011.296-.504h8.352c.528 0 .96.168 1.296.504.336.336.504.768.504 1.296v11.88h9c.528 0 .96.168 1.296.504.384.336.576.768.576 1.296v5.832c0 .528-.192.96-.576 1.296-.336.336-.768.504-1.296.504h-9v12.816c0 3.552 1.368 5.328 4.104 5.328h5.544c.528 0 .96.168 1.296.504.336.336.504.768.504 1.296V51.2c0 .48-.168.912-.504 1.296-.336.336-.768.504-1.296.504H23.94zm16.256 0c-.528 0-.96-.168-1.296-.504-.336-.336-.504-.768-.504-1.296V17.36c0-.528.168-.96.504-1.296.336-.336.768-.504 1.296-.504h8.28c.528 0 .96.192 1.296.576.384.336.576.744.576 1.224v2.88c2.64-3.12 6.192-4.68 10.656-4.68h3.168c.528 0 .96.168 1.296.504.336.336.504.768.504 1.296v7.416c0 .48-.168.912-.504 1.296-.336.336-.768.504-1.296.504h-6.984c-1.968 0-3.504.552-4.608 1.656-1.056 1.056-1.584 2.568-1.584 4.536V51.2c0 .528-.192.96-.576 1.296-.336.336-.768.504-1.296.504h-8.928zm41.495.72c-2.544 0-4.872-.48-6.984-1.44-2.064-1.008-3.696-2.352-4.896-4.032a10.042 10.042 0 01-1.728-5.688c0-3.312 1.344-5.976 4.032-7.992 2.736-2.016 6.48-3.408 11.232-4.176l9-1.368v-1.008c0-1.824-.384-3.168-1.152-4.032-.768-.864-2.064-1.296-3.888-1.296-1.104 0-2.016.192-2.736.576-.72.384-1.464.912-2.232 1.584-.672.576-1.176.96-1.512 1.152-.144.384-.408.576-.792.576h-7.848c-.48 0-.888-.144-1.224-.432a1.455 1.455 0 01-.36-1.152c.048-1.296.672-2.736 1.872-4.32 1.248-1.584 3.12-2.952 5.616-4.104 2.544-1.152 5.664-1.728 9.36-1.728 5.904 0 10.272 1.32 13.104 3.96 2.832 2.592 4.248 6.096 4.248 10.512V51.2c0 .48-.168.912-.504 1.296-.336.336-.768.504-1.296.504h-8.352c-.48 0-.912-.168-1.296-.504a1.917 1.917 0 01-.504-1.296v-2.52c-1.056 1.488-2.544 2.712-4.464 3.672-1.872.912-4.104 1.368-6.696 1.368zm3.384-8.208c2.208 0 3.984-.72 5.328-2.16 1.392-1.44 2.088-3.552 2.088-6.336v-1.008l-6.12 1.08c-4.32.768-6.48 2.28-6.48 4.536 0 1.2.504 2.16 1.512 2.88 1.008.672 2.232 1.008 3.672 1.008zm45.061 8.208c-5.424 0-9.816-1.44-13.176-4.32-3.36-2.928-5.16-6.984-5.4-12.168l-.072-2.88.072-2.952c.192-5.184 1.968-9.24 5.328-12.168 3.408-2.928 7.824-4.392 13.248-4.392 4.08 0 7.512.744 10.296 2.232 2.832 1.44 4.92 3.192 6.264 5.256 1.392 2.016 2.136 3.864 2.232 5.544.048.48-.12.912-.504 1.296-.336.336-.768.504-1.296.504h-9.144c-.528 0-.936-.12-1.224-.36-.288-.24-.552-.6-.792-1.08-.576-1.488-1.32-2.544-2.232-3.168-.864-.624-1.992-.936-3.384-.936-3.936 0-5.976 2.544-6.12 7.632l-.072 2.736.072 2.376c.096 2.592.648 4.512 1.656 5.76 1.056 1.2 2.544 1.8 4.464 1.8 1.488 0 2.664-.312 3.528-.936.864-.624 1.56-1.68 2.088-3.168.24-.48.504-.84.792-1.08.288-.24.696-.36 1.224-.36h9.144c.48 0 .888.168 1.224.504.384.288.576.672.576 1.152 0 1.536-.672 3.336-2.016 5.4-1.296 2.064-3.36 3.888-6.192 5.472-2.832 1.536-6.36 2.304-10.584 2.304zm27.06-.72c-.48 0-.912-.168-1.296-.504a1.917 1.917 0 01-.504-1.296V3.68c0-.528.168-.96.504-1.296a1.917 1.917 0 011.296-.504h8.352c.528 0 .96.168 1.296.504.336.336.504.768.504 1.296V27.8l10.008-11.016.504-.504c.288-.24.576-.408.864-.504a2.227 2.227 0 011.008-.216h9.648c.432 0 .792.168 1.08.504.336.288.504.648.504 1.08 0 .528-.192.936-.576 1.224l-12.96 13.968 14.76 17.928c.384.384.576.744.576 1.08 0 .48-.168.888-.504 1.224-.288.288-.672.432-1.152.432h-9.864c-.624 0-1.104-.096-1.44-.288-.288-.192-.648-.504-1.08-.936l-11.376-13.68V51.2c0 .48-.168.912-.504 1.296-.336.336-.768.504-1.296.504h-8.352zm59.47 0c-9.936 0-14.904-4.728-14.904-14.184V24.992h-5.616c-.528 0-.984-.168-1.368-.504-.336-.336-.504-.768-.504-1.296V17.36c0-.528.168-.96.504-1.296.384-.336.84-.504 1.368-.504h5.616V3.68c0-.528.168-.96.504-1.296a1.917 1.917 0 011.296-.504h8.352c.528 0 .96.168 1.296.504.336.336.504.768.504 1.296v11.88h9c.528 0 .96.168 1.296.504.384.336.576.768.576 1.296v5.832c0 .528-.192.96-.576 1.296-.336.336-.768.504-1.296.504h-9v12.816c0 3.552 1.368 5.328 4.104 5.328h5.544c.528 0 .96.168 1.296.504.336.336.504.768.504 1.296V51.2c0 .48-.168.912-.504 1.296-.336.336-.768.504-1.296.504h-6.696zm25.689.72c-2.544 0-4.872-.48-6.984-1.44-2.064-1.008-3.696-2.352-4.896-4.032a10.042 10.042 0 01-1.728-5.688c0-3.312 1.344-5.976 4.032-7.992 2.736-2.016 6.48-3.408 11.232-4.176l9-1.368v-1.008c0-1.824-.384-3.168-1.152-4.032-.768-.864-2.064-1.296-3.888-1.296-1.104 0-2.016.192-2.736.576-.72.384-1.464.912-2.232 1.584-.672.576-1.176.96-1.512 1.152-.144.384-.408.576-.792.576h-7.848c-.48 0-.888-.144-1.224-.432a1.455 1.455 0 01-.36-1.152c.048-1.296.672-2.736 1.872-4.32 1.248-1.584 3.12-2.952 5.616-4.104 2.544-1.152 5.664-1.728 9.36-1.728 5.904 0 10.272 1.32 13.104 3.96 2.832 2.592 4.248 6.096 4.248 10.512V51.2c0 .48-.168.912-.504 1.296-.336.336-.768.504-1.296.504h-8.352c-.48 0-.912-.168-1.296-.504a1.917 1.917 0 01-.504-1.296v-2.52c-1.056 1.488-2.544 2.712-4.464 3.672-1.872.912-4.104 1.368-6.696 1.368zm3.384-8.208c2.208 0 3.984-.72 5.328-2.16 1.392-1.44 2.088-3.552 2.088-6.336v-1.008l-6.12 1.08c-4.32.768-6.48 2.28-6.48 4.536 0 1.2.504 2.16 1.512 2.88 1.008.672 2.232 1.008 3.672 1.008zM275.392 53c-.48 0-.912-.168-1.296-.504a1.917 1.917 0 01-.504-1.296V3.68c0-.528.168-.96.504-1.296a1.917 1.917 0 011.296-.504h8.352c.528 0 .96.168 1.296.504.336.336.504.768.504 1.296V27.8l10.008-11.016.504-.504c.288-.24.576-.408.864-.504a2.227 2.227 0 011.008-.216h9.648c.432 0 .792.168 1.08.504.336.288.504.648.504 1.08 0 .528-.192.936-.576 1.224l-12.96 13.968 14.76 17.928c.384.384.576.744.576 1.08 0 .48-.168.888-.504 1.224-.288.288-.672.432-1.152.432h-9.864c-.624 0-1.104-.096-1.44-.288-.288-.192-.648-.504-1.08-.936l-11.376-13.68V51.2c0 .48-.168.912-.504 1.296-.336.336-.768.504-1.296.504h-8.352z" fill="#51509C"/><path d="M23.94 53c-9.937 0-14.905-4.728-14.905-14.184V24.992H3.42c-.528 0-.984-.168-1.368-.504-.336-.336-.504-.768-.504-1.296V17.36c0-.528.168-.96.504-1.296.384-.336.84-.504 1.368-.504h5.616V3.68c0-.528.168-.96.504-1.296a1.917 1.917 0 011.296-.504h8.352c.528 0 .96.168 1.296.504.336.336.504.768.504 1.296v11.88h9c.528 0 .96.168 1.296.504.384.336.576.768.576 1.296v5.832c0 .528-.192.96-.576 1.296-.336.336-.768.504-1.296.504h-9v12.816c0 3.552 1.368 5.328 4.104 5.328h5.544c.528 0 .96.168 1.296.504.336.336.504.768.504 1.296V51.2c0 .48-.168.912-.504 1.296-.336.336-.768.504-1.296.504H23.94zm16.256 0c-.528 0-.96-.168-1.296-.504-.336-.336-.504-.768-.504-1.296V17.36c0-.528.168-.96.504-1.296.336-.336.768-.504 1.296-.504h8.28c.528 0 .96.192 1.296.576.384.336.576.744.576 1.224v2.88c2.64-3.12 6.192-4.68 10.656-4.68h3.168c.528 0 .96.168 1.296.504.336.336.504.768.504 1.296v7.416c0 .48-.168.912-.504 1.296-.336.336-.768.504-1.296.504h-6.984c-1.968 0-3.504.552-4.608 1.656-1.056 1.056-1.584 2.568-1.584 4.536V51.2c0 .528-.192.96-.576 1.296-.336.336-.768.504-1.296.504h-8.928zm41.495.72c-2.544 0-4.872-.48-6.984-1.44-2.064-1.008-3.696-2.352-4.896-4.032a10.042 10.042 0 01-1.728-5.688c0-3.312 1.344-5.976 4.032-7.992 2.736-2.016 6.48-3.408 11.232-4.176l9-1.368v-1.008c0-1.824-.384-3.168-1.152-4.032-.768-.864-2.064-1.296-3.888-1.296-1.104 0-2.016.192-2.736.576-.72.384-1.464.912-2.232 1.584-.672.576-1.176.96-1.512 1.152-.144.384-.408.576-.792.576h-7.848c-.48 0-.888-.144-1.224-.432a1.455 1.455 0 01-.36-1.152c.048-1.296.672-2.736 1.872-4.32 1.248-1.584 3.12-2.952 5.616-4.104 2.544-1.152 5.664-1.728 9.36-1.728 5.904 0 10.272 1.32 13.104 3.96 2.832 2.592 4.248 6.096 4.248 10.512V51.2c0 .48-.168.912-.504 1.296-.336.336-.768.504-1.296.504h-8.352c-.48 0-.912-.168-1.296-.504a1.917 1.917 0 01-.504-1.296v-2.52c-1.056 1.488-2.544 2.712-4.464 3.672-1.872.912-4.104 1.368-6.696 1.368zm3.384-8.208c2.208 0 3.984-.72 5.328-2.16 1.392-1.44 2.088-3.552 2.088-6.336v-1.008l-6.12 1.08c-4.32.768-6.48 2.28-6.48 4.536 0 1.2.504 2.16 1.512 2.88 1.008.672 2.232 1.008 3.672 1.008zm45.061 8.208c-5.424 0-9.816-1.44-13.176-4.32-3.36-2.928-5.16-6.984-5.4-12.168l-.072-2.88.072-2.952c.192-5.184 1.968-9.24 5.328-12.168 3.408-2.928 7.824-4.392 13.248-4.392 4.08 0 7.512.744 10.296 2.232 2.832 1.44 4.92 3.192 6.264 5.256 1.392 2.016 2.136 3.864 2.232 5.544.048.48-.12.912-.504 1.296-.336.336-.768.504-1.296.504h-9.144c-.528 0-.936-.12-1.224-.36-.288-.24-.552-.6-.792-1.08-.576-1.488-1.32-2.544-2.232-3.168-.864-.624-1.992-.936-3.384-.936-3.936 0-5.976 2.544-6.12 7.632l-.072 2.736.072 2.376c.096 2.592.648 4.512 1.656 5.76 1.056 1.2 2.544 1.8 4.464 1.8 1.488 0 2.664-.312 3.528-.936.864-.624 1.56-1.68 2.088-3.168.24-.48.504-.84.792-1.08.288-.24.696-.36 1.224-.36h9.144c.48 0 .888.168 1.224.504.384.288.576.672.576 1.152 0 1.536-.672 3.336-2.016 5.4-1.296 2.064-3.36 3.888-6.192 5.472-2.832 1.536-6.36 2.304-10.584 2.304zm27.06-.72c-.48 0-.912-.168-1.296-.504a1.917 1.917 0 01-.504-1.296V3.68c0-.528.168-.96.504-1.296a1.917 1.917 0 011.296-.504h8.352c.528 0 .96.168 1.296.504.336.336.504.768.504 1.296V27.8l10.008-11.016.504-.504c.288-.24.576-.408.864-.504a2.227 2.227 0 011.008-.216h9.648c.432 0 .792.168 1.08.504.336.288.504.648.504 1.08 0 .528-.192.936-.576 1.224l-12.96 13.968 14.76 17.928c.384.384.576.744.576 1.08 0 .48-.168.888-.504 1.224-.288.288-.672.432-1.152.432h-9.864c-.624 0-1.104-.096-1.44-.288-.288-.192-.648-.504-1.08-.936l-11.376-13.68V51.2c0 .48-.168.912-.504 1.296-.336.336-.768.504-1.296.504h-8.352zm59.47 0c-9.936 0-14.904-4.728-14.904-14.184V24.992h-5.616c-.528 0-.984-.168-1.368-.504-.336-.336-.504-.768-.504-1.296V17.36c0-.528.168-.96.504-1.296.384-.336.84-.504 1.368-.504h5.616V3.68c0-.528.168-.96.504-1.296a1.917 1.917 0 011.296-.504h8.352c.528 0 .96.168 1.296.504.336.336.504.768.504 1.296v11.88h9c.528 0 .96.168 1.296.504.384.336.576.768.576 1.296v5.832c0 .528-.192.96-.576 1.296-.336.336-.768.504-1.296.504h-9v12.816c0 3.552 1.368 5.328 4.104 5.328h5.544c.528 0 .96.168 1.296.504.336.336.504.768.504 1.296V51.2c0 .48-.168.912-.504 1.296-.336.336-.768.504-1.296.504h-6.696zm25.689.72c-2.544 0-4.872-.48-6.984-1.44-2.064-1.008-3.696-2.352-4.896-4.032a10.042 10.042 0 01-1.728-5.688c0-3.312 1.344-5.976 4.032-7.992 2.736-2.016 6.48-3.408 11.232-4.176l9-1.368v-1.008c0-1.824-.384-3.168-1.152-4.032-.768-.864-2.064-1.296-3.888-1.296-1.104 0-2.016.192-2.736.576-.72.384-1.464.912-2.232 1.584-.672.576-1.176.96-1.512 1.152-.144.384-.408.576-.792.576h-7.848c-.48 0-.888-.144-1.224-.432a1.455 1.455 0 01-.36-1.152c.048-1.296.672-2.736 1.872-4.32 1.248-1.584 3.12-2.952 5.616-4.104 2.544-1.152 5.664-1.728 9.36-1.728 5.904 0 10.272 1.32 13.104 3.96 2.832 2.592 4.248 6.096 4.248 10.512V51.2c0 .48-.168.912-.504 1.296-.336.336-.768.504-1.296.504h-8.352c-.48 0-.912-.168-1.296-.504a1.917 1.917 0 01-.504-1.296v-2.52c-1.056 1.488-2.544 2.712-4.464 3.672-1.872.912-4.104 1.368-6.696 1.368zm3.384-8.208c2.208 0 3.984-.72 5.328-2.16 1.392-1.44 2.088-3.552 2.088-6.336v-1.008l-6.12 1.08c-4.32.768-6.48 2.28-6.48 4.536 0 1.2.504 2.16 1.512 2.88 1.008.672 2.232 1.008 3.672 1.008zM275.392 53c-.48 0-.912-.168-1.296-.504a1.917 1.917 0 01-.504-1.296V3.68c0-.528.168-.96.504-1.296a1.917 1.917 0 011.296-.504h8.352c.528 0 .96.168 1.296.504.336.336.504.768.504 1.296V27.8l10.008-11.016.504-.504c.288-.24.576-.408.864-.504a2.227 2.227 0 011.008-.216h9.648c.432 0 .792.168 1.08.504.336.288.504.648.504 1.08 0 .528-.192.936-.576 1.224l-12.96 13.968 14.76 17.928c.384.384.576.744.576 1.08 0 .48-.168.888-.504 1.224-.288.288-.672.432-1.152.432h-9.864c-.624 0-1.104-.096-1.44-.288-.288-.192-.648-.504-1.08-.936l-11.376-13.68V51.2c0 .48-.168.912-.504 1.296-.336.336-.768.504-1.296.504h-8.352z" fill="#51509C"/><path d="M9.035 24.992h1v-1h-1v1zm-6.984-.504l-.707.707.023.024.026.022.658-.753zm0-8.424l-.658-.753-.026.022-.023.024.707.707zm6.984-.504v1h1v-1h-1zM9.54 2.384l-.658-.753-.026.022-.023.024.707.707zm10.944 0l-.707.707.707-.707zm.504 13.176h-1v1h1v-1zm10.296.504l-.707.707.023.024.026.022.658-.753zm0 8.424l-.658-.753-.026.022-.023.024.707.707zm-10.296.504v-1h-1v1h1zM31.931 43.64l.707-.707-.707.707zm0 8.856l.707.707.024-.023.022-.026-.753-.658zM23.94 52c-4.826 0-8.26-1.149-10.489-3.27-2.22-2.113-3.415-5.353-3.415-9.914h-2c0 4.895 1.288 8.747 4.037 11.362C14.81 52.785 18.829 54 23.939 54v-2zM10.035 38.816V24.992h-2v13.824h2zm-1-14.824H3.42v2h5.616v-2zm-5.616 0c-.295 0-.515-.086-.71-.257l-1.316 1.506a3.008 3.008 0 002.026.751v-2zm-.66-.211c-.128-.127-.212-.294-.212-.589h-2c0 .76.252 1.458.797 2.003l1.414-1.414zm-.212-.589V17.36h-2v5.832h2zm0-5.832c0-.295.084-.462.211-.589l-1.414-1.414c-.545.545-.797 1.242-.797 2.003h2zm.163-.543c.194-.17.414-.257.71-.257v-2c-.762 0-1.454.25-2.027.751l1.317 1.506zm.71-.257h5.615v-2H3.42v2zm6.615-1V3.68h-2v11.88h2zm0-11.88c0-.295.084-.462.211-.589L8.832 1.677c-.545.545-.797 1.242-.797 2.003h2zm.163-.543c.214-.188.415-.257.637-.257v-2c-.738 0-1.4.267-1.954.751l1.317 1.506zm.637-.257h8.352v-2h-8.352v2zm8.352 0c.295 0 .462.084.589.211l1.414-1.414c-.545-.545-1.242-.797-2.003-.797v2zm.589.211c.127.127.211.294.211.589h2c0-.76-.252-1.458-.797-2.003L19.776 3.09zm.211.589v11.88h2V3.68h-2zm1 12.88h9v-2h-9v2zm9 0c.295 0 .462.084.589.211l1.414-1.414c-.545-.545-1.242-.797-2.003-.797v2zm.638.257c.158.138.234.292.234.543h2c0-.805-.308-1.515-.917-2.049l-1.317 1.506zm.234.543v5.832h2V17.36h-2zm0 5.832c0 .251-.076.405-.234.543l1.317 1.506c.61-.534.917-1.244.917-2.049h-2zm-.283.589c-.127.127-.294.211-.589.211v2c.761 0 1.458-.252 2.003-.797l-1.414-1.414zm-.589.211h-9v2h9v-2zm-10 1v12.816h2V24.992h-2zm0 12.816c0 1.876.357 3.467 1.234 4.606.915 1.189 2.268 1.722 3.87 1.722v-2c-1.134 0-1.833-.355-2.286-.942-.49-.637-.818-1.71-.818-3.386h-2zm5.104 6.328h5.544v-2h-5.544v2zm5.544 0c.295 0 .462.084.589.211l1.414-1.414c-.545-.545-1.242-.797-2.003-.797v2zm.589.211c.127.127.211.294.211.589h2c0-.76-.252-1.458-.797-2.003l-1.414 1.414zm.211.589V51.2h2v-6.264h-2zm0 6.264c0 .222-.07.423-.256.637l1.505 1.317a2.916 2.916 0 00.751-1.954h-2zm-.211.589c-.127.127-.294.211-.589.211v2c.761 0 1.458-.252 2.003-.797l-1.414-1.414zm-.589.211H23.94v2h6.696v-2zm8.265.496l-.707.707.707-.707zm0-36.432l.708.707-.708-.707zm10.872.072l-.752.659.044.05.05.044.658-.753zm.576 4.104h-1v2.73l1.764-2.084-.764-.646zm15.12-4.176l-.707.707.707-.707zm0 10.008l.707.707.024-.023.022-.026-.753-.658zm-12.888 2.16l.708.707-.708-.707zm-2.16 24.264l-.658-.753-.025.022-.024.024.707.707zM40.196 52c-.295 0-.462-.084-.588-.211l-1.415 1.414c.546.545 1.242.797 2.003.797v-2zm-.588-.211c-.127-.127-.212-.294-.212-.589h-2c0 .76.252 1.458.797 2.003l1.415-1.414zm-.212-.589V17.36h-2V51.2h2zm0-33.84c0-.295.085-.462.212-.589l-1.415-1.414c-.545.545-.797 1.242-.797 2.003h2zm.212-.589c.126-.127.293-.211.588-.211v-2c-.76 0-1.457.252-2.003.797l1.415 1.414zm.588-.211h8.28v-2h-8.28v2zm8.28 0c.252 0 .405.076.544.235l1.505-1.318c-.533-.609-1.244-.917-2.049-.917v2zm.638.329c.182.16.234.3.234.471h2c0-.788-.331-1.464-.917-1.977l-1.317 1.506zm.234.471v2.88h2v-2.88h-2zm1.764 3.526c2.43-2.873 5.692-4.326 9.892-4.326v-2c-4.727 0-8.57 1.667-11.419 5.034l1.527 1.292zm9.892-4.326h3.168v-2h-3.168v2zm3.168 0c.296 0 .463.084.59.211l1.413-1.414c-.545-.545-1.242-.797-2.003-.797v2zm.59.211c.126.127.21.294.21.589h2c0-.76-.251-1.458-.796-2.003L64.76 16.77zm.21.589v7.416h2V17.36h-2zm0 7.416c0 .222-.069.423-.256.637l1.505 1.317a2.916 2.916 0 00.751-1.954h-2zm-.21.589c-.127.127-.294.211-.59.211v2c.761 0 1.458-.252 2.004-.797l-1.415-1.414zm-.59.211h-6.984v2h6.984v-2zm-6.984 0c-2.16 0-3.977.611-5.315 1.949l1.415 1.414c.87-.87 2.125-1.363 3.9-1.363v-2zm-5.315 1.949c-1.297 1.297-1.877 3.097-1.877 5.243h2c0-1.79.477-3.014 1.291-3.829l-1.414-1.414zm-1.877 5.243V51.2h2V32.768h-2zm0 18.432c0 .251-.076.405-.234.543l1.317 1.506c.61-.534.917-1.244.917-2.049h-2zm-.283.589c-.127.127-.294.211-.589.211v2c.761 0 1.458-.252 2.003-.797l-1.414-1.414zm-.589.211h-8.928v2h8.928v-2zm25.583.28l-.439.899.013.006.012.005.414-.91zm-4.896-4.032l-.832.555.009.013.01.013.813-.581zm2.304-13.68l-.593-.805-.007.005.6.8zm11.232-4.176l-.15-.989-.01.002.16.987zm9-1.368l.15.989.85-.13v-.859h-1zm-1.152-5.04l-.747.664.747-.664zm-6.624-.72l.47.882-.47-.882zm-2.232 1.584l.65.76.008-.007-.658-.753zM80.827 26l-.496-.868-.314.179-.126.338.936.351zm-9.864.144l-.76.65.05.06.06.05.65-.76zm-.36-1.152l.994.11.004-.036.001-.037-1-.037zm1.872-4.32l-.786-.619-.005.008-.006.007.797.604zm5.616-4.104l-.413-.911-.006.003.419.908zm22.464 2.232l-.682.732.007.006.675-.738zm3.744 33.696l.707.707.024-.023.022-.026-.753-.658zm-10.944 0l-.753.658.044.05.05.045.659-.753zm-.504-3.816h1v-3.137l-1.816 2.558.816.579zm-4.464 3.672l.438.899.01-.005-.448-.894zm2.016-9l-.719-.695-.006.006-.006.007.73.682zm2.088-7.344h1v-1.192l-1.174.207.174.985zm-6.12 1.08l-.174-.985h-.001l.175.985zm-4.968 7.416l-.581.814.013.01.013.008.555-.832zm.288 8.216c-2.415 0-4.6-.455-6.57-1.35l-.828 1.82c2.254 1.025 4.725 1.53 7.398 1.53v-2zm-6.545-1.339c-1.932-.943-3.428-2.184-4.521-3.714l-1.628 1.162c1.307 1.83 3.075 3.277 5.271 4.35l.878-1.798zm-4.503-3.688a9.043 9.043 0 01-1.56-5.133h-2c0 2.263.635 4.351 1.896 6.243l1.664-1.11zm-1.56-5.133c0-2.992 1.191-5.362 3.632-7.192l-1.2-1.6c-2.936 2.202-4.432 5.16-4.432 8.792h2zm3.625-7.187c2.566-1.89 6.142-3.241 10.799-3.994l-.32-1.974c-4.847.783-8.76 2.217-11.665 4.358l1.186 1.61zm10.79-3.992l9-1.368-.301-1.978-9 1.368.3 1.978zm9.849-2.357v-1.008h-2v1.008h2zm0-1.008c0-1.934-.402-3.569-1.405-4.696l-1.494 1.328c.533.6.899 1.654.899 3.368h2zm-1.405-4.696c-1.044-1.175-2.688-1.632-4.635-1.632v2c1.701 0 2.649.407 3.14.96l1.495-1.328zm-4.635-1.632c-1.213 0-2.3.21-3.207.694l.942 1.764c.533-.284 1.27-.458 2.265-.458v-2zm-3.207.694c-.801.427-1.608 1.003-2.42 1.713l1.317 1.506c.725-.634 1.406-1.114 2.044-1.455l-.94-1.764zm-2.412 1.707c-.67.573-1.11.902-1.357 1.043l.992 1.736c.426-.243.992-.682 1.667-1.26l-1.302-1.52zm-1.797 1.56c-.021.055-.02.02.042-.026a.28.28 0 01.083-.042c.023-.007.032-.005.019-.005v2c.365 0 .743-.094 1.074-.335.327-.238.531-.561.654-.89l-1.872-.702zm.144-.073h-7.848v2h7.848v-2zm-7.848 0c-.263 0-.434-.072-.573-.191l-1.302 1.518c.533.457 1.178.673 1.875.673v-2zm-.465-.083a.46.46 0 01-.125-.39l-1.988-.221c-.08.712.13 1.37.595 1.913l1.518-1.302zm-.12-.464c.038-1.008.532-2.251 1.67-3.753l-1.594-1.208c-1.262 1.666-2.016 3.303-2.074 4.887l1.998.074zm1.658-3.738c1.122-1.424 2.848-2.706 5.25-3.815l-.838-1.816c-2.59 1.195-4.608 2.649-5.983 4.393l1.571 1.238zm5.243-3.812c2.38-1.078 5.35-1.639 8.948-1.639v-2c-3.794 0-7.064.59-9.773 1.817l.825 1.822zm8.948-1.639c5.78 0 9.852 1.296 12.422 3.692l1.364-1.463c-3.094-2.884-7.758-4.229-13.786-4.229v2zm12.429 3.698c2.593 2.373 3.923 5.592 3.923 9.774h2c0-4.65-1.502-8.439-4.573-11.25l-1.35 1.476zm3.923 9.774V51.2h2V29.312h-2zm0 21.888c0 .222-.069.423-.257.637l1.506 1.317a2.918 2.918 0 00.751-1.954h-2zm-.211.589c-.127.127-.294.211-.589.211v2c.761 0 1.458-.252 2.003-.797l-1.414-1.414zm-.589.211h-8.352v2h8.352v-2zm-8.352 0c-.222 0-.423-.07-.638-.257l-1.317 1.506a2.916 2.916 0 001.955.751v-2zm-.543-.163c-.188-.214-.257-.415-.257-.637h-2c0 .738.267 1.4.751 1.954l1.505-1.317zm-.257-.637v-2.52h-2v2.52h2zm-1.816-3.099c-.945 1.333-2.296 2.457-4.095 3.357l.894 1.788c2.041-1.02 3.666-2.344 4.832-3.987l-1.63-1.158zm-4.086 3.352c-1.706.831-3.782 1.267-6.258 1.267v2c2.707 0 5.096-.476 7.134-1.469l-.876-1.798zm-2.874-4.941c2.448 0 4.502-.81 6.059-2.478l-1.462-1.364c-1.131 1.212-2.63 1.842-4.597 1.842v2zm6.047-2.465c1.633-1.689 2.369-4.09 2.369-7.031h-2c0 2.627-.656 4.45-1.807 5.641l1.438 1.39zm2.369-7.031v-1.008h-2v1.008h2zm-1.174-1.993l-6.12 1.08.348 1.97 6.12-1.08-.348-1.97zm-6.121 1.08c-2.22.395-4.005.999-5.258 1.876-1.296.907-2.047 2.132-2.047 3.645h2c0-.743.329-1.402 1.193-2.007.907-.635 2.362-1.171 4.462-1.544l-.35-1.97zm-7.305 5.521c0 1.535.67 2.793 1.93 3.694l1.163-1.628c-.755-.54-1.093-1.201-1.093-2.066h-2zm1.957 3.712c1.201.8 2.627 1.176 4.227 1.176v-2c-1.28 0-2.303-.297-3.117-.84l-1.11 1.664zM116.96 49.4l-.657.754.006.005.651-.759zm-5.4-12.168l-1 .025v.01l.001.011.999-.046zm-.072-2.88l-1-.024-.001.024.001.025 1-.025zm.072-2.952l-1-.037v.013l1 .024zm5.328-12.168l-.652-.758-.005.004.657.754zm23.544-2.16l-.472.882.009.005.009.004.454-.891zm6.264 5.256l-.838.546.007.011.008.011.823-.568zm2.232 5.544l-.999.057.002.021.002.021.995-.099zm-.504 1.296l.707.707-.707-.707zm-11.664.144l.64-.768-.64.768zm-.792-1.08l-.933.361.017.044.021.042.895-.447zm-2.232-3.168l-.586.81.011.008.01.007.565-.825zm-9.504 6.696l-1-.028v.002l1 .026zm-.072 2.736l-1-.026-.001.028.001.028 1-.03zm.072 2.376l-1 .03v.007l1-.037zm1.656 5.76l-.778.628.013.017.014.016.751-.661zm7.992.864l.585.81-.585-.81zm2.088-3.168l-.895-.447-.027.055-.021.058.943.334zm.792-1.08l-.64-.768.64.768zm11.592.144l-.707.707.05.05.057.043.6-.8zm-1.44 6.552l-.838-.546-.005.007-.004.007.847.532zm-6.192 5.472l.476.88.012-.007-.488-.873zm-10.584 1.304c-5.242 0-9.385-1.387-12.526-4.08l-1.301 1.52c3.58 3.068 8.22 4.56 13.827 4.56v-2zm-12.519-4.074c-3.12-2.719-4.829-6.5-5.058-11.46l-1.998.092c.25 5.408 2.142 9.739 5.742 12.876l1.314-1.508zm-5.058-11.439l-.072-2.88-1.999.05.072 2.88 1.999-.05zm-.072-2.83l.072-2.953-1.999-.048-.072 2.952 1.999.048zm.072-2.94c.184-4.957 1.868-8.735 4.986-11.451l-1.314-1.508c-3.603 3.14-5.47 7.474-5.671 12.885l1.999.074zm4.98-11.447c3.191-2.741 7.36-4.15 12.597-4.15v-2c-5.612 0-10.275 1.519-13.9 4.634l1.303 1.517zm12.597-4.15c3.962 0 7.222.723 9.824 2.114l.943-1.764c-2.965-1.585-6.57-2.35-10.767-2.35v2zm9.842 2.123c2.72 1.383 4.655 3.03 5.88 4.91l1.676-1.09c-1.464-2.248-3.705-4.105-6.649-5.602l-.907 1.782zm5.895 4.933c1.332 1.93 1.975 3.602 2.056 5.033l1.997-.114c-.11-1.929-.956-3.953-2.407-6.055l-1.646 1.136zm2.06 5.075c.014.142-.014.288-.216.49l1.414 1.414c.566-.566.874-1.284.792-2.102l-1.99.198zm-.216.49c-.127.127-.294.211-.589.211v2c.761 0 1.458-.252 2.003-.797l-1.414-1.414zm-.589.211h-9.144v2h9.144v-2zm-9.144 0c-.389 0-.537-.089-.584-.128l-1.28 1.536c.528.44 1.196.592 1.864.592v-2zm-.584-.128c-.147-.122-.335-.353-.538-.76l-1.789.895c.277.554.617 1.043 1.047 1.401l1.28-1.536zm-.5-.673c-.618-1.596-1.462-2.854-2.6-3.632l-1.129 1.65c.686.47 1.33 1.325 1.864 2.704l1.865-.722zm-2.579-3.618c-1.08-.78-2.431-1.125-3.969-1.125v2c1.246 0 2.15.279 2.798.747l1.171-1.622zm-3.969-1.125c-2.202 0-4.013.724-5.262 2.282-1.214 1.514-1.783 3.674-1.858 6.322l1.999.056c.069-2.44.593-4.096 1.419-5.126.79-.986 1.967-1.534 3.702-1.534v-2zm-7.12 8.606l-.072 2.736 1.999.052.072-2.736-1.999-.052zm-.072 2.792l.072 2.376 1.999-.06-.072-2.376-1.999.06zm.072 2.383c.1 2.685.673 4.86 1.878 6.351l1.556-1.256c-.812-1.005-1.342-2.67-1.435-5.169l-1.999.074zm1.905 6.384c1.284 1.459 3.07 2.139 5.215 2.139v-2c-1.696 0-2.886-.52-3.714-1.46l-1.501 1.32zm5.215 2.139c1.617 0 3.023-.338 4.113-1.125l-1.171-1.622c-.638.461-1.584.747-2.942.747v2zm4.113-1.125c1.09-.788 1.88-2.052 2.445-3.645l-1.885-.668c-.491 1.383-1.093 2.23-1.731 2.691l1.171 1.622zm2.397-3.532c.203-.406.391-.637.538-.759l-1.28-1.536c-.43.358-.77.847-1.047 1.4l1.789.895zm.538-.759c.047-.04.195-.128.584-.128v-2c-.668 0-1.336.151-1.864.592l1.28 1.536zm.584-.128h9.144v-2h-9.144v2zm9.144 0c.217 0 .37.065.517.211l1.414-1.414a2.666 2.666 0 00-1.931-.797v2zm.624.304c.132.1.176.187.176.352h2c0-.795-.341-1.475-.976-1.952l-1.2 1.6zm.176.352c0 1.258-.558 2.863-1.854 4.854l1.676 1.092c1.391-2.137 2.178-4.132 2.178-5.946h-2zm-1.863 4.868c-1.182 1.883-3.101 3.603-5.833 5.131l.976 1.746c2.931-1.64 5.141-3.568 6.551-5.813l-1.694-1.064zm-5.822 5.125c-2.647 1.436-6 2.183-10.107 2.183v2c4.34 0 8.044-.789 11.06-2.425l-.953-1.758zm15.657 1.959l-.752.658.044.05.05.045.658-.753zm0-50.112l-.658-.753-.025.022-.024.024.707.707zm10.944 0l-.707.707.707-.707zm.504 25.416h-1v2.588l1.741-1.916-.741-.672zm10.008-11.016l-.707-.707-.017.017-.016.018.74.672zm.504-.504l-.64-.768-.035.029-.032.032.707.707zm.864-.504l.317.949.067-.023.064-.032-.448-.894zm11.736.288l-.759.65.05.06.059.05.65-.76zm-.072 2.304l-.6-.8-.071.054-.062.066.733.68zm-12.96 13.968l-.733-.68-.594.64.555.676.772-.636zm14.76 17.928l-.772.636.031.037.034.034.707-.707zm.072 2.304l.708.707-.708-.707zm-12.456.144l-.554.832.028.02.03.016.496-.868zm-1.08-.936l-.768.64.029.035.032.032.707-.707zm-11.376-13.68l.769-.64-1.769-2.127v2.767h1zm-.504 14.4l.708.707.023-.023.022-.026-.753-.658zM157.196 52c-.221 0-.423-.07-.637-.257l-1.317 1.506c.554.484 1.216.751 1.954.751v-2zm-.543-.163c-.187-.214-.257-.415-.257-.637h-2c0 .738.267 1.4.752 1.954l1.505-1.317zm-.257-.637V3.68h-2V51.2h2zm0-47.52c0-.295.085-.462.212-.589l-1.415-1.414c-.545.545-.797 1.242-.797 2.003h2zm.163-.543c.214-.188.416-.257.637-.257v-2c-.738 0-1.4.267-1.954.751l1.317 1.506zm.637-.257h8.352v-2h-8.352v2zm8.352 0c.296 0 .463.084.589.211l1.415-1.414c-.546-.545-1.243-.797-2.004-.797v2zm.589.211c.127.127.211.294.211.589h2c0-.76-.251-1.458-.796-2.003l-1.415 1.414zm.211.589V27.8h2V3.68h-2zm1.741 24.792l10.008-11.016-1.481-1.344-10.008 11.016 1.481 1.344zm9.975-10.98l.504-.505-1.415-1.414-.504.504 1.415 1.414zm.437-.444c.214-.178.394-.275.54-.323l-.633-1.898c-.43.144-.826.383-1.188.685l1.281 1.536zm.671-.378c.125-.062.302-.11.56-.11v-2c-.509 0-1.004.096-1.455.322l.895 1.788zm.56-.11h9.648v-2h-9.648v2zm9.648 0c.132 0 .218.034.321.155l1.519-1.302a2.365 2.365 0 00-1.84-.853v2zm.43.263c.12.104.154.189.154.321h2c0-.732-.301-1.367-.853-1.84l-1.301 1.52zm.154.321c0 .25-.071.346-.176.424l1.2 1.6c.664-.498.976-1.218.976-2.024h-2zm-.309.544l-12.96 13.968 1.467 1.36 12.96-13.968-1.467-1.36zm-12.999 15.284l14.76 17.928 1.544-1.272L178.2 31.7l-1.544 1.272zm14.825 18c.144.143.22.251.257.32.035.066.026.08.026.052h2c0-.725-.408-1.326-.868-1.787l-1.415 1.414zm.283.372c0 .218-.064.37-.211.517l1.415 1.414a2.667 2.667 0 00.796-1.931h-2zm-.211.517c-.067.067-.179.139-.445.139v2c.695 0 1.351-.216 1.86-.725l-1.415-1.414zm-.445.139h-9.864v2h9.864v-2zm-9.864 0c-.545 0-.824-.088-.943-.156l-.993 1.736c.553.316 1.234.42 1.936.42v-2zm-.885-.12c-.207-.138-.512-.396-.927-.811l-1.415 1.414c.449.45.864.815 1.233 1.061l1.109-1.664zm-.866-.743l-11.376-13.68-1.537 1.278 11.376 13.68 1.537-1.278zm-13.145-13.041V51.2h2V38.096h-2zm0 13.104c0 .222-.069.423-.256.637l1.505 1.317a2.914 2.914 0 00.751-1.954h-2zm-.211.589c-.126.127-.293.211-.589.211v2c.761 0 1.458-.252 2.004-.797l-1.415-1.414zm-.589.211h-8.352v2h8.352v-2zm36.214-27.008h1v-1h-1v1zm-6.984-.504l-.707.707.023.024.025.022.659-.753zm0-8.424l-.659-.753-.025.022-.023.024.707.707zm6.984-.504v1h1v-1h-1zm.504-13.176l-.659-.753-.025.022-.023.024.707.707zm10.944 0l-.707.707.707-.707zm.504 13.176h-1v1h1v-1zm10.296.504l-.707.707.023.024.025.022.659-.753zm0 8.424l-.659-.753-.025.022-.023.024.707.707zm-10.296.504v-1h-1v1h1zm10.944 18.648l.707-.707-.707.707zm0 8.856l.707.707.023-.023.022-.026-.752-.658zM216.666 52c-4.826 0-8.26-1.149-10.489-3.27-2.22-2.113-3.415-5.353-3.415-9.914h-2c0 4.895 1.288 8.747 4.036 11.362 2.739 2.607 6.758 3.822 11.868 3.822v-2zm-13.904-13.184V24.992h-2v13.824h2zm-1-14.824h-5.616v2h5.616v-2zm-5.616 0c-.295 0-.515-.086-.71-.257l-1.317 1.506a3.009 3.009 0 002.027.751v-2zm-.661-.211c-.127-.127-.211-.294-.211-.589h-2c0 .76.251 1.458.797 2.003l1.414-1.414zm-.211-.589V17.36h-2v5.832h2zm0-5.832c0-.295.084-.462.211-.589l-1.414-1.414c-.546.545-.797 1.242-.797 2.003h2zm.162-.543c.195-.17.415-.257.71-.257v-2c-.761 0-1.454.25-2.027.751l1.317 1.506zm.71-.257h5.616v-2h-5.616v2zm6.616-1V3.68h-2v11.88h2zm0-11.88c0-.295.084-.462.211-.589l-1.414-1.414c-.546.545-.797 1.242-.797 2.003h2zm.162-.543c.214-.188.416-.257.638-.257v-2c-.739 0-1.401.267-1.955.751l1.317 1.506zm.638-.257h8.352v-2h-8.352v2zm8.352 0c.295 0 .462.084.589.211l1.414-1.414c-.545-.545-1.242-.797-2.003-.797v2zm.589.211c.126.127.211.294.211.589h2c0-.76-.252-1.458-.797-2.003l-1.414 1.414zm.211.589v11.88h2V3.68h-2zm1 12.88h9v-2h-9v2zm9 0c.295 0 .462.084.589.211l1.414-1.414c-.545-.545-1.242-.797-2.003-.797v2zm.637.257c.159.138.235.292.235.543h2c0-.805-.308-1.515-.918-2.049l-1.317 1.506zm.235.543v5.832h2V17.36h-2zm0 5.832c0 .251-.076.405-.235.543l1.317 1.506c.61-.534.918-1.244.918-2.049h-2zm-.283.589c-.127.127-.294.211-.589.211v2c.761 0 1.458-.252 2.003-.797l-1.414-1.414zm-.589.211h-9v2h9v-2zm-10 1v12.816h2V24.992h-2zm0 12.816c0 1.876.356 3.467 1.233 4.606.916 1.189 2.268 1.722 3.871 1.722v-2c-1.134 0-1.834-.355-2.286-.942-.491-.637-.818-1.71-.818-3.386h-2zm5.104 6.328h5.544v-2h-5.544v2zm5.544 0c.295 0 .462.084.589.211l1.414-1.414c-.545-.545-1.242-.797-2.003-.797v2zm.589.211c.126.127.211.294.211.589h2c0-.76-.252-1.458-.797-2.003l-1.414 1.414zm.211.589V51.2h2v-6.264h-2zm0 6.264c0 .222-.07.423-.257.637l1.505 1.317a2.914 2.914 0 00.752-1.954h-2zm-.211.589c-.127.127-.294.211-.589.211v2c.761 0 1.458-.252 2.003-.797l-1.414-1.414zm-.589.211h-6.696v2h6.696v-2zm12.009.28l-.439.899.013.006.012.005.414-.91zm-4.896-4.032l-.832.555.009.013.009.013.814-.581zm2.304-13.68l-.593-.805-.007.005.6.8zm11.232-4.176l-.15-.989-.01.002.16.987zm9-1.368l.15.989.85-.13v-.859h-1zm-1.152-5.04l-.747.664.747-.664zm-6.624-.72l.471.882-.471-.882zm-2.232 1.584l.651.76.008-.007-.659-.753zM241.491 26l-.496-.868-.314.179-.126.338.936.351zm-9.864.144l-.759.65.05.06.058.05.651-.76zm-.36-1.152l.994.11.004-.036.001-.037-.999-.037zm1.872-4.32l-.785-.619-.006.008-.006.007.797.604zm5.616-4.104l-.413-.911-.006.003.419.908zm22.464 2.232l-.682.732.007.006.675-.738zm3.744 33.696l.707.707.024-.023.022-.026-.753-.658zm-10.944 0l-.753.658.044.05.05.045.659-.753zm-.504-3.816h1v-3.137l-1.816 2.558.816.579zm-4.464 3.672l.438.899.009-.005-.447-.894zm2.016-9l-.719-.695-.006.006-.006.007.731.682zm2.088-7.344h1v-1.192l-1.174.207.174.985zm-6.12 1.08l-.174-.985h-.001l.175.985zm-4.968 7.416l-.581.814.013.01.013.008.555-.832zm.288 8.216c-2.415 0-4.6-.455-6.57-1.35l-.828 1.82c2.254 1.025 4.725 1.53 7.398 1.53v-2zm-6.545-1.339c-1.932-.943-3.428-2.184-4.521-3.714l-1.628 1.162c1.307 1.83 3.075 3.277 5.271 4.35l.878-1.798zm-4.503-3.688a9.044 9.044 0 01-1.56-5.133h-2c0 2.263.635 4.351 1.896 6.243l1.664-1.11zm-1.56-5.133c0-2.992 1.192-5.362 3.632-7.192l-1.2-1.6c-2.936 2.202-4.432 5.16-4.432 8.792h2zm3.625-7.187c2.566-1.89 6.142-3.241 10.799-3.994l-.32-1.974c-4.847.783-8.759 2.217-11.665 4.358l1.186 1.61zm10.789-3.992l9-1.368-.3-1.978-9 1.368.3 1.978zm9.85-2.357v-1.008h-2v1.008h2zm0-1.008c0-1.934-.402-3.569-1.405-4.696l-1.494 1.328c.533.6.899 1.654.899 3.368h2zm-1.405-4.696c-1.044-1.175-2.688-1.632-4.635-1.632v2c1.701 0 2.649.407 3.141.96l1.494-1.328zm-4.635-1.632c-1.213 0-2.3.21-3.207.694l.942 1.764c.533-.284 1.27-.458 2.265-.458v-2zm-3.207.694c-.801.427-1.608 1.003-2.42 1.713l1.318 1.506c.724-.634 1.405-1.114 2.044-1.455l-.942-1.764zm-2.412 1.707c-.669.573-1.111.902-1.357 1.043l.992 1.736c.426-.243.992-.682 1.667-1.26l-1.302-1.52zm-1.797 1.56c-.021.055-.021.02.042-.026a.277.277 0 01.083-.042c.023-.007.032-.005.019-.005v2a1.8 1.8 0 001.074-.335c.327-.238.531-.561.654-.89l-1.872-.702zm.144-.073h-7.848v2h7.848v-2zm-7.848 0c-.263 0-.434-.072-.573-.191l-1.302 1.518c.533.457 1.178.673 1.875.673v-2zm-.465-.083a.46.46 0 01-.125-.39l-1.988-.221c-.079.712.13 1.37.595 1.913l1.518-1.302zm-.12-.464c.038-1.008.532-2.251 1.67-3.753l-1.594-1.208c-1.262 1.666-2.016 3.303-2.074 4.887l1.998.074zm1.658-3.738c1.122-1.424 2.848-2.706 5.25-3.815l-.838-1.816c-2.59 1.195-4.608 2.649-5.982 4.393l1.57 1.238zm5.244-3.812c2.379-1.078 5.349-1.639 8.947-1.639v-2c-3.794 0-7.064.59-9.773 1.817l.826 1.822zm8.947-1.639c5.78 0 9.852 1.296 12.422 3.692l1.364-1.463c-3.094-2.884-7.758-4.229-13.786-4.229v2zm12.429 3.698c2.593 2.373 3.923 5.592 3.923 9.774h2c0-4.65-1.502-8.439-4.573-11.25l-1.35 1.476zm3.923 9.774V51.2h2V29.312h-2zm0 21.888c0 .222-.069.423-.257.637l1.506 1.317a2.918 2.918 0 00.751-1.954h-2zm-.211.589c-.127.127-.294.211-.589.211v2c.761 0 1.458-.252 2.003-.797l-1.414-1.414zm-.589.211h-8.352v2h8.352v-2zm-8.352 0c-.222 0-.423-.07-.637-.257l-1.318 1.506a2.918 2.918 0 001.955.751v-2zm-.543-.163c-.188-.214-.257-.415-.257-.637h-2c0 .738.267 1.4.751 1.954l1.506-1.317zm-.257-.637v-2.52h-2v2.52h2zm-1.816-3.099c-.945 1.333-2.296 2.457-4.095 3.357l.894 1.788c2.041-1.02 3.666-2.344 4.833-3.987l-1.632-1.158zm-4.086 3.352c-1.706.831-3.781 1.267-6.258 1.267v2c2.707 0 5.096-.476 7.134-1.469l-.876-1.798zm-2.874-4.941c2.448 0 4.502-.81 6.059-2.478l-1.462-1.364c-1.131 1.212-2.629 1.842-4.597 1.842v2zm6.047-2.465c1.633-1.689 2.369-4.09 2.369-7.031h-2c0 2.627-.656 4.45-1.807 5.641l1.438 1.39zm2.369-7.031v-1.008h-2v1.008h2zm-1.174-1.993l-6.12 1.08.348 1.97 6.12-1.08-.348-1.97zm-6.121 1.08c-2.22.395-4.005.999-5.258 1.876-1.296.907-2.047 2.132-2.047 3.645h2c0-.743.329-1.402 1.193-2.007.907-.635 2.362-1.171 4.462-1.544l-.35-1.97zm-7.305 5.521c0 1.535.67 2.793 1.931 3.694l1.162-1.628c-.755-.54-1.093-1.201-1.093-2.066h-2zm1.957 3.712c1.202.8 2.627 1.176 4.227 1.176v-2c-1.28 0-2.303-.297-3.117-.84l-1.11 1.664zm32.584 7.16l-.753.658.044.05.05.045.659-.753zm0-50.112l-.659-.753-.025.022-.023.024.707.707zm10.944 0l-.707.707.707-.707zm.504 25.416h-1v2.588l1.74-1.916-.74-.672zm10.008-11.016l-.707-.707-.017.017-.016.018.74.672zm.504-.504l-.64-.768-.035.029-.032.032.707.707zm.864-.504l.316.949.067-.023.064-.032-.447-.894zm11.736.288l-.76.65.051.06.058.05.651-.76zm-.072 2.304l-.6-.8-.072.054-.061.066.733.68zm-12.96 13.968l-.733-.68-.595.64.556.676.772-.636zm14.76 17.928l-.772.636.03.037.035.034.707-.707zm.072 2.304l.707.707-.707-.707zM298 52.712l-.555.832.029.02.03.016.496-.868zm-1.08-.936l-.769.64.029.035.033.032.707-.707zm-11.376-13.68l.769-.64-1.769-2.127v2.767h1zm-.504 14.4l.707.707.023-.023.022-.026-.752-.658zM275.392 52c-.222 0-.424-.07-.638-.257l-1.317 1.506a2.916 2.916 0 001.955.751v-2zm-.544-.163c-.187-.214-.256-.415-.256-.637h-2c0 .738.267 1.4.751 1.954l1.505-1.317zm-.256-.637V3.68h-2V51.2h2zm0-47.52c0-.295.084-.462.211-.589l-1.414-1.414c-.546.545-.797 1.242-.797 2.003h2zm.162-.543c.214-.188.416-.257.638-.257v-2c-.739 0-1.401.267-1.955.751l1.317 1.506zm.638-.257h8.352v-2h-8.352v2zm8.352 0c.295 0 .462.084.589.211l1.414-1.414c-.545-.545-1.242-.797-2.003-.797v2zm.589.211c.126.127.211.294.211.589h2c0-.76-.252-1.458-.797-2.003l-1.414 1.414zm.211.589V27.8h2V3.68h-2zm1.74 24.792l10.008-11.016-1.48-1.344-10.008 11.016 1.48 1.344zm9.975-10.98l.504-.505-1.414-1.414-.504.504 1.414 1.414zm.437-.444c.214-.178.394-.275.54-.323l-.632-1.898a3.685 3.685 0 00-1.188.685l1.28 1.536zm.671-.378c.125-.062.302-.11.561-.11v-2a3.22 3.22 0 00-1.455.322l.894 1.788zm.561-.11h9.648v-2h-9.648v2zm9.648 0c.132 0 .217.034.32.155l1.519-1.302a2.363 2.363 0 00-1.839-.853v2zm.429.263c.121.104.155.189.155.321h2c0-.732-.302-1.367-.853-1.84l-1.302 1.52zm.155.321c0 .25-.072.346-.176.424l1.2 1.6c.663-.498.976-1.218.976-2.024h-2zm-.309.544l-12.96 13.968 1.466 1.36 12.96-13.968-1.466-1.36zm-12.999 15.284l14.76 17.928 1.544-1.272-14.76-17.928-1.544 1.272zm14.825 18c.143.143.219.251.256.32.036.066.027.08.027.052h2c0-.725-.408-1.326-.869-1.787l-1.414 1.414zm.283.372a.67.67 0 01-.211.517l1.414 1.414a2.664 2.664 0 00.797-1.931h-2zm-.211.517c-.068.067-.18.139-.445.139v2c.694 0 1.35-.216 1.859-.725l-1.414-1.414zm-.445.139h-9.864v2h9.864v-2zm-9.864 0c-.546 0-.825-.088-.944-.156l-.992 1.736c.552.316 1.233.42 1.936.42v-2zm-.886-.12c-.206-.138-.512-.396-.927-.811l-1.414 1.414c.449.45.863.815 1.232 1.061l1.109-1.664zm-.865-.743l-11.376-13.68-1.538 1.278 11.376 13.68 1.538-1.278zm-13.145-13.041V51.2h2V38.096h-2zm0 13.104c0 .222-.069.423-.257.637l1.505 1.317a2.914 2.914 0 00.752-1.954h-2zm-.211.589c-.127.127-.294.211-.589.211v2c.761 0 1.458-.252 2.003-.797l-1.414-1.414zm-.589.211h-8.352v2h8.352v-2z" fill="#51509C"/></svg>
