<svg xmlns="http://www.w3.org/2000/svg" viewBox="0 0 121.83 122.88"><path d="M27.61 34.37l-4.07 4.6.4 1.74h10.48c-2.14 12.38-3.74 23.54-6.81 40.74-3.67 21.94-5.78 27.33-7.03 29.3-1.1 1.95-2.68 2.96-4.82 2.96-2.35 0-6.6-1.86-8.88-3.97-.82-.56-1.79-.42-2.82.26C2 111.74 0 114.42 0 116.82c-.12 3.24 4.21 6.06 8.34 6.06 3.64 0 9-2.28 14.64-7.64 7.71-7.31 13.48-17.34 18.3-39.02 3.1-13.84 4.56-22.84 6.74-35.5l13.02-1.18 2.82-5.17H49.2C52.99 10.53 55.95 7 59.59 7c2.42 0 5.24 1.86 8.48 5.52.96 1.32 2.4 1.18 3.5.28 1.85-1.1 4.13-3.92 4.28-6.48C75.96 3.5 72.6 0 66.82 0 61.58 0 53.55 3.5 46.8 10.38c-5.92 6.27-9.02 14.1-11.16 23.99h-8.03zm41.66 15.96c4.04-5.38 6.46-7.17 7.71-7.17 1.29 0 2.32 1.27 4.53 8.41l3.78 12.19c-7.31 11.18-12.66 17.41-15.91 17.41-1.08 0-2.17-.34-2.94-1.1-.76-.76-1.6-1.39-2.42-1.39-2.68 0-6 3.25-6.06 7.28-.06 4.11 2.82 7.05 6.6 7.05 6.49 0 11.98-6.37 22.58-23.26l3.1 10.45c2.66 8.98 5.78 12.81 9.68 12.81 4.82 0 11.3-4.11 18.37-15.22l-2.96-3.38c-4.25 5.12-7.07 7.52-8.74 7.52-1.86 0-3.49-2.84-5.64-9.82l-4.53-14.73c2.68-3.95 5.32-7.27 7.64-9.92 2.76-3.15 4.89-4.49 6.34-4.49 1.22 0 2.28.52 2.94 1.25.87.96 1.39 1.41 2.42 1.41 2.33 0 5.93-2.96 6.06-6.88.12-3.64-2.14-6.74-6.06-6.74-5.92 0-11.14 5.1-21.19 20.04l-2.07-6.41c-2.9-9-4.82-13.63-8.86-13.63-4.7 0-11.16 5.78-17.48 14.94l3.11 3.38z"/></svg>
