<?xml version="1.0" encoding="utf-8"?>
<svg viewBox="53.442 59.91 372.1 106.1" width="372.1" height="106.1" xmlns="http://www.w3.org/2000/svg">
  <path id="green_1_" class="st0" d="M93.8,115c-0.1-0.5-0.5-0.8-0.9-0.8c-0.4,0-8.3-0.6-8.3-0.6s-5.5-5.5-6.2-6.1 c-0.6-0.6-1.8-0.4-2.3-0.3c-0.1,0-1.2,0.4-3.1,1c-1.9-5.4-5.1-10.3-10.9-10.3h-0.5c-1.6-2.1-3.6-3-5.4-3 c-13.4,0-19.8,16.7-21.8,25.2c-5.2,1.6-8.9,2.7-9.4,2.9c-2.9,0.9-3,1-3.3,3.7c-0.3,2.1-7.9,60.9-7.9,60.9L73,198.6l32.1-6.9 C105.2,191.6,93.9,115.5,93.8,115z M69.8,109c-1.5,0.4-3.2,1-5,1.6v-1.1c0-3.3-0.4-6-1.2-8.1C66.6,101.8,68.5,105.1,69.8,109 L69.8,109z M59.8,102.1c0.8,2.1,1.3,5,1.3,9v0.6c-3.3,1-6.8,2.1-10.3,3.2C52.8,107.3,56.7,103.5,59.8,102.1L59.8,102.1z M55.9,98.3 c0.6,0,1.2,0.2,1.7,0.6c-4.3,2-8.9,7.1-10.8,17.3c-2.9,0.9-5.6,1.7-8.2,2.6C40.9,111,46.3,98.3,55.9,98.3z" transform="matrix(1, 0, 0, 1, 39.642128, -34.99028)" style="fill: rgb(160, 174, 192);"/>
  <path id="green" class="st1" d="M92.9,114.1c-0.4,0-8.3-0.6-8.3-0.6s-5.5-5.5-6.2-6.1c-0.2-0.2-0.5-0.4-0.8-0.4l-4.4,91.6l32.1-6.9 c0,0-11.3-76.2-11.3-76.7C93.7,114.4,93.3,114.2,92.9,114.1z" transform="matrix(1, 0, 0, 1, 39.642128, -34.99028)" style="fill: rgb(113, 128, 150);"/>
  <path id="s" class="st2" d="M62.2,131.8l-3.9,11.7c0,0-3.5-1.9-7.7-1.9c-6.3,0-6.6,4-6.6,4.9c0,5.4,14,7.4,14,20 c0,9.9-6.3,16.3-14.7,16.3c-10.2,0-15.3-6.3-15.3-6.3l2.7-9c0,0,5.4,4.6,9.9,4.6c3,0,4.2-2.3,4.2-4c0-7-11.4-7.3-11.4-18.9 c0-9.7,6.9-19,21-19C59.5,130.3,62.2,131.8,62.2,131.8z" transform="matrix(1, 0, 0, 1, 39.642128, -34.99028)" style="fill: rgb(255, 255, 255);"/>
  <path id="text" d="M142.6,153.9c-3.2-1.7-4.9-3.2-4.9-5.2c0-2.6,2.3-4.2,5.9-4.2c4.2,0,7.9,1.7,7.9,1.7l2.9-8.9 c0,0-2.7-2.1-10.6-2.1c-11,0-18.7,6.3-18.7,15.2c0,5,3.6,8.9,8.3,11.6c3.9,2.1,5.2,3.7,5.2,6c0,2.4-1.9,4.3-5.5,4.3 c-5.3,0-10.3-2.7-10.3-2.7l-3.1,8.9c0,0,4.6,3.1,12.4,3.1c11.3,0,19.5-5.6,19.5-15.6C151.6,160.6,147.5,156.8,142.6,153.9z M187.7,135.1c-5.6,0-10,2.7-13.3,6.7l-0.1-0.1l4.9-25.3h-12.6l-12.3,64.5h12.6l4.2-22c1.6-8.3,6-13.5,10-13.5c2.9,0,4,1.9,4,4.7 c0,1.7-0.1,3.9-0.5,5.6l-4.7,25.2h12.6l4.9-26c0.5-2.7,0.9-6,0.9-8.3C198,139.3,194.3,135.1,187.7,135.1L187.7,135.1z M226.6,135.1 c-15.2,0-25.2,13.7-25.2,29c0,9.7,6,17.6,17.3,17.6c14.9,0,24.9-13.3,24.9-29C243.7,143.6,238.4,135.1,226.6,135.1z M220.4,172 c-4.3,0-6.1-3.6-6.1-8.3c0-7.2,3.7-19,10.6-19c4.4,0,6,3.9,6,7.6C230.8,160.1,227,172,220.4,172L220.4,172z M275.9,135.1 c-8.5,0-13.3,7.5-13.3,7.5h-0.1l0.7-6.8H252c-0.5,4.6-1.6,11.6-2.6,16.7l-8.7,46.2h12.6l3.5-18.7h0.3c0,0,2.6,1.6,7.4,1.6 c14.8,0,24.5-15.2,24.5-30.5C289,142.7,285.1,135.1,275.9,135.1z M263.8,172.2c-3.3,0-5.2-1.9-5.2-1.9l2.1-11.7 c1.5-7.9,5.6-13.1,10-13.1c3.9,0,5,3.6,5,6.9C275.8,160.6,270.9,172.2,263.8,172.2L263.8,172.2z M307,117c-4,0-7.2,3.2-7.2,7.3 c0,3.7,2.4,6.3,6,6.3h0.1c4,0,7.3-2.7,7.4-7.3C313.2,119.6,310.7,117,307,117z M289.3,180.8h12.6l8.5-44.8h-12.7 M342.6,136h-8.8 l0.4-2.1c0.7-4.3,3.3-8.1,7.5-8.1c2.3,0,4,0.7,4,0.7l2.4-9.9c0,0-2.1-1.1-6.9-1.1c-4.4,0-8.9,1.3-12.3,4.2 c-4.3,3.6-6.3,8.9-7.3,14.3l-0.4,2.1h-5.9l-1.9,9.5h5.9l-6.7,35.3h12.6l6.7-35.3h8.7L342.6,136L342.6,136z M372.9,136 c0,0-7.9,19.9-11.4,30.8h-0.1c-0.2-3.5-3.1-30.8-3.1-30.8H345l7.6,41c0.1,0.9,0.1,1.5-0.3,2.1c-1.5,2.9-4,5.6-6.9,7.6 c-2.4,1.7-5,2.9-7.2,3.6l3.5,10.7c2.6-0.5,7.9-2.7,12.3-6.9c5.7-5.4,11.1-13.7,16.5-25l15.4-33.1L372.9,136L372.9,136z" transform="matrix(1, 0, 0, 1, 39.642128, -34.99028)" style="fill: rgb(113, 128, 150);"/>
</svg>