<?xml version="1.0" encoding="utf-8"?>
<svg viewBox="245.053 392.396 150 25.19" width="150" height="25.19" xmlns="http://www.w3.org/2000/svg">
  <path d="M129.1 159.073c-5.036 0-7.7 2.432-7.7 7.007v4.324c0 4.575 2.664 7.007 7.7 7.007 5.04 0 7.703-2.432 7.703-7.007v-4.324c0-4.575-2.663-7.007-7.702-7.007zm-2.894 6.872c0-1.892.869-2.683 2.895-2.683 2.027 0 2.896.811 2.896 2.683v4.594c0 1.892-.87 2.683-2.896 2.683s-2.895-.81-2.895-2.683v-4.594zm23.646-6.872c-1.911 0-4.497.656-6.678 1.68l-.271-.888a.62.62 0 0 0-.58-.444h-2.663a.621.621 0 0 0-.617.617v16.407c0 .33.27.6.617.6h3.59c.328 0 .618-.27.618-.6v-11.349c1.294-.657 3.108-1.332 4.208-1.332.81 0 1.1.31 1.1 1.1v11.601c0 .328.27.598.618.598h3.59c.328 0 .618-.27.618-.598v-12.064c-.02-3.533-1.41-5.328-4.15-5.328zm17.083-6.447a12.901 12.901 0 0 0-3.127-.386c-3.841 0-5.714 1.814-5.714 5.56v2.122h-1.988a.623.623 0 0 0-.618.618v2.722c0 .328.27.6.618.6h1.988v12.583c0 .33.27.6.599.6h3.59c.328 0 .598-.27.598-.6v-12.584h3.533a.609.609 0 0 0 .598-.56v-2.722c0-.193-.04-.328-.155-.463a.624.624 0 0 0-.443-.194h-3.533v-1.89c0-1.313.252-1.777 1.68-1.777.444 0 1.099.077 1.737.174a.67.67 0 0 0 .463-.116.695.695 0 0 0 .25-.406l.368-2.605a.617.617 0 0 0-.444-.676zm6.486.077h-3.591a.622.622 0 0 0-.617.62v23.142c0 .328.27.598.617.598h3.59c.328 0 .618-.27.618-.598v-23.143a.636.636 0 0 0-.617-.619zm17.584 6.737h-3.59a.622.622 0 0 0-.618.618v11.37c-1.293.655-3.108 1.331-4.208 1.331-.81 0-1.1-.309-1.1-1.1v-11.62a.622.622 0 0 0-.618-.618h-3.591a.622.622 0 0 0-.617.617v12.045c0 3.532 1.39 5.328 4.13 5.328 1.912 0 4.499-.657 6.68-1.68l.27.888a.619.619 0 0 0 .579.444h2.664c.328 0 .618-.27.618-.598v-16.407a.584.584 0 0 0-.6-.618zm10.057-.367c-4.807 0-7.355 2.394-7.355 6.93v4.536c0 4.691 2.374 6.872 7.49 6.872 2.084 0 4.304-.367 6.099-1.004a.605.605 0 0 0 .387-.695l-.541-2.567a.667.667 0 0 0-.27-.405.534.534 0 0 0-.483-.058c-1.641.463-3.224.694-4.806.694-2.626 0-3.07-.849-3.07-2.625v-.618h8.919c.327 0 .617-.269.617-.598v-3.3c-.02-4.884-2.22-7.162-6.987-7.162zm-2.548 7.104v-.579c0-1.699.83-2.47 2.586-2.47 1.95 0 2.336.945 2.336 2.47v.58h-4.922zm22.507-7.104c-1.911 0-4.498.656-6.68 1.68l-.27-.888a.619.619 0 0 0-.58-.444h-2.662a.621.621 0 0 0-.618.617v16.407c0 .33.27.6.618.6h3.59c.328 0 .617-.27.617-.6v-11.349c1.294-.657 3.109-1.332 4.208-1.332.812 0 1.1.31 1.1 1.1v11.601c0 .328.27.598.619.598h3.589c.329 0 .619-.27.619-.598v-12.064c-.04-3.533-1.43-5.328-4.15-5.328zm17.95 14.265a.575.575 0 0 0-.25-.406.607.607 0 0 0-.483-.096 14.438 14.438 0 0 1-3.127.367c-2.277 0-2.934-.579-2.934-2.587v-4.748c0-2.007.657-2.587 2.934-2.587.618 0 1.969.097 3.127.367.174.04.348 0 .483-.096a.618.618 0 0 0 .25-.406l.425-2.837a.616.616 0 0 0-.424-.676c-1.39-.405-2.992-.56-3.957-.56-5.424 0-7.644 1.99-7.644 6.833v4.672c0 4.845 2.22 6.833 7.644 6.833 1.312 0 2.837-.212 3.977-.56a.618.618 0 0 0 .424-.675l-.444-2.838zm9.092-14.265c-4.806 0-7.354 2.394-7.354 6.93v4.536c0 4.691 2.374 6.872 7.49 6.872 2.084 0 4.304-.367 6.099-1.004a.603.603 0 0 0 .386-.695l-.541-2.567a.662.662 0 0 0-.27-.405.535.535 0 0 0-.482-.058c-1.641.463-3.224.694-4.806.694-2.626 0-3.07-.849-3.07-2.625v-.618h8.918c.328 0 .618-.269.618-.598v-3.3c-.02-4.884-2.22-7.162-6.988-7.162zm-2.548 7.104v-.579c0-1.699.83-2.47 2.587-2.47 1.949 0 2.336.945 2.336 2.47v.58h-4.923zm-131.74-8.822c1.448 0 3.437.194 5.328.521a.668.668 0 0 0 .463-.115.693.693 0 0 0 .25-.406l.406-3.165a.613.613 0 0 0-.463-.676 26.681 26.681 0 0 0-6.118-.714c-5.695 0-8.59 2.374-8.59 7.045v10.54c0 4.671 2.895 7.045 8.59 7.045 2.046 0 4.207-.25 6.118-.714a.613.613 0 0 0 .463-.676l-.405-3.166a.572.572 0 0 0-.251-.405.674.674 0 0 0-.463-.116c-1.891.33-3.88.521-5.327.521-2.82 0-3.784-.83-3.784-3.28v-8.938c0-2.47.965-3.3 3.784-3.3z" class="st0" transform="matrix(1, 0, 0, 1, 140.001572, 240.156281)" style="fill: rgb(113, 128, 150);"/>
</svg>