<?xml version="1.0" encoding="utf-8"?>
<svg viewBox="201.707 319.522 150 39.731" width="150" height="39.731" xmlns="http://www.w3.org/2000/svg">
  <path fill="#e2e8f0" d="M 312.226 322.368 C 312.226 320.797 313.533 319.522 315.144 319.522 L 348.789 319.522 C 350.401 319.522 351.707 320.797 351.707 322.368 L 351.707 356.408 C 351.707 357.978 350.401 359.253 348.789 359.253 L 315.144 359.253 C 313.534 359.253 312.226 357.979 312.226 356.408 L 312.226 322.368 Z"/>
  <path d="M 201.707 352.803 L 218.183 352.803 L 218.183 347.393 L 207.671 347.393 L 207.671 326.756 L 201.707 326.756 L 201.707 352.803 Z M 226.527 352.803 L 226.527 334.862 L 220.562 334.862 L 220.562 352.802 L 226.526 352.802 Z M 223.544 332.413 C 225.624 332.413 226.918 331.035 226.918 329.313 C 226.88 327.552 225.623 326.213 223.584 326.213 C 221.544 326.213 220.21 327.553 220.21 329.313 C 220.21 331.035 221.504 332.413 223.506 332.413 L 223.544 332.413 Z M 229.294 352.803 L 235.257 352.803 L 235.257 342.783 C 235.257 342.247 235.297 341.711 235.453 341.329 C 235.884 340.258 236.865 339.148 238.513 339.148 C 240.671 339.148 241.535 340.794 241.535 343.204 L 241.535 352.803 L 247.497 352.803 L 247.497 342.514 C 247.497 337.004 244.555 334.44 240.631 334.44 C 237.414 334.44 236.001 336.238 235.217 337.463 L 235.257 337.463 L 235.257 334.861 L 229.294 334.861 C 229.372 336.544 229.294 352.801 229.294 352.801 Z M 255.91 326.756 L 249.946 326.756 L 249.946 352.803 L 255.91 352.803 L 255.91 346.986 L 257.4 345.109 L 262.07 352.803 L 269.405 352.803 L 261.559 341.666 L 268.423 334.09 L 261.246 334.09 C 261.246 334.09 256.341 340.868 255.91 341.672 L 255.91 326.756 Z" style="fill: rgb(113, 128, 150);"/>
  <path d="M 285.351 345.319 C 285.431 344.859 285.547 343.975 285.547 342.975 C 285.547 338.337 283.193 333.629 276.995 333.629 C 270.365 333.629 267.305 338.873 267.305 343.629 C 267.305 349.511 271.032 353.184 277.543 353.184 C 280.133 353.184 282.525 352.803 284.488 351.998 L 283.703 348.06 C 282.094 348.594 280.446 348.86 278.407 348.86 C 275.622 348.86 273.19 347.717 272.993 345.28 L 285.351 345.318 Z M 272.954 341.285 C 273.111 339.753 274.132 337.495 276.681 337.495 C 279.388 337.495 280.017 339.907 280.017 341.285 L 272.955 341.285 Z M 300.266 326.755 L 300.266 335.772 L 300.187 335.772 C 299.324 334.511 297.52 333.668 295.128 333.668 C 290.538 333.668 286.498 337.342 286.536 343.617 C 286.536 349.435 290.184 353.223 294.734 353.223 C 297.207 353.223 299.56 352.151 300.737 350.085 L 300.854 350.085 L 301.091 352.803 L 306.387 352.803 C 306.282 350.942 306.229 349.079 306.229 347.216 L 306.229 326.756 L 300.266 326.756 Z M 300.266 344.498 C 300.266 344.957 300.227 345.417 300.148 345.798 C 299.796 347.445 298.384 348.592 296.658 348.592 C 294.186 348.592 292.578 346.602 292.578 343.465 C 292.578 340.518 293.952 338.145 296.698 338.145 C 298.541 338.145 299.834 339.408 300.188 340.975 C 300.266 341.321 300.266 341.705 300.266 342.048 L 300.266 344.498 Z M 324.194 352.781 L 324.194 334.841 L 318.231 334.841 L 318.231 352.781 L 324.194 352.781 Z M 321.214 332.391 C 323.294 332.391 324.587 331.014 324.587 329.291 C 324.548 327.531 323.293 326.191 321.253 326.191 C 319.213 326.191 317.879 327.531 317.879 329.291 C 317.879 331.014 319.173 332.391 321.174 332.391 L 321.214 332.391 Z M 327.494 352.781 L 333.457 352.781 L 333.457 342.763 C 333.457 342.228 333.497 341.691 333.654 341.308 C 334.085 340.236 335.066 339.127 336.714 339.127 C 338.871 339.127 339.734 340.772 339.734 343.184 L 339.734 352.781 L 345.697 352.781 L 345.697 342.494 C 345.697 336.984 342.757 334.42 338.833 334.42 C 335.616 334.42 334.203 336.217 333.418 337.442 L 333.458 337.442 L 333.458 334.841 L 327.495 334.841 C 327.573 336.524 327.495 352.781 327.495 352.781 Z" style="fill: rgb(113, 128, 150);"/>
</svg>