<svg xmlns="http://www.w3.org/2000/svg" viewBox="0 0 462.61 259.63"><defs><style>.cls-2{fill:#f3faff;opacity:.7;mix-blend-mode:screen}</style></defs><g style="isolation:isolate"><g id="Layer_2" data-name="Layer 2"><g id="Layer_1-2" data-name="Layer 1"><path d="M0 26c4.64-2.11 9.25-4.39 12.47-8a18.47 18.47 0 0 0 4.2-7.52c.93-3.37.82-6.66.71-10.15v-.34h-.59v.36a32.56 32.56 0 0 1-.68 10A18.11 18.11 0 0 1 12 17.62c-3 3.45-7.5 5.68-12 7.69z" class="cls-2"/><path d="M0 32.39c1.88-.92 3.87-1.76 5.94-2.63 5.1-2.12 10.37-4.31 14-8.07a18.62 18.62 0 0 0 4.35-6.9 31.28 31.28 0 0 0 1.31-9.41c.06-1.76.13-3.56.37-5.38h-.6c-.23 1.82-.3 3.6-.36 5.36a30.54 30.54 0 0 1-1.27 9.23 18.09 18.09 0 0 1-4.22 6.69C16 25 10.76 27.12 5.72 29.22 3.8 30 1.86 30.84 0 31.74z" class="cls-2"/><path d="M0 39.47l1.89-1.07 3-1.72a67.53 67.53 0 0 1 8.76-3.9c5-2 10.11-4 13.77-7.41A18.83 18.83 0 0 0 32 19.08a29.14 29.14 0 0 0 1.91-8.66c.39-3.36.8-6.83 2.63-10.42h-.64a29.83 29.83 0 0 0-2.57 10.35 28.73 28.73 0 0 1-1.87 8.5A18.41 18.41 0 0 1 27 25c-3.58 3.36-8.67 5.35-13.58 7.28a69.77 69.77 0 0 0-8.84 3.94l-3 1.72L0 38.8z" class="cls-2"/><path d="M0 46.13q6.36-3.37 12.84-6.78a70.6 70.6 0 0 1 8.56-3.56c4.84-1.77 9.84-3.6 13.52-6.73a19.49 19.49 0 0 0 4.66-5.68 27.93 27.93 0 0 0 2.54-7.92c.75-3.46 1.51-7 4.16-10.75A26.06 26.06 0 0 1 50.67 0h-.91a26 26 0 0 0-4 4.37c-2.72 3.81-3.5 7.45-4.25 11a28 28 0 0 1-2.49 7.77 18.87 18.87 0 0 1-4.52 5.5c-3.6 3.06-8.55 4.88-13.34 6.63a70.58 70.58 0 0 0-8.63 3.59q-6.3 3.3-12.53 6.6z" class="cls-2"/><path d="M0 52.16l3.25-1.6 4-2C12.4 46.06 16.7 44 20.77 42a73.64 73.64 0 0 1 8.36-3.2c4.71-1.6 9.57-3.26 13.27-6.07a20.85 20.85 0 0 0 4.81-5.05 28.16 28.16 0 0 0 3.2-7.2A27.41 27.41 0 0 1 55.19 11 30.54 30.54 0 0 1 74.44.5c.82-.09 1.79-.19 2.73-.25a90.61 90.61 0 0 1 17.54.84c7.78.91 15.21 1.78 25.75-1.09h-2.41c-9.27 2.14-16.12 1.35-23.27.5-1.48-.17-3-.35-4.51-.5H73.78a30.76 30.76 0 0 0-19.05 10.59 28 28 0 0 0-4.88 9.71 27.62 27.62 0 0 1-3.13 7.06A20.09 20.09 0 0 1 42 32.27c-3.62 2.76-8.44 4.4-13.1 6a76.23 76.23 0 0 0-8.42 3.24c-4.08 1.95-8.38 4-13.54 6.59L3 50l-3 1.5z" class="cls-2"/><path d="M0 57.82c4.23-2.16 8.56-4.12 12.81-6l2.62-1.19c4.05-1.85 8.39-3.78 13.27-5.9a79.86 79.86 0 0 1 8.11-2.84c4.59-1.43 9.33-2.91 13.06-5.42a23.33 23.33 0 0 0 5-4.43 30 30 0 0 0 3.89-6.48 30.13 30.13 0 0 1 5.36-8.29A34.4 34.4 0 0 1 83 7.42c.81-.12 1.74-.26 2.62-.36a135.13 135.13 0 0 1 16.87-.69c8.87 0 17.26.1 30.83-4 2.55-.78 5-1.58 7.4-2.36h-1.9c-1.85.6-3.73 1.2-5.67 1.79-13.48 4.09-21.82 4.05-30.66 4a132.58 132.58 0 0 0-16.94.69c-.89.1-1.82.24-2.64.36a34.93 34.93 0 0 0-19.25 10 30.48 30.48 0 0 0-5.46 8.43 29.75 29.75 0 0 1-3.82 6.36 22.67 22.67 0 0 1-4.84 4.33c-3.66 2.46-8.37 3.92-12.92 5.34a83.18 83.18 0 0 0-8.16 2.86c-4.88 2.13-9.23 4.06-13.28 5.9l-2.62 1.19C8.4 53.12 4.15 55.05 0 57.16zM462.61 5.75A47.4 47.4 0 0 1 453 0h-1a47.25 47.25 0 0 0 10.58 6.4zM202.7 5a55.41 55.41 0 0 0 22.8 3.31c10.26-.64 17-4.31 23.89-8.33h-1.17c-6.54 3.78-13.06 7.14-22.75 7.75a54.84 54.84 0 0 1-22.57-3.27c-3.07-1.12-6.16-2.46-9.15-3.73L192 0h-1.5l3 1.27c3.02 1.29 6.11 2.62 9.2 3.73z" class="cls-2"/><path d="M0 64c6.77-4.43 14.45-7.63 21.91-10.73l1.71-.71c3.85-1.6 8.11-3.31 13-5.21 2.45-1 5.1-1.69 7.9-2.49 4.46-1.26 9.06-2.56 12.82-4.74a26.6 26.6 0 0 0 5.11-3.82 34 34 0 0 0 4.67-5.79 35.88 35.88 0 0 1 5.86-7 40.68 40.68 0 0 1 18.58-9.14l.34-.06c.74-.15 1.46-.29 2.17-.41 6.53-1.1 11.79-1.72 16.88-2.31a238.44 238.44 0 0 0 28.79-4.79l.85-.2c14.41-3.28 25.74-5.87 40.48-2 5 1.34 10.06 3.65 15.36 6.11 3.28 1.51 6.68 3.08 10.08 4.4a52.55 52.55 0 0 0 22 3.55c11-.59 17.3-4.95 24-9.56A66.06 66.06 0 0 1 266 1.32a27.76 27.76 0 0 1 3.66-1.16l.73-.16h-2.33c-.75.23-1.5.48-2.25.78a66.32 66.32 0 0 0-13.65 7.83c-6.61 4.57-12.85 8.89-23.68 9.46a51.92 51.92 0 0 1-21.76-3.51c-3.38-1.31-6.77-2.87-10-4.39-5.37-2.46-10.41-4.79-15.5-6.17-14.89-3.9-26.3-1.3-40.76 2l-.85.2a239.12 239.12 0 0 1-28.72 4.8c-5.09.59-10.36 1.21-16.91 2.31-.71.12-1.44.26-2.18.41l-.34.07A41.19 41.19 0 0 0 72.6 23a37 37 0 0 0-6 7.13 33.36 33.36 0 0 1-4.59 5.7 26.25 26.25 0 0 1-5 3.73c-3.69 2.15-8.26 3.44-12.68 4.69-2.69.76-5.48 1.55-7.95 2.51-4.91 1.9-9.17 3.6-13 5.21l-1.7.71C14.32 55.77 6.74 58.93 0 63.28zM462.61 11a41.26 41.26 0 0 1-3.22-1 45.4 45.4 0 0 1-16.55-10H442a45.81 45.81 0 0 0 17.2 10.53c1.12.39 2.26.73 3.41 1z" class="cls-2"/><path d="M0 72.91a55.6 55.6 0 0 1 6.73-6.22C13.79 61.26 22.44 58 30.81 54.9l1-.37c3.71-1.4 7.88-2.87 12.75-4.52 2.41-.82 5-1.47 7.71-2.15 4.31-1.09 8.77-2.21 12.55-4.07a33.57 33.57 0 0 0 5.25-3.19 41.58 41.58 0 0 0 5.59-5.15 50.26 50.26 0 0 1 6.23-5.72 52.2 52.2 0 0 1 18.25-8.47l.81-.2 1.59-.38c4.71-1.09 8.69-2.09 12.54-3.05a278.45 278.45 0 0 1 31.06-6.39c14-2.08 25.61-2.35 40 2.78a117.74 117.74 0 0 1 12.91 5.88c3.65 1.84 7.43 3.74 11.25 5.3a49.85 49.85 0 0 0 21.21 3.8c11.19-.49 16.89-5.18 22.92-10.15 3.57-2.93 7.25-6 12.26-8.25a23.3 23.3 0 0 1 3.45-1.27 63.36 63.36 0 0 1 15-1.77c4.56-.15 8.87-.29 12.4-1.64 3-1.14 5.7-2.32 8.61-3.57C308 1.57 309.79.79 311.71 0h-1.53L306 1.8c-2.9 1.25-5.64 2.42-8.59 3.56-3.44 1.32-7.7 1.46-12.21 1.61s-9.87.32-15.17 1.79a24.76 24.76 0 0 0-3.53 1.29c-5.08 2.32-8.8 5.38-12.39 8.34-6 4.9-11.59 9.53-22.58 10a49.15 49.15 0 0 1-20.94-3.75c-3.79-1.55-7.56-3.44-11.21-5.28a118.06 118.06 0 0 0-13-5.9c-14.52-5.17-26.19-4.91-40.3-2.81a278.15 278.15 0 0 0-31.12 6.4c-3.85 1-7.83 2-12.53 3.05l-1.6.38-.81.2a52.77 52.77 0 0 0-18.46 8.57 50 50 0 0 0-6.3 5.79 42.21 42.21 0 0 1-5.51 5.07 33.47 33.47 0 0 1-5.17 3.14 64.25 64.25 0 0 1-12.44 4c-2.61.66-5.32 1.34-7.75 2.16-4.87 1.65-9 3.13-12.77 4.53l-1 .37c-8.41 3.14-17.1 6.39-24.22 11.88A55.75 55.75 0 0 0 0 72.05zM462.61 15a67.43 67.43 0 0 1-9.12-1.9A46.21 46.21 0 0 1 433 0h-.8a46.91 46.91 0 0 0 21.08 13.64 67.21 67.21 0 0 0 9.29 1.93zM386.6 1.42A26.5 26.5 0 0 0 390.51 0H389a24 24 0 0 1-2.56.85c-6.94 1.89-12.21.81-17.39-.85h-1.87c5.82 2 11.55 3.56 19.42 1.42z" class="cls-2"/><path d="M0 86a33.57 33.57 0 0 0 2.47-2.54c1.3-1.48 2.57-3.21 3.9-5 .78-1.07 1.58-2.17 2.4-3.24a44.26 44.26 0 0 1 6.94-7.32c6.78-5.58 15.46-8.45 23.85-11.23l.44-.17c3.59-1.19 7.67-2.44 12.49-3.83 2.39-.68 4.89-1.23 7.54-1.82a78.78 78.78 0 0 0 12.27-3.38 44.86 44.86 0 0 0 5.4-2.58 60.74 60.74 0 0 0 6.84-4.58c1.89-1.4 3.84-2.85 6.26-4.32a78.62 78.62 0 0 1 17.92-7.81l1.18-.36c.38-.11.74-.23 1.11-.33 5-1.48 9.12-3.13 13.14-4.73 8.14-3.22 15.83-6.27 28.41-7.08 13.66-.88 24.87 1.36 38.71 7.75 3.27 1.52 6.55 3.34 10 5.27 4.15 2.31 8.45 4.69 12.84 6.59a46.92 46.92 0 0 0 20.38 4c11.35-.39 16.42-5.4 21.78-10.7 3.14-3.11 6.39-6.31 11.07-8.76a21.24 21.24 0 0 1 3.26-1.36 55.19 55.19 0 0 1 13.24-2c4.87-.33 9.47-.65 13.11-2.61 2.71-1.46 5.19-3 7.81-4.6A107.29 107.29 0 0 1 322.38 0h-1.55a111.74 111.74 0 0 0-16.36 8.78c-2.61 1.61-5.08 3.13-7.78 4.59-3.53 1.9-8.07 2.2-12.87 2.53a56.18 56.18 0 0 0-13.38 2 21 21 0 0 0-3.35 1.4c-4.76 2.49-8 5.73-11.21 8.86-5.28 5.22-10.27 10.16-21.39 10.54a46.33 46.33 0 0 1-20.12-4c-4.37-1.89-8.66-4.26-12.8-6.56-3.48-1.93-6.77-3.76-10.07-5.29-13.93-6.43-25.22-8.69-39-7.81-12.67.82-20.4 3.88-28.58 7.13-4 1.59-8.17 3.23-13.1 4.7l-1.11.34-1.18.36a79 79 0 0 0-18.06 7.87c-2.44 1.49-4.4 2.94-6.3 4.35a60.59 60.59 0 0 1-6.78 4.54 46.11 46.11 0 0 1-5.33 2.55 79.11 79.11 0 0 1-12.16 3.4c-2.67.59-5.18 1.14-7.58 1.83-4.82 1.39-8.92 2.64-12.51 3.83l-.44.15c-8.44 2.79-17.17 5.68-24 11.32a44.72 44.72 0 0 0-7 7.43c-.89 1.07-1.7 2.16-2.47 3.24-1.33 1.82-2.59 3.54-3.87 5-.69.8-1.37 1.49-2 2.12zM462.61 18.19l-3.69-.36a74.06 74.06 0 0 1-11.33-1.66c-7.72-2-15.15-6.49-22.09-13.46-.68-.68-1.34-1.37-2-2.06l-.61-.65h-.82l1 1.06c.65.69 1.31 1.38 2 2.07 7 7 14.54 11.62 22.37 13.61a74.18 74.18 0 0 0 11.42 1.67l3.74.37z" class="cls-2"/><path d="M0 99.9l1.44-1.27A67.35 67.35 0 0 0 8.34 92a51.53 51.53 0 0 0 4.83-6.62c.75-1.19 1.47-2.46 2.24-3.8 1-1.66 1.94-3.37 3-5A35.43 35.43 0 0 1 24.69 69c6.46-5.71 15.12-8.18 23.49-10.57 3.6-1 7.61-2 12.23-3.13 2.39-.57 4.87-1 7.5-1.52a108.47 108.47 0 0 0 11.85-2.66c1.79-.56 3.55-1.18 5.54-2a100.41 100.41 0 0 0 9.09-4.29c1.67-.86 3.39-1.75 5.29-2.66a187.35 187.35 0 0 1 17.6-7.14l1.7-.63.48-.18A90.75 90.75 0 0 0 132 28.18c7.73-4.3 15-8.37 27-8.06 13.57.33 24.37 5.12 37.4 12.73 2.12 1.24 4.23 2.56 6.47 4A134.61 134.61 0 0 0 218 45.37a43.94 43.94 0 0 0 19.56 4.27C249 49.36 253.42 44 258.11 38.4c2.72-3.28 5.54-6.67 9.91-9.29a18.37 18.37 0 0 1 3.08-1.45 49 49 0 0 1 11.71-2.18c5.08-.52 9.89-1 13.55-3.62 2.65-1.87 5-3.86 7.54-6 5.18-4.33 10.54-8.81 18.46-12.2C330.75.11 339.91-.49 351.2 1.8a47.67 47.67 0 0 1 10.32 3.73c5.91 2.69 11.5 5.23 19.66 3.07a26.23 26.23 0 0 0 7.41-3.43l1.5-1A43.07 43.07 0 0 1 397.61 0h-1.5a53.82 53.82 0 0 0-6.34 3.71l-1.49 1A25.81 25.81 0 0 1 381 8c-8 2.11-13.45-.39-19.27-3a47.49 47.49 0 0 0-10.44-3.77A68.53 68.53 0 0 0 342.5 0h-7.3a40.65 40.65 0 0 0-13.07 3.16c-8 3.42-13.39 7.93-18.61 12.29-2.5 2.09-4.87 4.07-7.5 5.93-3.54 2.52-8.27 3-13.27 3.52a48.92 48.92 0 0 0-11.84 2.21 18.53 18.53 0 0 0-3.19 1.5c-4.46 2.66-7.31 6.09-10.07 9.41-4.59 5.53-8.94 10.76-20.15 11a43.41 43.41 0 0 1-19.31-4.21 134.19 134.19 0 0 1-15.05-8.53c-2.25-1.4-4.37-2.72-6.5-4-13.11-7.66-24-12.47-37.67-12.81-12.1-.31-19.47 3.8-27.27 8.14a89.58 89.58 0 0 1-12.45 6.07l-.47.18-1.7.63a188.43 188.43 0 0 0-17.65 7.16c-1.91.92-3.64 1.81-5.31 2.67-3 1.52-5.77 3-9 4.26-2 .79-3.71 1.41-5.49 2a106.34 106.34 0 0 1-11.83 2.66c-2.63.49-5.12 1-7.52 1.53-4.64 1.08-8.65 2.11-12.26 3.14-8.44 2.4-17.16 4.89-23.72 10.69a35.76 35.76 0 0 0-6.37 7.61c-1.08 1.65-2.07 3.37-3 5-.77 1.33-1.5 2.59-2.24 3.78a52.1 52.1 0 0 1-4.79 6.59 69.64 69.64 0 0 1-6.85 6.62l-1 .92zM462.61 21.25c-.91-.19-1.87-.34-2.88-.46-2.44-.29-5-.4-7.39-.5a67 67 0 0 1-10.65-1c-9.06-1.88-16.56-7.38-22.09-12L418 5.94A40.73 40.73 0 0 0 409.51 0H408c.29.12.59.23.89.37a38.44 38.44 0 0 1 8.65 6c.54.46 1.09.92 1.65 1.37 5.57 4.63 13.15 10.18 22.34 12.08a66.21 66.21 0 0 0 10.75 1c2.42.1 4.92.2 7.34.49 1 .12 2 .29 2.95.48z" class="cls-2"/><path d="M462.61 25.5a17.19 17.19 0 0 0-4.15-1.72 28.71 28.71 0 0 0-5.14-.85c-2.48-.2-5-.17-7.5-.14a60.1 60.1 0 0 1-10-.42c-7.9-1.26-14.68-5.48-22.09-10.46l-.55-.37a51.22 51.22 0 0 0-10.57-5.93c-7.66-2.84-12.5.71-17.61 4.47-.81.6-1.63 1.2-2.46 1.77a21.29 21.29 0 0 1-6.9 3.36c-7.55 1.95-12.62-1-18-4.08a42.11 42.11 0 0 0-10.34-4.75c-11.08-3-20-2.47-28 1.57-7.11 3.57-12 8.89-16.64 14a103.57 103.57 0 0 1-7.25 7.43c-3.5 3.15-8.34 3.82-13.47 4.52a43.1 43.1 0 0 0-10.52 2.36 16.67 16.67 0 0 0-3 1.61c-4.17 2.85-6.61 6.49-9 10-3.91 5.84-7.6 11.35-18.89 11.49A40.41 40.41 0 0 1 222 54.93c-6.57-3.19-12.66-7.63-18.54-11.92l-1.68-1.23c-11.42-8.29-22.2-16.11-36.37-17.81-11.6-1.4-18.64 3.77-26.09 9.23a67.25 67.25 0 0 1-11.66 7.36c-.67.31-1.35.62-2 .91-5.39 2.28-11.42 4.41-17.25 6.47-5.32 1.89-10.17 3.56-15.61 5-2.05.53-3.9 1-5.66 1.35-3.69.8-7.56 1.38-11.3 1.94-2.63.4-5.13.78-7.57 1.22-4.82.87-8.63 1.65-12 2.46-7.44 1.75-16.69 3.93-23 9.91a30.1 30.1 0 0 0-5.71 7.79c-1.26 2.37-2.32 4.88-3.34 7.3q-.45 1.07-.9 2.1a67.12 67.12 0 0 1-3.87 7.91 45.44 45.44 0 0 1-6 7.91A49.88 49.88 0 0 1 0 113.19v.66a50.49 50.49 0 0 0 13.86-10.65 45.8 45.8 0 0 0 6.09-8 68.14 68.14 0 0 0 3.9-8l.9-2.1c1-2.41 2.07-4.91 3.31-7.26a29.54 29.54 0 0 1 5.61-7.64c6.16-5.87 15.33-8 22.69-9.76 3.36-.81 7.17-1.58 12-2.45 2.44-.44 4.93-.82 7.56-1.22 3.75-.56 7.62-1.14 11.34-1.94 1.76-.38 3.62-.83 5.68-1.36 5.46-1.42 10.32-3.1 15.66-5 5.84-2.07 11.88-4.2 17.28-6.49.7-.3 1.39-.6 2.07-.92a68 68 0 0 0 11.76-7.42c7.29-5.36 14.29-10.45 25.64-9.09 14 1.68 24.74 9.46 36.09 17.7l1.68 1.23c5.91 4.31 12 8.77 18.64 12A40.93 40.93 0 0 0 240.51 60c11.61-.15 15.38-5.78 19.37-11.75 2.33-3.47 4.73-7.06 8.81-9.84a16.12 16.12 0 0 1 2.9-1.56A42.56 42.56 0 0 1 282 34.5c5.22-.72 10.15-1.39 13.79-4.67 2.59-2.33 5-4.94 7.28-7.46 4.65-5.1 9.46-10.37 16.47-13.89C327.42 4.51 336.2 4 347.13 7a41.47 41.47 0 0 1 10.2 4.69c5.47 3.16 10.64 6.15 18.43 4.13a21.61 21.61 0 0 0 7.08-3.43c.84-.58 1.66-1.19 2.47-1.78 5-3.67 9.7-7.13 17.06-4.4A50.41 50.41 0 0 1 412.82 12l.55.37c7.47 5 14.31 9.27 22.33 10.55a60.32 60.32 0 0 0 10.13.43c2.46 0 5-.06 7.45.13a27.62 27.62 0 0 1 5 .84 16.58 16.58 0 0 1 4.3 1.85z" class="cls-2"/><path d="M462.61 33.74c-2.76-3.82-6-6.89-10.71-8-4.1-1-8.38-.68-12.52-.38a53.73 53.73 0 0 1-9.49.14c-6.93-.73-13.23-4.16-19.33-7.47-4.65-2.53-9.46-5.14-14.58-6.6-7.57-2.17-11.78 1.41-16.24 5.19-2.8 2.38-5.7 4.83-9.54 5.79-7.18 1.8-11.84-1.54-16.78-5.07-3.05-2.18-6.19-4.43-10.16-5.77-10.91-3.7-19.2-3.32-26.89 1.21-6.23 3.67-10.51 9.7-14.64 15.53a100.52 100.52 0 0 1-7 9.13c-3.43 3.81-8.55 4.7-13.5 5.56-4.31.75-8.78 1.53-12.21 4.2-3.9 3-5.92 6.89-7.88 10.61-3.35 6.37-6.25 11.88-17.6 11.92h-.12c-13.9 0-26.23-9.33-36.47-18.48l-2.3-2.06c-9.81-8.81-19.95-17.92-32.75-20.75-11.16-2.47-17.86 3.77-24.95 10.38-3.37 3.13-6.84 6.36-10.84 8.59C122.87 54.76 103.18 57 85.8 59c-7.68.87-15 1.69-21.36 2.88-8.93 1.62-16.76 3.46-22.22 9.12-4.61 4.75-6.42 11.31-8.22 17.66a82 82 0 0 1-3 9.53c-6.66 16.14-18 20.58-31 21.92v.6c13.2-1.34 24.74-5.83 31.54-22.3a86.29 86.29 0 0 0 3.07-9.59c1.73-6.28 3.53-12.77 8-17.43 5.33-5.52 13.07-7.33 21.9-9 6.39-1.19 13.64-2 21.32-2.88 17.43-2 37.18-4.21 50.51-11.64 4.06-2.27 7.56-5.53 11-8.68 7-6.5 13.57-12.64 24.42-10.24 12.65 2.8 22.73 11.86 32.48 20.62l2.3 2.06c10.33 9.22 22.77 18.63 36.87 18.63h.12c11.71 0 14.82-6 18.12-12.24 1.93-3.67 3.92-7.45 7.72-10.41 3.32-2.59 7.71-3.35 11.95-4.09 5.05-.88 10.27-1.79 13.83-5.75a100.91 100.91 0 0 0 7.07-9.18c4.1-5.78 8.34-11.76 14.45-15.36 7.54-4.44 15.68-4.8 26.41-1.17a38.15 38.15 0 0 1 10 5.7c5.05 3.61 9.82 7 17.26 5.16 4-1 6.93-3.49 9.78-5.91 4.33-3.68 8.43-7.15 15.7-5.08 5.06 1.45 9.84 4 14.46 6.56 6.15 3.34 12.5 6.79 19.54 7.53a55.05 55.05 0 0 0 9.61-.13c4.09-.3 8.32-.6 12.34.36 4.81 1.16 8 4.43 10.84 8.47z" class="cls-2"/><path d="M462.61 42.51a26.93 26.93 0 0 0-3.36-3.2 21.56 21.56 0 0 0-7.78-4.06 52.24 52.24 0 0 0-12.36-1.42 63 63 0 0 1-9.15-.76c-6.35-1.16-11.91-4.58-17.78-8.2-4.73-2.91-9.62-5.92-15-7.64-7.76-2.5-12.42 1.07-17.34 4.86-2.72 2.09-5.54 4.25-9 5.35a19.69 19.69 0 0 1-3.84.86c-4.46.5-7.56-1.26-11.16-3.28-.79-.45-1.6-.91-2.46-1.35a36.46 36.46 0 0 0-8-3.27c-6.38-1.69-11.52-2.13-16.03-1.4a25 25 0 0 0-10.45 4.38 34.87 34.87 0 0 0-7.5 7.62c-1.54 2-3 4.27-4.47 6.43a71 71 0 0 1-8.82 11.51c-3.82 3.79-9.17 4.21-14.35 4.61-4.06.32-7.9.62-11 2.44-3.76 2.21-5.88 5.31-7.94 8.3-3.54 5.16-6.89 10-18.08 10.67-1.12.06-2.28.09-3.43.06-13.06-.24-24.51-8-34-15.53-1.23-1-2.46-2-3.7-3l-1.93-1.57c-8.64-7-18.43-14.94-30.6-17.41C162.44 35.32 155.9 41 149 47.09a58.83 58.83 0 0 1-10.44 7.83c-13.06 6.94-32.17 9.08-49 11-7 .79-13.69 1.53-19.65 2.56-7 1.23-15.61 2.75-21.37 8.19-.32.31-.64.63-.94 1-3.88 4.2-5.72 9.72-7.5 15a79.24 79.24 0 0 1-3.18 8.43c-3.23 6.88-7.55 11.78-13.19 15-6.94 4-15 5-23.67 5.45v.58c8.51-.48 17-1.52 24-5.52 5.75-3.27 10.15-8.26 13.43-15.25a79.24 79.24 0 0 0 3.21-8.5C42.36 87.54 44.18 82.09 48 78c.29-.31.6-.62.92-.92 5.62-5.33 14.18-6.83 21.06-8 5.94-1 12.58-1.77 19.62-2.56 16.91-1.88 36.07-4 49.23-11a57.91 57.91 0 0 0 10.55-7.91c6.82-6 13.26-11.58 23.64-9.47 12 2.44 21.75 10.33 30.34 17.29l1.93 1.56c1.24 1 2.47 2 3.7 3 9.56 7.6 21.11 15.41 34.35 15.66 1.17 0 2.34 0 3.47-.06 11.48-.65 15.07-5.88 18.54-10.93 2-2.94 4.1-6 7.74-8.12 3-1.76 6.75-2.05 10.75-2.37 5.28-.41 10.74-.83 14.71-4.77 3.43-3.37 6.21-7.55 8.9-11.6 1.43-2.15 2.91-4.38 4.45-6.4a34 34 0 0 1 7.37-7.44 24.41 24.41 0 0 1 10.21-4.28c4.42-.73 9.44-.29 15.81 1.38a36.27 36.27 0 0 1 7.92 3.22c.85.44 1.66.9 2.44 1.34 3.69 2.07 6.87 3.87 11.52 3.36a21 21 0 0 0 3.95-.89c3.52-1.13 6.37-3.32 9.13-5.45 4.81-3.69 9.34-7.17 16.81-4.77 5.28 1.7 10.14 4.7 14.84 7.59 5.66 3.49 11.52 7.1 18 8.28a63.28 63.28 0 0 0 9.24.76 52.59 52.59 0 0 1 12.23 1.4 21.31 21.31 0 0 1 7.57 4 27.22 27.22 0 0 1 3.72 3.63z" class="cls-2"/><path d="M462.61 51.18a30.27 30.27 0 0 0-3.61-2.63 34.07 34.07 0 0 0-8-3.77 76 76 0 0 0-11.93-2.42 80.09 80.09 0 0 1-9.07-1.68c-5.8-1.57-10.88-5.1-16.26-8.85-4.74-3.33-9.74-6.77-15.29-8.78-8.06-2.89-13.26.77-18.75 4.66a40 40 0 0 1-8.08 4.79 27.3 27.3 0 0 1-3.62 1.22c-4.06 1-6.64 0-9.92-1.29-.77-.3-1.59-.62-2.46-.93a52.87 52.87 0 0 0-8-2.23c-5-.92-10.84-1.69-16.15-.41a23.83 23.83 0 0 0-10 5.18 36.38 36.38 0 0 0-6.82 8.08c-1 1.52-2 3.1-3 4.76-2.95 4.85-6 9.87-10.13 13.5-4.31 3.78-9.95 3.63-15.4 3.48-3.53-.09-6.87-.18-9.57.85-3.73 1.43-5.91 3.75-8.22 6.2-3.7 3.94-7.53 8-18.34 9.21-1.1.12-2.26.22-3.43.3-13.56.88-25.21-6-34.82-12.76-1.56-1.1-3.09-2.23-4.7-3.42L205 62.73c-9.3-6.89-18.93-14-30.66-16.18-10.15-1.88-16.52 3.32-23.28 8.82A57.65 57.65 0 0 1 141 62.45C128 69 109.47 71 93.09 72.82c-6.36.7-12.37 1.35-17.82 2.23-6.65 1.09-14.92 2.44-20.53 7.23-.32.28-.62.56-.92.85C50 86.88 48 91.81 46 96.58a73 73 0 0 1-3.29 7.35 31.23 31.23 0 0 1-13 13.35C22 121.36 12.43 122 3.2 122.68l-3.2.23v.59l3.24-.23c9.29-.66 18.89-1.33 26.74-5.47a31.7 31.7 0 0 0 13.26-13.6 75.15 75.15 0 0 0 3.33-7.4c1.91-4.71 3.89-9.58 7.66-13.25.29-.28.59-.56.9-.82 5.47-4.68 13.66-6 20.23-7.1 5.44-.87 11.44-1.53 17.79-2.22 16.44-1.8 35.06-3.83 48.07-10.43a58.59 58.59 0 0 0 10.19-7.15c6.65-5.42 12.93-10.53 22.81-8.7 11.59 2.14 21.16 9.22 30.41 16.07l2.05 1.51c1.62 1.2 3.15 2.33 4.71 3.43C221.08 75 232.86 81.9 246.59 81c1.18-.08 2.34-.18 3.45-.3 11-1.22 15.11-5.56 18.71-9.38 2.26-2.41 4.4-4.68 8-6.06 2.59-1 5.87-.9 9.34-.81 5.31.14 11.32.3 15.8-3.63 4.2-3.68 7.28-8.74 10.26-13.63 1-1.66 2-3.23 3-4.75a35.71 35.71 0 0 1 6.71-7.95 23.22 23.22 0 0 1 9.72-5.06c5.2-1.25 11-.49 15.91.42a51 51 0 0 1 7.93 2.21c.87.3 1.68.62 2.45.92 3.24 1.26 6 2.34 10.27 1.31a28.85 28.85 0 0 0 3.74-1.24 40.22 40.22 0 0 0 8.12-4.86c5.37-3.8 10.44-7.38 18.22-4.58 5.5 2 10.42 5.4 15.18 8.71 5.43 3.77 10.55 7.33 16.45 8.93a79.54 79.54 0 0 0 9.15 1.69 75.8 75.8 0 0 1 11.84 2.4 34 34 0 0 1 7.81 3.7 30.61 30.61 0 0 1 3.96 2.96z" class="cls-2"/><path d="M462.61 59.74c-1.12-.62-2.36-1.25-3.89-2l-.91-.42c-2.12-1-4.52-2.1-7.2-3-3.62-1.26-7.24-2.22-10.75-3.14s-6.78-1.79-9.75-2.88c-5.27-1.93-9.89-5.56-14.78-9.39s-9.83-7.7-15.64-10c-8.5-3.38-14.66.69-20.61 4.64a57.49 57.49 0 0 1-6.74 4c-1.19.57-2.42 1.15-3.49 1.58-3.84 1.54-6 1.15-9.15.56-.63-.11-1.29-.24-2-.35l-1.77-.3c-1.82-.31-3.88-.66-6.22-.91-5.45-.59-11.19-1-16.26.57a22.83 22.83 0 0 0-9.47 6 40.42 40.42 0 0 0-6.14 8.59c-.57 1-1.15 2.08-1.73 3.16-3.1 5.71-6.3 11.61-11.19 15.42s-11.19 2.9-16.72 2.13a28.41 28.41 0 0 0-7.86-.47c-4 .62-6.35 2.34-9.09 4.33-3.77 2.74-8.05 5.85-18 7.51l-3.43.53c-14.18 2.1-26.5-4.23-35.65-10-1.87-1.18-3.72-2.42-5.68-3.74l-.46-.31-2.56-1.74c-9.11-6.18-18.53-12.58-29.88-14.48-9.64-1.61-15.87 3.08-22.46 8a59.09 59.09 0 0 1-9.7 6.34c-12.76 6.11-30.74 8-46.6 9.73-5.73.61-11.13 1.19-16.11 1.93-6.33.94-14.2 2.11-19.67 6.28-.32.24-.62.48-.91.74-3.84 3.3-6 7.65-8.12 11.86a70.22 70.22 0 0 1-3.38 6.26 30.7 30.7 0 0 1-12.89 11.73c-7 3.38-15.41 4.21-23.56 5-4.06.4-8.2.82-12.19 1.54v.6c4-.73 8.17-1.15 12.24-1.55 8.2-.81 16.68-1.65 23.77-5.07a31.25 31.25 0 0 0 13.08-11.92c1.29-2 2.37-4.21 3.42-6.3 2.17-4.35 4.22-8.46 8-11.69.29-.24.58-.48.88-.71 5.35-4.08 13.15-5.24 19.41-6.17 5-.74 10.36-1.31 16.08-1.92 15.91-1.7 33.94-3.63 46.8-9.79a58.92 58.92 0 0 0 9.79-6.4c6.49-4.88 12.62-9.48 22-7.92 11.23 1.88 20.18 8 29.65 14.39l2.56 1.74.46.31c2 1.32 3.82 2.56 5.7 3.74 9.23 5.8 21.68 12.19 36.05 10.06 1.14-.17 2.29-.34 3.44-.54 10.12-1.68 14.65-5 18.28-7.61 2.68-1.94 5-3.62 8.84-4.22a27.64 27.64 0 0 1 7.68.48c5.65.82 12.05 1.76 17.16-2.23s8.22-9.84 11.35-15.6c.58-1.07 1.15-2.13 1.73-3.15a39.66 39.66 0 0 1 6-8.47 22.32 22.32 0 0 1 9.23-5.83c4.95-1.56 10.63-1.13 16-.55 2.31.25 4.37.6 6.18.91l1.78.3c.71.11 1.37.23 2 .35 3.18.58 5.48 1 9.48-.59 1.09-.44 2.32-1 3.52-1.6a59.37 59.37 0 0 0 6.85-4.09c6.09-4 11.84-7.86 20.06-4.58 5.73 2.29 10.7 6.17 15.5 9.93s9.58 7.51 14.94 9.48c3 1.1 6.3 2 9.8 2.89s7.11 1.88 10.71 3.14a76.84 76.84 0 0 1 7.14 3l.92.43c1.64.76 2.95 1.42 4.13 2.09z" class="cls-2"/><path d="M462.61 68.18c-1.16-.29-2.47-.62-4.16-1.15s-3.47-1.26-5.39-2c-.93-.37-1.88-.76-2.88-1.14-1.94-.75-3.88-1.48-5.8-2.2-5.23-2-10.17-3.82-14.2-5.75-4.74-2.26-8.91-5.93-13.32-9.82-4.86-4.32-9.86-8.74-15.94-11.4-9.19-4-16.29.55-23.16 5-1.54 1-3.13 2-4.71 2.92l-2.12 1.25-1.18.7c-4.09 2.41-5.75 2.41-9.62 2.6h-.34c-1.51.07-3.3 0-5.37-.09l-2.57-.1h-.16c-5.55-.18-11.29-.36-16.2 1.56a21.75 21.75 0 0 0-9 6.77 43.63 43.63 0 0 0-5.46 9.12l-.71 1.55c-3 6.3-6.34 13.44-12 17.36s-12.67 1.9-18.29.29a35 35 0 0 0-5.88-1.36c-4.78-.44-7.4.79-11.39 2.64a70.61 70.61 0 0 1-16.31 5.61l-3.42.78c-11.5 2.65-22.75.43-36.49-7.2-2-1.13-4-2.34-6.4-3.8L206 77.74c-9.34-5.86-18.17-11.4-29.23-13-9.13-1.36-15.21 2.82-21.65 7.24a61 61 0 0 1-9.29 5.59c-12.76 5.73-30.35 7.56-45.86 9.17-4.9.5-9.53 1-13.87 1.56-6.34.85-13.52 1.81-18.83 5.33-.3.2-.6.41-.88.62-3.85 2.86-6.2 6.63-8.48 10.28-1.07 1.72-2.18 3.5-3.44 5.17a30.89 30.89 0 0 1-12.67 10.03c-6.2 2.69-13.5 3.62-20.56 4.51-6.47.82-13.15 1.67-19 3.87a23.12 23.12 0 0 0-2.27 1v.67a23.26 23.26 0 0 1 2.48-1.14c5.75-2.18 12.4-3 18.83-3.83 7.11-.9 14.45-1.83 20.72-4.56A31.51 31.51 0 0 0 54.94 110c1.27-1.7 2.39-3.49 3.47-5.22 2.35-3.78 4.59-7.31 8.33-10.1.27-.21.56-.41.86-.61 5.19-3.45 12.3-4.4 18.58-5.23 4.33-.58 8.95-1.06 13.85-1.57 15.56-1.61 33.19-3.44 46-9.21a61.37 61.37 0 0 0 9.39-5.65c6.33-4.35 12.32-8.46 21.22-7.14 10.95 1.63 19.72 7.14 29 13l4.13 2.57c2.39 1.47 4.38 2.68 6.43 3.81 13.87 7.71 25.25 9.95 36.9 7.26l3.42-.77A71.07 71.07 0 0 0 273 85.45c3.9-1.81 6.47-3 11.09-2.59a35.48 35.48 0 0 1 5.77 1.34c5.74 1.65 12.89 3.7 18.78-.37s9.21-11.22 12.21-17.59l.73-1.54a43.16 43.16 0 0 1 5.38-9 21.17 21.17 0 0 1 8.74-6.6c4.8-1.88 10.48-1.7 16-1.52h.16c.89 0 1.75.06 2.56.09 2.09.09 3.89.17 5.43.1h.33c3.9-.16 5.68-.24 9.89-2.69l1.19-.71 2.11-1.24c1.59-.9 3.19-1.94 4.74-2.94 6.74-4.35 13.7-8.84 22.61-4.94 6 2.63 11 7 15.78 11.27 4.45 3.91 8.64 7.61 13.46 9.91 4.05 1.94 9 3.8 14.25 5.77 1.91.71 3.85 1.44 5.79 2.19 1 .39 1.95.77 2.87 1.15 1.93.78 3.75 1.51 5.44 2s3.13.9 4.33 1.19z" class="cls-2"/><path d="M462.61 76.47a15.49 15.49 0 0 1-4.43-.2 42 42 0 0 1-8.43-2.89 162.82 162.82 0 0 1-19.49-9.86c-4.26-2.52-7.95-6.24-11.88-10.13-4.86-4.82-9.89-9.8-16.22-12.84-10.38-5-19.2 1-27 6.19l-1.41.95c-1.18.78-2.2 1.58-3.12 2.31l-.74.6c-3.27 2.63-4.38 3.51-8 4.47a41.05 41.05 0 0 1-7.89.81l-1.57.06c-5.14.2-10.46.39-14.9 2.47a21.15 21.15 0 0 0-8.48 7.59 48.69 48.69 0 0 0-4.77 9.63c-2.71 6.79-6.07 15.25-12.57 19.22s-14.4.46-20.09-2.15c-1.34-.62-2.6-1.21-3.67-1.6-6.45-2.35-9.59-1.31-17.17 1.22-2.88 1-6.45 2.14-11.1 3.44-1.2.34-2.32.67-3.43 1-11.93 3.72-23.44 2.36-37.32-4.43-2.07-1-4.16-2.15-6.66-3.54-1.88-1.05-3.76-2.15-5.58-3.21-9.19-5.35-17.87-10.41-28.7-11.82-8.62-1.11-14.56 2.56-20.85 6.44a63.14 63.14 0 0 1-8.87 4.85c-12.93 5.39-30.31 7.12-45.64 8.64-3.91.39-7.59.75-11.12 1.17-6 .7-12.85 1.5-18 4.37-.3.16-.58.34-.87.51-3.86 2.41-6.41 5.6-8.88 8.68-1.09 1.36-2.21 2.76-3.44 4.09A32.51 32.51 0 0 1 47.85 121c-5.33 2-11.48 3-17.43 3.89-6.82 1.05-13.88 2.13-19.75 4.89-4.5 2.12-7.86 5.61-10.67 9.86v1.06c2.85-4.51 6.28-8.2 10.92-10.39 5.79-2.72 12.81-3.8 19.59-4.84 6-.91 12.16-1.86 17.55-3.93a32.91 32.91 0 0 0 12.72-8.59c1.24-1.35 2.37-2.76 3.47-4.12 2.55-3.18 5-6.19 8.73-8.55.28-.17.56-.34.85-.5 5-2.81 11.49-3.57 17.75-4.3 3.52-.41 7.2-.78 11.1-1.17 15.38-1.52 32.8-3.25 45.81-8.67a64.8 64.8 0 0 0 9-4.9c6.19-3.83 12-7.45 20.46-6.35 10.72 1.39 19.35 6.42 28.49 11.74 1.82 1.06 3.7 2.16 5.59 3.21 2.5 1.4 4.6 2.54 6.68 3.56 14 6.86 25.67 8.23 37.76 4.46 1.1-.35 2.21-.68 3.4-1 4.67-1.31 8.25-2.5 11.13-3.46 7.67-2.55 10.53-3.5 16.79-1.21 1 .38 2.3 1 3.63 1.57 5.8 2.67 13.75 6.33 20.64 2.12 6.67-4.07 10.07-12.63 12.8-19.5a47.82 47.82 0 0 1 4.72-9.51 20.43 20.43 0 0 1 8.2-7.37c4.33-2 9.59-2.23 14.67-2.42l1.57-.06a40.87 40.87 0 0 0 8-.84c3.75-1 5-2 8.23-4.58l.74-.59c.91-.73 1.91-1.51 3.08-2.28l1.41-1c7.65-5.15 16.33-11 26.4-6.15 6.25 3 11.24 7.94 16.06 12.72 4 3.93 7.7 7.63 12 10.22a161.79 161.79 0 0 0 19.56 9.9 42.84 42.84 0 0 0 8.56 2.93 16.27 16.27 0 0 0 4.53.21z" class="cls-2"/><path d="M462.61 84.6a9.22 9.22 0 0 1-4.7.92c-2.92-.15-6.12-1.47-8.59-2.61a107.4 107.4 0 0 1-19-11.77c-3.72-2.79-7-6.44-10.45-10.3-4.85-5.4-9.87-11-16.49-14.46-11.06-5.79-21.8.86-28.91 6.37a25.06 25.06 0 0 0-2.94 2.69c-1.15 1.23-2 2.27-2.68 3.19a12.77 12.77 0 0 1-4.85 4.31 25.23 25.23 0 0 1-7.85 1.82l-2.62.27c-4.86.49-9.88 1-13.95 3.24a20.51 20.51 0 0 0-8 8.37 53.37 53.37 0 0 0-4.09 10.14c-2.63 8.1-6 16.07-12.39 19.54-7.87 4.24-16.74-1.86-22-5.51l-1.33-.9c-8.63-5.8-12.11-4.62-28.83 1-1.14.39-2.29.81-3.42 1.26-12.36 4.85-24.13 4.35-38.16-1.65-2.44-1-4.87-2.25-6.92-3.29-2.35-1.2-4.68-2.47-6.93-3.69-9.06-4.92-17.62-9.56-28.27-10.74-8.12-.91-13.94 2.27-20.09 5.64a69.13 69.13 0 0 1-8.42 4.11c-13.43 5.13-31 6.75-46.46 8.18l-7.31.69h-.28c-5.88.58-12 1.18-16.84 3.39-.29.13-.57.26-.84.4-3.93 2-6.6 4.46-9.42 7.09-1.06 1-2.15 2-3.32 3a36.17 36.17 0 0 1-12.33 6.81 101.65 101.65 0 0 1-14 3.14c-7.31 1.29-14.86 2.61-20.79 6.06-8 4.64-11.35 13.88-14.91 23.67-1.28 3.51-2.59 7.1-4.15 10.56V167c1.8-3.83 3.27-7.85 4.7-11.76 3.53-9.68 6.86-18.83 14.65-23.36 5.84-3.4 13.35-4.72 20.6-6a103.48 103.48 0 0 0 14.13-3.16 37 37 0 0 0 12.54-6.92c1.17-1 2.27-2 3.33-3a37.85 37.85 0 0 1 9.28-7l.82-.4c4.81-2.16 10.83-2.76 16.65-3.34h.29l7.31-.69c15.51-1.43 33.1-3.06 46.61-8.21A69.59 69.59 0 0 0 159.4 89c6.07-3.32 11.8-6.45 19.75-5.57 10.53 1.17 19 5.79 28 10.68 2.26 1.22 4.59 2.49 7 3.69 2 1 4.49 2.25 6.95 3.31 14.18 6.06 26.09 6.57 38.6 1.65 1.12-.44 2.26-.86 3.4-1.24 16.49-5.59 19.92-6.75 28.32-1.12l1.32.91c5.41 3.72 14.46 10 22.65 5.54 6.61-3.57 10-11.66 12.67-19.88a53.26 53.26 0 0 1 4-10 20 20 0 0 1 7.76-8.15c4-2.18 8.93-2.68 13.73-3.16l2.62-.28a25.52 25.52 0 0 0 8.05-1.87 13.2 13.2 0 0 0 5.1-4.51c.71-.91 1.51-1.94 2.65-3.15a23.74 23.74 0 0 1 2.87-2.62c7-5.42 17.52-12 28.28-6.32 6.53 3.41 11.5 9 16.32 14.34 3.48 3.88 6.77 7.55 10.54 10.37a108.31 108.31 0 0 0 19.1 11.84c2.51 1.15 5.78 2.5 8.8 2.66a9.77 9.77 0 0 0 4.73-.86zM2.29 205.77c-.45-2-1-3.76-1.44-5.36-.32-1.08-.61-2.07-.85-3v2.21l.28 1c.49 1.67 1 3.39 1.44 5.33 1.35 5.81 1.72 14.31-1.32 20.72-.12.27-.26.53-.4.79v1.17a15.53 15.53 0 0 0 .93-1.71c3.07-6.58 2.74-15.23 1.36-21.15z" class="cls-2"/><path d="M462.61 92.54a8 8 0 0 1-5 2.24c-2.44.15-5.22-.58-8.75-2.33-6.84-3.37-13.47-9.09-18.48-13.69a88.29 88.29 0 0 1-9-10.27c-4.83-6.07-9.82-12.34-16.75-16.28-10.42-5.92-22-1-29.44 5.61a18.35 18.35 0 0 0-2.75 3.06 26.46 26.46 0 0 0-2.59 4.69 11.91 11.91 0 0 1-3.74 5.26c-2.08 1.57-5.11 2.3-7.81 2.8-1.12.21-2.27.39-3.44.58-4.64.75-9.43 1.52-13.23 3.91-3.14 2-5.52 4.9-7.49 9.17a62.1 62.1 0 0 0-3.39 10.52v.13c-1.77 6.89-5 16.45-12.21 19.87-6.44 3-14 .08-23-9.07-8.41-8.54-13.35-9-29.38-2.57-1.12.45-2.27 1-3.41 1.49-12.78 6-24.8 6.39-39 1.12-2-.76-4.33-1.73-7.17-3s-5.55-2.69-8.21-4c-8.95-4.54-17.41-8.84-27.92-9.79-7.65-.7-13.35 2-19.38 4.84a79.3 79.3 0 0 1-7.91 3.37c-14.78 5.08-34.22 6.62-49.84 7.87l-1.85.14c-5.29.42-10.77.85-15.36 2.4l-.83.29A48.5 48.5 0 0 0 75 116.37c-.94.61-1.88 1.24-2.88 1.86A45 45 0 0 1 60 123.41c-3.23.87-6.77 1.55-10.2 2.2-8 1.52-16.28 3.1-22.3 7.41-6.76 4.84-9.18 13.18-11.75 22-1.62 5.6-3.31 11.4-6.19 16.58A64.13 64.13 0 0 1 5 178.32l-.51.69A46.24 46.24 0 0 0 0 186.32v1.47a40.4 40.4 0 0 1 5-8.39l.5-.69a60.8 60.8 0 0 0 4.5-6.82c2.92-5.23 4.61-11.06 6.25-16.69 2.54-8.74 4.93-17 11.52-21.71 5.92-4.23 14.13-5.79 22.07-7.3 3.44-.66 7-1.33 10.24-2.22a45.4 45.4 0 0 0 12.34-5.24c1-.63 2-1.25 2.89-1.87a48.2 48.2 0 0 1 10.14-5.49l.81-.29c4.52-1.52 10-2 15.22-2.36l1.85-.15c15.65-1.24 35.13-2.79 50-7.89a79.52 79.52 0 0 0 8-3.4c6-2.81 11.59-5.46 19.08-4.79 10.39 1 18.8 5.22 27.71 9.74 2.66 1.35 5.41 2.75 8.22 4s5.15 2.28 7.22 3c14.35 5.33 26.52 5 39.45-1.14 1.13-.54 2.27-1 3.38-1.48 16.68-6.66 20.88-5.54 28.74 2.44 9.22 9.35 17 12.36 23.66 9.19 7.46-3.53 10.73-13.25 12.53-20.25v-.13a62.53 62.53 0 0 1 3.35-10.43c1.92-4.16 4.23-7 7.27-8.91 3.7-2.33 8.44-3.09 13-3.83 1.17-.19 2.32-.37 3.44-.58 2.77-.52 5.89-1.27 8.07-2.91a12.45 12.45 0 0 0 3.92-5.49 25.86 25.86 0 0 1 2.53-4.59 17.59 17.59 0 0 1 2.66-3c7.25-6.46 18.61-11.31 28.76-5.54 6.83 3.88 11.79 10.11 16.58 16.14a89.14 89.14 0 0 0 9.1 10.47c5 4.63 11.71 10.38 18.62 13.78 3.63 1.8 6.51 2.56 9.05 2.4a8.2 8.2 0 0 0 4.93-2.06z" class="cls-2"/><path d="M462.61 100.28c-1.34 1.76-2.73 3.32-5.24 3.76s-5.46-.23-8.91-2.06c-6.79-3.58-13.18-10.22-18-15.6a106.85 106.85 0 0 1-7.6-10c-4.79-6.82-9.74-13.86-17-18.34-10.33-6.35-22.89-2.37-29.95 4.84a15.43 15.43 0 0 0-2.55 3.44 22.78 22.78 0 0 0-2.11 5.9c-.61 2.44-1.14 4.55-3 6.5-1.6 1.66-3.93 2.8-7.79 3.79-1.32.34-2.66.63-4.07.93-4.49 1-9.12 2-12.7 4.54-3.07 2.19-5.29 5.36-7 10a69.33 69.33 0 0 0-2.58 10.4l-.15.77c-2.15 11-6.2 17.78-12 20.19-10.24 4.21-19.9-7.92-22.62-11.74-7.55-10.59-13.38-13.8-29.91-6.18-1.13.51-2.27 1.1-3.41 1.73-13.36 7.38-25.27 8.54-39.83 3.9-2.2-.7-4.63-1.61-7.44-2.79-3.22-1.35-6.36-2.85-9.39-4.29-8.88-4.23-17.26-8.23-27.66-9-7.21-.5-13.09 1.81-18.79 4-2.34.93-4.77 1.88-7.28 2.64-15.6 4.71-34.76 6.25-47.82 7l-1.94.11a88.44 88.44 0 0 0-13.45 1.4l-.8.18a77.78 77.78 0 0 0-12.18 4.17l-1.36.56a68.69 68.69 0 0 1-12 3.54c-1.75.37-3.52.7-5.39 1.05-9.12 1.71-18.55 3.47-24.77 9-5.72 5.06-7.33 12.75-9 20.89-1.4 6.15-2.72 12.49-5.92 17.99a48 48 0 0 1-5.11 7 85.43 85.43 0 0 0-6 7.76 15 15 0 0 0-2.62 7.58 40.6 40.6 0 0 0 .72 8.87c.1.72.21 1.47.32 2.23.65 4.65 1.31 13.45-1.59 20.24a16.51 16.51 0 0 1-4.46 6.22c-.68.79-1.47 1.6-2.26 2.42v.85c.94-1 1.85-1.91 2.73-2.88a17 17 0 0 0 4.6-6.41c2.95-6.92 2.29-15.85 1.63-20.55-.11-.77-.22-1.51-.32-2.23a40.21 40.21 0 0 1-.71-8.74 14.5 14.5 0 0 1 2.52-7.31 86.27 86.27 0 0 1 5.92-7.7 48.14 48.14 0 0 0 5.17-7.06c3.22-5.59 4.55-12 5.84-18.12 1.68-8 3.28-15.64 8.85-20.57 6.1-5.4 15.45-7.15 24.48-8.84 1.88-.35 3.66-.69 5.41-1.05a70.81 70.81 0 0 0 12.14-3.58l1.35-.55a75.2 75.2 0 0 1 12.09-4.15l.8-.18a89.15 89.15 0 0 1 13.35-1.39l2-.11c13.08-.75 32.29-2.3 48-7 2.53-.77 5-1.72 7.33-2.65 5.89-2.31 11.46-4.5 18.53-4 10.29.72 18.62 4.69 27.45 8.9 3 1.45 6.18 2.94 9.41 4.3 2.83 1.18 5.28 2.1 7.49 2.81 14.73 4.7 26.78 3.52 40.29-3.95 1.13-.62 2.26-1.2 3.37-1.71 15.93-7.33 21.49-4.81 29.19 6 2.78 3.91 12.68 16.32 23.33 11.94 6-2.48 10.2-9.42 12.38-20.62l.15-.77a68.77 68.77 0 0 1 2.57-10.31c1.66-4.48 3.81-7.56 6.78-9.69 3.38-2.5 7.96-3.5 12.38-4.5 1.36-.3 2.77-.6 4.09-.94 4-1 6.39-2.21 8.07-4 2-2.06 2.56-4.34 3.16-6.76a22.51 22.51 0 0 1 2.05-5.76 15.15 15.15 0 0 1 2.46-3.31c6.73-6.87 19.27-10.87 29.23-4.75C412.73 63 417.65 70 422.4 76.71a107.86 107.86 0 0 0 7.6 10.07c4.84 5.41 11.27 12.09 18.14 15.72 3.58 1.89 6.62 2.59 9.29 2.12a8.2 8.2 0 0 0 5.14-3.39z" class="cls-2"/><path d="M457.26 113.87c2.63-.73 4.1-2.74 5.35-4.89v-1.18c-1.37 2.46-2.74 4.73-5.5 5.5s-5.64.16-9.08-1.78c-5.24-3-11.12-8.84-17.48-17.51-2.17-3-4.11-6.1-6.17-9.44-4.72-7.68-9.61-15.61-17.28-20.7-10.28-6.81-24.1-3.39-30.47 4.13a14.22 14.22 0 0 0-2.36 3.81 24.08 24.08 0 0 0-1.51 7c-.32 2.83-.61 5.5-2.38 7.88-1.52 2.05-3.92 3.52-7.78 4.79-1.47.48-3.06.91-4.59 1.32-4.37 1.18-8.88 2.4-12.28 5.12-3 2.43-5.09 5.84-6.5 10.76a74 74 0 0 0-1.86 10.23l-.2 1.45c-1.07 7.82-4 17.72-11.86 20.52-9 3.19-17.6-5.77-22.27-14.4-7-13-14-18.42-30.43-9.8a38.04 38.04 0 0 0-3.4 2c-13.74 8.67-25.9 10.67-40.67 6.68-2.35-.64-4.87-1.47-7.7-2.54-3.62-1.38-7.12-3-10.5-4.47-8.81-4-17.14-7.7-27.47-8.18-6.85-.32-12.74 1.51-18.44 3.27-2.08.65-4.23 1.31-6.41 1.87a215.33 215.33 0 0 1-44.84 6.08c-1.4 0-2.82.08-4.24.11-3.44.08-7 .16-10.28.45l-.79.08A140.21 140.21 0 0 0 84 124c-3.78.75-7.79 1.33-11.9 1.91-10.65 1.51-21.57 3.56-27.82 10.45-4.81 5.31-5.7 12.53-6.65 20.17-.81 6.5-1.64 13.21-5 18.92a34.71 34.71 0 0 1-5.25 6.54c-1.17 1.22-2.28 2.33-3.31 3.37-1.27 1.28-2.47 2.48-3.54 3.63a19 19 0 0 0-4.67 7.54c-1 3.32-.95 7.14-.75 11.43.32 6.85.31 14-1.86 19.77a19.53 19.53 0 0 1-3.92 6.44 98.75 98.75 0 0 1-9.26 10v.83a102.31 102.31 0 0 0 9.64-10.5 20.24 20.24 0 0 0 4-6.61c2.21-5.88 2.22-13.09 1.9-20-.2-4.23-.28-8 .72-11.23a18.52 18.52 0 0 1 4.54-7.31c1.06-1.14 2.26-2.34 3.53-3.62 1-1 2.14-2.15 3.32-3.37a36.27 36.27 0 0 0 5.32-6.65c3.45-5.82 4.29-12.59 5.1-19.15.96-7.56 1.86-14.69 6.53-19.86 6.11-6.74 16.92-8.77 27.46-10.26 4.12-.58 8.14-1.17 11.93-1.91a139.23 139.23 0 0 1 13.87-2l.78-.07c3.26-.29 6.81-.37 10.25-.45l4.24-.11a215.82 215.82 0 0 0 45-6.1c2.19-.56 4.35-1.23 6.43-1.88 5.92-1.83 11.49-3.56 18.25-3.24 10.21.48 18.49 4.19 27.25 8.13 3.39 1.52 6.89 3.09 10.54 4.48 2.84 1.08 5.38 1.91 7.75 2.55 14.94 4 27.25 2 41.13-6.75 1.13-.71 2.26-1.36 3.36-1.94 16-8.39 22.79-3.12 29.64 9.55 4.78 8.84 13.67 18 23 14.68 8.14-2.89 11.15-13 12.25-21l.19-1.45a73.82 73.82 0 0 1 1.85-10.15c1.37-4.79 3.37-8.12 6.3-10.46 3.3-2.65 7.75-3.85 12.06-5 1.54-.42 3.13-.85 4.62-1.34 2.68-.87 6-2.23 8.07-5 1.86-2.51 2.17-5.25 2.49-8.16a23.6 23.6 0 0 1 1.47-6.8 14.17 14.17 0 0 1 2.26-3.66c6.26-7.28 19.68-10.61 29.7-4 7.57 5 12.42 12.89 17.11 20.51 2 3.21 4 6.52 6.19 9.49 6.42 8.74 12.36 14.68 17.67 17.67 3.54 2.02 6.66 2.62 9.48 1.84z" class="cls-2"/><path d="M447.29 121.55c3.56 2.14 6.85 2.66 9.76 1.57s4.31-3.78 5.56-6.58v-1.45l-.09.21c-1.38 3.16-2.69 6.15-5.67 7.27-2.78 1-5.81.54-9.26-1.52-7.46-4.46-14.36-15.06-17-19.42-1.64-2.72-3.21-5.66-4.72-8.49-4.64-8.68-9.44-17.65-17.56-23.44-9.51-6.78-24.57-5.17-31 3.32a13.9 13.9 0 0 0-2.16 4.17 26.6 26.6 0 0 0-.9 7.93c0 3.35-.08 6.52-1.76 9.36-1.45 2.44-3.85 4.22-7.78 5.78-1.59.63-3.31 1.19-5 1.72-4.28 1.38-8.72 2.81-12 5.71-3 2.66-4.89 6.33-6 11.55a79.46 79.46 0 0 0-1.21 10c-.05.73-.11 1.45-.17 2.17-.44 5.34-2.45 18.06-11.69 20.85-9.61 2.93-17.81-7.37-21.93-17.08s-8.57-15.14-14-16.92c-4.72-1.56-10.27-.41-17 3.52-1.08.64-2.23 1.38-3.4 2.21-14.05 10-26.47 12.84-41.51 9.45a76.54 76.54 0 0 1-7.95-2.28c-4-1.37-7.84-3-11.54-4.57-8.78-3.74-17.08-7.26-27.36-7.49-6.78-.15-13 1.24-19 2.58-1.54.35-3.1.7-4.67 1-10.5 2.18-26.26 5.07-41.86 5.15-4.54 0-9.24-.17-13.65-.38H104c-1.58-.07-3.12-.16-4.63-.25-3.29-.18-6.4-.36-9.68-.38-3.51 0-7.6 0-11.76.26-8.5.58-19.82 2.94-25.48 10.86-4 5.59-4.25 12.8-4.51 19.78-.24 6.77-.49 13.78-4 19.56a27.69 27.69 0 0 1-5.37 6.12c-1.84 1.63-3.68 3.06-5.45 4.44-.78.62-1.56 1.22-2.3 1.82a24.36 24.36 0 0 0-6.71 7.48c-1.92 3.65-2.36 7.81-2.55 11.76-.05 1.1-.09 2.22-.13 3.36-.18 5.4-.38 11-2 15.94a24.55 24.55 0 0 1-3.37 6.66C12 241.17 6.08 246.73 0 252v.78c6.24-5.43 12.39-11.12 16.68-17.61a25.09 25.09 0 0 0 3.45-6.81c1.65-5 1.84-10.66 2-16.1 0-1.13.08-2.25.13-3.35.18-3.88.61-8 2.48-11.51a23.81 23.81 0 0 1 6.56-7.3c.74-.6 1.51-1.2 2.29-1.81 1.78-1.39 3.62-2.83 5.48-4.48a28.13 28.13 0 0 0 5.48-6.24c3.63-5.92 3.88-13 4.13-19.85.26-7.21.51-14 4.4-19.45 5.53-7.74 16.67-10.05 25-10.62 4.14-.29 8.22-.29 11.71-.26 3.27 0 6.37.19 9.66.38l4.64.25h.76c4.42.21 9.11.4 13.68.38 15.65-.08 31.46-3 42-5.16 1.57-.33 3.13-.68 4.68-1 6.23-1.4 12.11-2.72 18.82-2.57 10.17.22 18.41 3.73 27.14 7.44 3.71 1.57 7.55 3.2 11.58 4.58a75.5 75.5 0 0 0 8 2.31c15.23 3.43 27.78.57 42-9.55 1.16-.82 2.29-1.55 3.35-2.18 6.54-3.85 11.93-5 16.49-3.48 5.22 1.73 9.55 7 13.61 16.6 4.21 9.93 12.66 20.45 22.64 17.41 9.58-2.9 11.66-15.9 12.11-21.36.06-.72.11-1.45.17-2.18a79.82 79.82 0 0 1 1.2-9.94c1.07-5.09 2.92-8.66 5.81-11.23 3.18-2.82 7.55-4.23 11.78-5.59 1.68-.54 3.41-1.1 5-1.73 2.73-1.09 6.12-2.76 8.06-6 1.77-3 1.81-6.22 1.85-9.65a26.29 26.29 0 0 1 .87-7.76 13.35 13.35 0 0 1 2.07-4c6.23-8.25 20.89-9.8 30.17-3.19 8 5.71 12.77 14.62 17.38 23.23 1.52 2.85 3.09 5.79 4.74 8.53 3.34 5.46 9.95 15.26 17.24 19.62z" class="cls-2"/><path d="M430.15 109.52c1.3 2.64 12 23.67 23 23.67a8.6 8.6 0 0 0 3.68-.83c3.15-1.47 4.52-5 5.77-8.51v-1.73c-.12.35-.25.7-.38 1.06-1.32 3.71-2.56 7.21-5.64 8.65-9.53 4.46-20.77-12.09-25.91-22.57-1.14-2.32-2.25-4.74-3.32-7.08-4.51-9.86-9.18-20.05-17.79-26.64A26 26 0 0 0 386.22 72c-5.36 1.92-9 5.69-10.1 10.61a30.65 30.65 0 0 0-.3 8.82c.24 3.9.48 7.59-1.14 10.92-2.41 5-7.63 6.89-13.16 8.94-4.21 1.57-8.55 3.18-11.68 6.24-5.73 5.62-5.94 14.17-6.14 22.44 0 .88 0 1.75-.07 2.61-.14 4.32-1.39 18.59-11.52 21.18s-17.95-9-21.58-19.76c-4.08-12-9.19-18.82-15.62-20.73-5.47-1.63-11.94.45-19.21 6.18-16.92 13.32-31.09 16.18-50.57 10.2-4.37-1.34-8.49-3-12.49-4.63-8.69-3.51-16.9-6.84-27-6.84h-.3c-10.17.07-20 1.66-29.52 3.19-14.45 2.34-29.39 4.75-45.3 1.64-2.58-.51-5.19-1.13-7.72-1.73-6-1.43-12.29-2.9-18.6-3-8.11-.07-18.5 2.84-23.15 11.29-3.22 5.86-2.85 12.85-2.5 19.62.37 7 .75 14.19-2.92 20-2.72 4.28-7.24 7-11.61 9.66-4.14 2.5-8.41 5.08-11.27 9-4 5.41-4.51 12.27-5 18.91a63.62 63.62 0 0 1-1.72 12c-3.48 12.47-14.27 21-24.69 29.15l-1.27 1v.75l1.63-1.29c10.5-8.26 21.36-16.8 24.89-29.45a64.32 64.32 0 0 0 1.75-12.09c.55-6.85 1.06-13.33 4.92-18.61 2.79-3.81 7-6.37 11.1-8.84 4.43-2.67 9-5.44 11.81-9.85 3.76-5.93 3.38-13.24 3-20.3-.35-6.68-.71-13.59 2.43-19.31 4.45-8.11 14.36-11 22.28-11h.34c6.25.06 12.46 1.53 18.48 3 2.53.6 5.15 1.21 7.74 1.72 16 3.14 31 .72 45.51-1.63 9.49-1.53 19.3-3.11 29.42-3.18h.3c10 0 18.18 3.3 26.81 6.79 4 1.62 8.15 3.3 12.54 4.65 19.42 6 34.23 3 51.1-10.3 7.11-5.6 13.4-7.64 18.68-6.08 6.2 1.81 11.2 8.47 15.2 20.31 3.71 11 11.77 22.82 22.29 20.14s11.81-17.31 12-21.73c0-.86 0-1.74.07-2.62.19-8.15.4-16.58 6-22 3-3 7.33-4.57 11.47-6.11 5.65-2.09 11-4.07 13.48-9.23 1.69-3.48 1.44-7.41 1.21-11.22a30.05 30.05 0 0 1 .28-8.64c1.1-4.73 4.56-8.35 9.73-10.2A25.36 25.36 0 0 1 409.21 76c8.5 6.5 13.13 16.63 17.62 26.43 1.07 2.34 2.17 4.76 3.32 7.09z" class="cls-2"/></g></g></g></svg>