<svg xmlns="http://www.w3.org/2000/svg" viewBox="0 0 23.43 22.15"><defs><style>.cls-1{fill:#daddf0}</style></defs><g id="Layer_2" data-name="Layer 2"><g id="Layer_1-2" data-name="Layer 1"><path d="M8.67.73A.37.37 0 0 0 9 .37.37.37 0 0 0 8.67 0a.36.36 0 0 0-.37.37.36.36 0 0 0 .37.36zM10.11.73a.37.37 0 0 0 .37-.36.37.37 0 0 0-.37-.37.36.36 0 0 0-.37.37.36.36 0 0 0 .37.36zM11.55.73a.37.37 0 0 0 .37-.36.37.37 0 0 0-.37-.37.36.36 0 0 0-.37.37.36.36 0 0 0 .37.36zM13 .38zM14.43.73a.36.36 0 0 0 .36-.36.37.37 0 0 0-.36-.37.38.38 0 0 0-.37.37.37.37 0 0 0 .37.36zM15.87.59a.22.22 0 0 0 .22-.22.22.22 0 1 0-.44 0 .22.22 0 0 0 .22.22zM17.31.42h.05a.06.06 0 0 0-.05-.06.06.06 0 0 0-.06.06.06.06 0 0 0 .06 0zM4.35 2.17a.36.36 0 0 0 .36-.36.37.37 0 0 0-.36-.37.38.38 0 0 0-.35.37.37.37 0 0 0 .35.36zM5.79 1.9a.09.09 0 1 0-.09-.09.09.09 0 0 0 .09.09zM7.23 2a.2.2 0 0 0 .2-.2.2.2 0 0 0-.2-.21.21.21 0 1 0 0 .41zM8.67 2.17a.37.37 0 1 0 0-.73.37.37 0 1 0 0 .73zM10.11 1.85V1.8v.05zM11.55 1.89a.09.09 0 0 0 .08-.08.09.09 0 0 0-.08-.09.09.09 0 0 0-.09.09.09.09 0 0 0 .09.08zM13 1.82zM14.43 1.92a.11.11 0 1 0-.11-.11.11.11 0 0 0 .11.11zM15.87 2.11a.31.31 0 0 0 .3-.3.3.3 0 0 0-.3-.3.29.29 0 0 0-.3.3.3.3 0 0 0 .3.3zM17.31 1.87a.06.06 0 0 0 .06-.06.07.07 0 0 0-.06-.07.07.07 0 0 0-.07.07.07.07 0 0 0 .07.06zM18.75 1.83v-.04zM1.47 3.3h.05a.06.06 0 0 0-.05-.06.06.06 0 0 0-.06.06.06.06 0 0 0 .06 0zM4.35 3.47a.22.22 0 1 0-.22-.22.22.22 0 0 0 .22.22zM5.79 3.54a.29.29 0 1 0-.29-.29.29.29 0 0 0 .29.29zM7.23 3.47a.22.22 0 0 0 .22-.22.23.23 0 1 0-.22.22zM8.67 3.74a.49.49 0 1 0-.49-.49.49.49 0 0 0 .49.49zM10.11 3.8a.56.56 0 1 0-.56-.55.55.55 0 0 0 .56.55z" class="cls-1"/><circle cx="11.55" cy="3.25" r=".38" class="cls-1"/><path d="M13 3.62a.36.36 0 0 0 .37-.37.37.37 0 0 0-.37-.38.38.38 0 0 0-.38.38.37.37 0 0 0 .38.37zM14.43 3.36a.11.11 0 1 0-.11-.11.11.11 0 0 0 .11.11z" class="cls-1"/><circle cx="15.87" cy="3.25" r=".1" class="cls-1"/><path d="M17.31 3.73a.47.47 0 0 0 .48-.48.48.48 0 0 0-.48-.49.49.49 0 0 0-.49.49.48.48 0 0 0 .49.48zM18.75 3.31a.06.06 0 0 0 .06-.06.07.07 0 0 0-.06-.07.07.07 0 0 0-.07.07.07.07 0 0 0 .07.06zM1.47 4.71zM2.91 4.8A.11.11 0 0 0 3 4.69a.11.11 0 0 0-.11-.12.12.12 0 0 0-.12.12.11.11 0 0 0 .14.11zM4.35 5a.29.29 0 0 0 0-.57.29.29 0 1 0 0 .57zM5.79 5.12a.43.43 0 0 0 .43-.43.44.44 0 0 0-.43-.44.44.44 0 0 0-.44.44.44.44 0 0 0 .44.43zM7.23 5.07a.38.38 0 1 0-.38-.38.38.38 0 0 0 .38.38zM8.67 5a.31.31 0 1 0-.31-.31.31.31 0 0 0 .31.31zM10.11 5.17a.47.47 0 0 0 .48-.48.48.48 0 0 0-.48-.49.49.49 0 0 0-.49.49.48.48 0 0 0 .49.48zM11.55 5.17a.49.49 0 0 0 .45-.48.48.48 0 0 0-.48-.48.47.47 0 0 0-.48.48.48.48 0 0 0 .51.48zM13 5.07a.38.38 0 0 0 .38-.38.39.39 0 0 0-.38-.39.4.4 0 0 0-.39.39.39.39 0 0 0 .39.38zM14.43 5.16a.47.47 0 1 0-.43-.47.47.47 0 0 0 .43.47zM15.87 5a.33.33 0 0 0 .33-.33.33.33 0 0 0-.33-.33.32.32 0 0 0-.33.33.33.33 0 0 0 .33.33zM17.31 4.88a.19.19 0 0 0 .19-.19.19.19 0 0 0-.19-.2.2.2 0 1 0 0 .39zM18.75 4.72v-.06.06zM20.19 4.75a.06.06 0 0 0 .06-.06.07.07 0 0 0-.06-.07.07.07 0 0 0-.07.07.07.07 0 0 0 .07.06zM1.47 6.19a.06.06 0 0 0 .06-.06.07.07 0 0 0-.06-.07.07.07 0 0 0-.07.07.07.07 0 0 0 .07.06zM2.91 6.27a.15.15 0 0 0 .14-.14.14.14 0 0 0-.14-.13.14.14 0 0 0-.14.14.14.14 0 0 0 .14.13zM4.35 6.35a.22.22 0 0 0 .22-.22.23.23 0 1 0-.22.22zM5.79 6.25a.13.13 0 0 0 .12-.12.12.12 0 0 0-.12-.13.12.12 0 0 0-.12.12.12.12 0 0 0 .12.13zM7.23 6.39a.26.26 0 0 0 .26-.26.26.26 0 0 0-.26-.26.25.25 0 0 0-.23.26.26.26 0 0 0 .23.26zM8.67 6.59a.45.45 0 0 0 .46-.46.46.46 0 0 0-.46-.47.47.47 0 0 0-.47.47.46.46 0 0 0 .47.46zM10.11 6.61a.49.49 0 1 0-.48-.48.48.48 0 0 0 .48.48zM11.55 6.61a.48.48 0 0 0 .45-.48.49.49 0 1 0-1 0 .48.48 0 0 0 .55.48zM13 6.56a.43.43 0 0 0 .43-.43.44.44 0 0 0-.43-.44.44.44 0 0 0-.44.44.44.44 0 0 0 .44.43zM14.43 6.52a.4.4 0 0 0 .39-.39.39.39 0 0 0-.39-.39.38.38 0 0 0-.39.39.39.39 0 0 0 .39.39zM15.87 6.28a.15.15 0 0 0 .13-.15.15.15 0 0 0-.13-.13.14.14 0 0 0-.15.15.15.15 0 0 0 .15.13z" class="cls-1"/><circle cx="17.31" cy="6.13" r=".36" class="cls-1"/><path d="M18.75 6.23a.1.1 0 0 0 .1-.1.1.1 0 0 0-.1-.11.11.11 0 0 0-.11.11.11.11 0 0 0 .11.1zM20.19 6.61a.47.47 0 0 0 .48-.48.48.48 0 0 0-.48-.49.49.49 0 0 0-.49.49.48.48 0 0 0 .49.48zM21.63 6.18h.05a.06.06 0 0 0-.05-.06.06.06 0 0 0-.06.06.06.06 0 0 0 .06 0zM1.47 7.75a.18.18 0 1 0-.18-.18.18.18 0 0 0 .18.18zM2.91 7.72a.15.15 0 0 0 .15-.15.16.16 0 0 0-.15-.16.16.16 0 0 0-.16.16.16.16 0 0 0 .16.15zM4.35 7.93a.36.36 0 0 0 .36-.36.37.37 0 0 0-.36-.37.38.38 0 0 0-.35.37.37.37 0 0 0 .35.36zM5.79 7.73a.16.16 0 1 0-.16-.16.16.16 0 0 0 .16.16zM7.23 7.79A.22.22 0 1 0 7 7.57a.22.22 0 0 0 .23.22zM8.67 7.86a.3.3 0 0 0 0-.59.3.3 0 1 0 0 .59z" class="cls-1"/><circle cx="10.11" cy="7.57" r=".41" class="cls-1"/><path d="M11.55 8a.39.39 0 1 0 0-.77.39.39 0 1 0 0 .77zM13 7.89a.33.33 0 0 0 .32-.32.32.32 0 0 0-.32-.32.32.32 0 0 0-.32.32.32.32 0 0 0 .32.32zM14.43 7.89a.33.33 0 0 0 .32-.32.32.32 0 0 0-.32-.32.32.32 0 0 0-.32.32.32.32 0 0 0 .32.32z" class="cls-1"/><circle cx="15.87" cy="7.57" r=".19" class="cls-1"/><path d="M17.31 7.85a.28.28 0 0 0 .29-.28.29.29 0 1 0-.58 0 .28.28 0 0 0 .29.28zM18.75 7.79a.22.22 0 0 0 .25-.22.23.23 0 1 0-.22.22zM20.19 7.85a.29.29 0 0 0 0-.57.29.29 0 1 0 0 .57z" class="cls-1"/><circle cx="21.63" cy="7.57" r=".22" class="cls-1"/><path d="M1.47 9.44A.43.43 0 0 0 1.9 9a.44.44 0 0 0-.43-.44A.44.44 0 0 0 1 9a.44.44 0 0 0 .47.44zM2.91 9.44A.43.43 0 1 0 2.48 9a.43.43 0 0 0 .43.44zM4.35 9.29A.28.28 0 0 0 4.64 9a.29.29 0 1 0-.58 0 .28.28 0 0 0 .29.29zM5.79 9.18A.18.18 0 0 0 6 9a.18.18 0 0 0-.17-.18.18.18 0 0 0-.22.18.18.18 0 0 0 .18.18zM7.23 9.22A.22.22 0 0 0 7.44 9a.21.21 0 0 0-.21-.21A.21.21 0 0 0 7 9a.21.21 0 0 0 .23.22z" class="cls-1"/><circle cx="8.67" cy="9.01" r=".22" class="cls-1"/><path d="M10.11 9.33a.32.32 0 0 0 .32-.33.32.32 0 0 0-.32-.33.33.33 0 0 0-.33.33.32.32 0 0 0 .33.33zM11.55 9.34a.33.33 0 0 0 .33-.34.33.33 0 0 0-.33-.33.32.32 0 0 0-.33.33.33.33 0 0 0 .33.34zM13 9.45a.44.44 0 0 0 .43-.45.44.44 0 0 0-.88 0 .44.44 0 0 0 .45.45zM14.43 9.41A.4.4 0 1 0 14 9a.4.4 0 0 0 .43.41zM15.87 9.37a.36.36 0 1 0-.36-.37.36.36 0 0 0 .36.37zM17.31 9.34a.33.33 0 0 0 .33-.34.33.33 0 1 0-.64 0 .33.33 0 0 0 .31.34zM18.75 9.08a.08.08 0 0 0 .07-.08.07.07 0 1 0-.14 0 .08.08 0 0 0 .07.08zM20.19 9.12a.11.11 0 1 0-.11-.12.11.11 0 0 0 .11.12zM21.63 9.23a.22.22 0 1 0-.22-.23.22.22 0 0 0 .22.23zM23.07 9.37a.36.36 0 0 0 .36-.37.37.37 0 0 0-.36-.37.38.38 0 0 0-.37.37.37.37 0 0 0 .37.37zM1.47 10.93a.48.48 0 0 0 .53-.48.49.49 0 0 0-1 0 .48.48 0 0 0 .47.48zM2.91 10.64a.18.18 0 0 0 .19-.19.19.19 0 0 0-.19-.2.2.2 0 0 0-.2.2.19.19 0 0 0 .2.19zM4.35 10.69a.24.24 0 0 0 .24-.24.24.24 0 0 0-.48 0 .24.24 0 0 0 .24.24zM5.79 11a.51.51 0 0 0 .5-.5.5.5 0 0 0-.5-.5.5.5 0 0 0-.5.5.5.5 0 0 0 .5.5zM7.23 10.82a.38.38 0 0 0 .37-.37.37.37 0 0 0-.37-.37.36.36 0 0 0-.37.37.37.37 0 0 0 .37.37zM8.67 10.85a.4.4 0 1 0-.4-.4.4.4 0 0 0 .4.4zM10.11 10.85a.41.41 0 1 0 0-.81.41.41 0 1 0 0 .81z" class="cls-1"/><circle cx="11.55" cy="10.45" r=".28" class="cls-1"/><path d="M13 10.78a.33.33 0 0 0 .33-.33.33.33 0 0 0-.33-.33.32.32 0 0 0-.33.33.33.33 0 0 0 .33.33zM14.43 10.83a.39.39 0 1 0 0-.77.39.39 0 1 0 0 .77zM15.87 10.81a.36.36 0 1 0-.36-.36.36.36 0 0 0 .36.36zM17.31 10.84a.38.38 0 0 0 .39-.39.39.39 0 0 0-.39-.4.4.4 0 0 0-.4.4.39.39 0 0 0 .4.39zM18.75 10.89a.45.45 0 1 0-.45-.44.45.45 0 0 0 .45.44zM20.19 10.49h-.08.08z" class="cls-1"/><circle cx="21.63" cy="10.45" r=".11" class="cls-1"/><path d="M0 11.92zM2.91 12a.11.11 0 0 0 .09-.11.11.11 0 0 0-.11-.12.12.12 0 0 0-.12.12.11.11 0 0 0 .14.11zM4.35 12.33a.45.45 0 1 0-.45-.44.44.44 0 0 0 .45.44zM5.79 12.32a.43.43 0 0 0 .43-.43.44.44 0 0 0-.43-.44.44.44 0 0 0-.44.44.44.44 0 0 0 .44.43zM7.23 12.21a.33.33 0 0 0 .32-.32.32.32 0 0 0-.32-.32.32.32 0 0 0-.32.32.32.32 0 0 0 .32.32zM8.67 12.27a.39.39 0 1 0 0-.77.39.39 0 1 0 0 .77zM10.11 12.22a.33.33 0 0 0 .33-.33.33.33 0 0 0-.33-.33.32.32 0 0 0-.33.33.33.33 0 0 0 .33.33zM11.55 12.17a.29.29 0 0 0 0-.57.29.29 0 1 0 0 .57zM13 12.26a.38.38 0 0 0 .37-.37.37.37 0 0 0-.37-.37.36.36 0 0 0-.37.37.37.37 0 0 0 .37.37zM14.43 12.22a.34.34 0 0 0 0-.67.34.34 0 1 0 0 .67zM15.87 12.3a.41.41 0 0 0 .41-.41.41.41 0 0 0-.41-.42.42.42 0 0 0-.42.42.41.41 0 0 0 .42.41zM17.31 12.37a.49.49 0 0 0 .48-.48.48.48 0 0 0-.48-.48.47.47 0 0 0-.48.48.48.48 0 0 0 .48.48zM18.75 12.37a.48.48 0 0 0 .49-.48.49.49 0 1 0-1 0 .48.48 0 0 0 .51.48zM20.19 12a.07.07 0 1 0-.07-.07.07.07 0 0 0 .07.07zM21.63 11.9zM1.47 13.38l.05-.05a.06.06 0 0 0-.05-.06.06.06 0 0 0-.06.06.06.06 0 0 0 .06.05zM2.91 13.85a.52.52 0 0 0 .52-.52.52.52 0 0 0-.52-.53.53.53 0 0 0-.53.53.52.52 0 0 0 .53.52zM4.35 13.77a.45.45 0 1 0-.45-.44.44.44 0 0 0 .45.44zM5.79 13.73a.41.41 0 0 0 0-.81.41.41 0 1 0 0 .81zM7.23 13.74a.41.41 0 0 0 .41-.41.41.41 0 0 0-.41-.42.42.42 0 0 0-.42.42.41.41 0 0 0 .42.41zM8.67 13.79a.47.47 0 1 0-.47-.46.47.47 0 0 0 .47.46zM10.11 13.68a.35.35 0 0 0 .35-.35.35.35 0 0 0-.35-.35.34.34 0 0 0-.35.35.35.35 0 0 0 .35.35zM11.55 13.63a.31.31 0 0 0 .3-.3.3.3 0 0 0-.3-.3.29.29 0 0 0-.3.3.3.3 0 0 0 .3.3zM13 13.68a.35.35 0 0 0 .35-.35A.35.35 0 0 0 13 13a.34.34 0 0 0-.35.35.35.35 0 0 0 .35.33z" class="cls-1"/><circle cx="14.43" cy="13.33" r=".41" class="cls-1"/><path d="M15.87 13.79a.47.47 0 0 0 0-.93.47.47 0 1 0 0 .93z" class="cls-1"/><circle cx="17.31" cy="13.33" r=".5" class="cls-1"/><path d="M18.75 13.77a.44.44 0 0 0 .44-.44.44.44 0 0 0-.44-.44.43.43 0 0 0-.44.44.44.44 0 0 0 .44.44zM20.19 13.72a.4.4 0 0 0 0-.79.4.4 0 1 0 0 .79z" class="cls-1"/><circle cx="21.63" cy="13.33" r=".37" class="cls-1"/><path d="M1.47 15.21a.45.45 0 1 0-.47-.44.44.44 0 0 0 .47.44zM2.91 14.82v-.05a.06.06 0 0 0 0-.06.06.06 0 0 0-.06.06.06.06 0 0 0 .06.05zM4.35 15.21a.45.45 0 1 0-.45-.44.44.44 0 0 0 .45.44zM5.79 15.15a.39.39 0 1 0 0-.77.39.39 0 1 0 0 .77zM7.23 15.27a.51.51 0 0 0 0-1 .51.51 0 1 0 0 1zM8.67 15.18a.41.41 0 0 0 .41-.41.41.41 0 0 0-.82 0 .41.41 0 0 0 .41.41zM10.11 15.09a.33.33 0 0 0 .32-.32.32.32 0 0 0-.32-.32.32.32 0 0 0-.32.32.32.32 0 0 0 .32.32zM11.55 15.11a.34.34 0 0 0 .34-.34.35.35 0 0 0-.34-.35.35.35 0 0 0-.35.35.35.35 0 0 0 .35.34zM13 15a.21.21 0 1 0 0-.41.21.21 0 0 0-.21.21.2.2 0 0 0 .21.2zM14.43 14.94a.17.17 0 0 0 .17-.17.17.17 0 0 0-.17-.18.18.18 0 0 0-.18.18.18.18 0 0 0 .18.17zM15.87 15.23a.45.45 0 0 0 .46-.46.46.46 0 0 0-.46-.47.47.47 0 0 0-.47.47.46.46 0 0 0 .47.46zM17.31 15.07a.3.3 0 0 0 .31-.3.31.31 0 0 0-.62 0 .3.3 0 0 0 .31.3zM18.75 15.26a.49.49 0 1 0-.49-.49.49.49 0 0 0 .49.49zM20.19 14.82v-.05a.05.05 0 1 0-.1 0l.1.05zM23.07 14.78zM1.47 16.34a.13.13 0 0 0 .13-.13.13.13 0 0 0-.13-.14.14.14 0 0 0-.14.14.13.13 0 0 0 .14.13zM2.91 16.32a.11.11 0 0 0 .09-.11.11.11 0 0 0-.11-.12.12.12 0 0 0-.12.12.11.11 0 0 0 .14.11zM4.35 16.36a.15.15 0 0 0 .15-.15.16.16 0 0 0-.15-.16.16.16 0 0 0-.16.16.16.16 0 0 0 .16.15zM5.79 16.67a.47.47 0 0 0 .46-.46.46.46 0 0 0-.46-.46.45.45 0 0 0-.46.46.46.46 0 0 0 .46.46zM7.23 16.68a.47.47 0 1 0-.47-.47.47.47 0 0 0 .47.47z" class="cls-1"/><circle cx="8.67" cy="16.21" r=".41" class="cls-1"/><path d="M10.11 16.64a.43.43 0 0 0 .43-.43.44.44 0 0 0-.43-.44.44.44 0 0 0-.44.44.44.44 0 0 0 .44.43zM11.55 16.53a.33.33 0 0 0 .32-.32.32.32 0 0 0-.32-.32.32.32 0 0 0-.32.32.32.32 0 0 0 .32.32zM13 16.38a.18.18 0 0 0 .17-.17A.18.18 0 0 0 13 16a.18.18 0 0 0-.18.18.18.18 0 0 0 .18.2zM14.43 16.55a.34.34 0 0 0 .34-.34.34.34 0 1 0-.68 0 .34.34 0 0 0 .34.34zM15.87 16.59a.39.39 0 0 0 0-.77.39.39 0 1 0 0 .77zM17.31 16.59a.38.38 0 1 0-.38-.38.38.38 0 0 0 .38.38zM18.75 16.26l.05-.05a.06.06 0 0 0-.05-.06.06.06 0 0 0-.06.06.06.06 0 0 0 .06.05z" class="cls-1"/><circle cx="20.19" cy="16.21" r=".37" class="cls-1"/><path d="M4.35 17.7l.05-.05a.05.05 0 1 0-.1 0l.05.05zM5.79 18.14a.49.49 0 1 0-.49-.49.49.49 0 0 0 .49.49zM7.23 18.09a.45.45 0 1 0-.45-.44.44.44 0 0 0 .45.44zM8.67 18a.38.38 0 0 0 .38-.38.39.39 0 0 0-.38-.39.4.4 0 0 0-.39.39.39.39 0 0 0 .39.38zM10.11 17.75a.1.1 0 0 0 .1-.1.1.1 0 0 0-.1-.11.11.11 0 0 0-.11.11.11.11 0 0 0 .11.1zM11.55 17.93a.28.28 0 0 0 .29-.28.29.29 0 0 0-.58 0 .28.28 0 0 0 .29.28zM13 17.81a.16.16 0 1 0-.16-.16.16.16 0 0 0 .16.16zM14.43 18a.33.33 0 0 0 .33-.33.33.33 0 1 0-.66 0 .33.33 0 0 0 .33.33zM15.87 17.74a.09.09 0 0 0 .09-.09.09.09 0 0 0-.09-.1.09.09 0 0 0-.1.1.09.09 0 0 0 .1.09zM17.31 17.94a.29.29 0 1 0-.29-.29.29.29 0 0 0 .29.29zM18.75 17.94a.29.29 0 1 0-.29-.29.29.29 0 0 0 .29.29zM20.19 17.66s-.01 0 0 0zM4.35 19.2a.11.11 0 0 0 .11-.11.11.11 0 0 0-.11-.09.12.12 0 0 0-.12.12.11.11 0 0 0 .12.08zM5.79 19.17a.09.09 0 0 0 .08-.08.09.09 0 0 0-.08-.09.09.09 0 0 0-.09.09.09.09 0 0 0 .09.08zM7.23 19.37a.29.29 0 0 0 .28-.28.28.28 0 0 0-.28-.28.27.27 0 0 0-.28.28.28.28 0 0 0 .28.28z" class="cls-1"/><circle cx="8.67" cy="19.09" r=".5" class="cls-1"/><circle cx="10.11" cy="19.09" r=".2" class="cls-1"/><circle cx="11.55" cy="19.09" r=".1" class="cls-1"/><path d="M13 19.52a.43.43 0 1 0-.43-.43.43.43 0 0 0 .43.43zM14.43 19.31a.22.22 0 0 0 .22-.22.23.23 0 1 0-.22.22zM15.87 19.31a.22.22 0 1 0-.22-.22.22.22 0 0 0 .22.22zM17.31 19.31a.22.22 0 1 0-.22-.22.22.22 0 0 0 .22.22z" class="cls-1"/><circle cx="18.75" cy="19.09" r=".36" class="cls-1"/><circle cx="20.19" cy="19.09" class="cls-1"/><path d="M5.79 20.54zM7.23 20.6a.07.07 0 1 0-.07-.07.07.07 0 0 0 .07.07zM8.67 20.72a.19.19 0 0 0 .19-.19.19.19 0 0 0-.19-.2.2.2 0 1 0 0 .39zM10.11 21a.47.47 0 0 0 .48-.48.48.48 0 0 0-.48-.49.49.49 0 0 0-.49.49.48.48 0 0 0 .49.48zM11.55 21a.48.48 0 0 0 .49-.48.49.49 0 1 0-1 0 .48.48 0 0 0 .51.48zM13 20.68a.15.15 0 0 0 .15-.15.15.15 0 0 0-.15-.15.14.14 0 0 0-.15.15.15.15 0 0 0 .15.15zM14.43 20.67a.15.15 0 0 0 .14-.14.14.14 0 0 0-.14-.14.14.14 0 0 0-.14.14.14.14 0 0 0 .14.14zM15.87 20.67a.14.14 0 0 0 .14-.14.14.14 0 1 0-.28 0 .14.14 0 0 0 .14.14zM17.31 20.81a.28.28 0 0 0 .29-.28.29.29 0 1 0-.58 0 .28.28 0 0 0 .29.28zM8.67 22zM14.43 22.15a.18.18 0 1 0-.18-.18.18.18 0 0 0 .18.18zM15.87 22zM17.31 22l.05-.05a.06.06 0 0 0-.05-.06.06.06 0 0 0-.06.06.06.06 0 0 0 .06.05z" class="cls-1"/></g></g></svg>