<svg id="Layer_1" data-name="Layer 1" xmlns="http://www.w3.org/2000/svg" xmlns:xlink="http://www.w3.org/1999/xlink" viewBox="0 0 2364.49 1429.36"><defs><linearGradient id="linear-gradient" x1="1580.52" y1="996.64" x2="1821.44" y2="1242.15" gradientTransform="matrix(1, 0, 0, -1, 0, 1430)" gradientUnits="userSpaceOnUse"><stop offset="0.1" stop-color="#475569"/><stop offset="0.4" stop-color="#475569"/><stop offset="0.73" stop-color="#64748b"/><stop offset="1" stop-color="#94a3b8"/></linearGradient><linearGradient id="linear-gradient-2" x1="1486.49" y1="562.23" x2="2179.92" y2="1445.57" gradientTransform="matrix(1, 0, 0, -1, 0, 1430)" gradientUnits="userSpaceOnUse"><stop offset="0.09" stop-color="#475569"/><stop offset="0.4" stop-color="#475569"/><stop offset="0.73" stop-color="#64748b"/><stop offset="1" stop-color="#94a3b8"/></linearGradient><linearGradient id="linear-gradient-3" x1="28.63" y1="-282.27" x2="774.15" y2="702.88" gradientTransform="matrix(1, 0, 0, -1, 0, 1430)" gradientUnits="userSpaceOnUse"><stop offset="0.1" stop-color="#475569"/><stop offset="0.4" stop-color="#475569"/><stop offset="0.73" stop-color="#64748b"/><stop offset="1" stop-color="#64748b"/></linearGradient><linearGradient id="linear-gradient-4" x1="1326.22" y1="276.53" x2="1308.47" y2="667.04" gradientTransform="matrix(1, 0, 0, -1, 0, 1430)" gradientUnits="userSpaceOnUse"><stop offset="0.1" stop-color="#475569"/><stop offset="0.4" stop-color="#64748b"/><stop offset="0.73" stop-color="#64748b"/><stop offset="1" stop-color="#64748b"/></linearGradient><linearGradient id="linear-gradient-5" x1="588.94" y1="329.92" x2="2311.12" y2="935.62" xlink:href="#linear-gradient"/><linearGradient id="linear-gradient-6" x1="2407.39" y1="1367.99" x2="2170.2" y2="1118.73" xlink:href="#linear-gradient"/><linearGradient id="linear-gradient-7" x1="2082.5" y1="876.48" x2="2424.26" y2="1238.2" gradientTransform="matrix(1, 0, 0, -1, 0, 1430)" gradientUnits="userSpaceOnUse"><stop offset="0.1" stop-color="#475569"/><stop offset="0.4" stop-color="#475569"/><stop offset="0.73" stop-color="#94a3b8"/><stop offset="1" stop-color="#9383e7"/></linearGradient></defs><title>growth</title><path d="M1751.18,421.09H1595.72L1528,325.29h155.45l67.77,95.8Z" opacity="0.8" fill="url(#linear-gradient)" style="isolation:isolate"/><path d="M2141.27,325.29,1640,962.29,1411.36,671l272.05-345.69H1528L2167.6,0l129.12,325.29Z" fill="url(#linear-gradient-2)"/><path d="M1232.16,442.62l-774.3,986.74H0L774.31,442.62Z" opacity="0.9" fill="url(#linear-gradient-3)" style="isolation:isolate"/><path d="M1639.88,1161.7H1182L1002.93,933.48,1232.09,642l407.79,519.67Z" opacity="0.65" fill="url(#linear-gradient-4)" style="isolation:isolate"/><path d="M1639.88,1161.7,1232.16,642.13,614.41,1429.36H457.86l228.93-291.74,545.37-695L1640,962.29l501.31-637,67.77,95.8L1639.88,1161.7Z" opacity="0.89" fill="url(#linear-gradient-5)" style="isolation:isolate"/><path d="M2364.49,421.09l-67.77-95.8L2167.6,0l67.77,95.8,129.12,325.29Z" fill="url(#linear-gradient-6)"/><path d="M2364.49,421.09H2209l-67.77-95.8h155.45l67.77,95.8Z" opacity="0.8" fill="url(#linear-gradient-7)" style="isolation:isolate"/></svg>