<?xml version="1.0" encoding="utf-8"?>
<svg viewBox="57.826 200.875 320.425 100.002" width="320.425" height="100.002" xmlns="http://www.w3.org/2000/svg">
  <path d="M 226.702 226.002 C 226.702 229.606 223.797 232.508 220.193 232.508 C 216.589 232.508 213.687 229.606 213.687 226.002 C 213.687 222.398 216.49 219.496 220.193 219.496 C 223.899 219.596 226.701 222.499 226.701 226.002 Z M 199.872 239.116 L 199.872 240.718 C 199.872 240.718 196.77 236.712 190.163 236.712 C 179.253 236.712 170.743 245.021 170.743 256.532 C 170.743 267.944 179.153 276.352 190.163 276.352 C 196.87 276.352 199.873 272.248 199.873 272.248 L 199.873 273.948 C 199.873 274.75 200.474 275.348 201.274 275.348 L 209.381 275.348 L 209.381 237.71 L 201.274 237.71 C 200.474 237.713 199.872 238.415 199.872 239.116 Z M 199.872 263.239 C 198.372 265.442 195.368 267.344 191.765 267.344 C 185.359 267.344 180.453 263.34 180.453 256.532 C 180.453 249.725 185.359 245.721 191.765 245.721 C 195.269 245.721 198.472 247.723 199.872 249.825 L 199.872 263.239 Z M 215.388 237.713 L 224.998 237.713 L 224.998 275.352 L 215.388 275.352 L 215.388 237.712 Z M 358.933 236.711 C 352.326 236.711 349.223 240.717 349.223 240.717 L 349.223 219.596 L 339.613 219.596 L 339.613 275.352 L 347.723 275.352 C 348.523 275.352 349.123 274.651 349.123 273.95 L 349.123 272.249 C 349.123 272.249 352.226 276.353 358.831 276.353 C 369.743 276.353 378.251 267.947 378.251 256.535 C 378.251 245.123 369.743 236.711 358.933 236.711 Z M 357.331 267.243 C 353.626 267.243 350.724 265.343 349.222 263.139 L 349.222 249.725 C 350.724 247.723 353.927 245.621 357.332 245.621 C 363.737 245.621 368.642 249.625 368.642 256.431 C 368.642 263.237 363.738 267.243 357.332 267.243 Z M 334.609 253.03 L 334.609 275.452 L 324.999 275.452 L 324.999 254.13 C 324.999 247.925 322.996 245.42 317.594 245.42 C 314.692 245.42 311.688 246.923 309.784 249.126 L 309.784 275.353 L 300.176 275.353 L 300.176 237.713 L 307.781 237.713 C 308.582 237.713 309.183 238.415 309.183 239.116 L 309.183 240.718 C 311.986 237.814 315.689 236.712 319.393 236.712 C 323.597 236.712 327.101 237.915 329.904 240.317 C 333.306 243.12 334.609 246.723 334.609 253.03 Z M 276.849 236.71 C 270.244 236.71 267.14 240.717 267.14 240.717 L 267.14 219.596 L 257.531 219.596 L 257.531 275.352 L 265.638 275.352 C 266.439 275.352 267.04 274.651 267.04 273.95 L 267.04 272.249 C 267.04 272.249 270.144 276.353 276.75 276.353 C 287.661 276.353 296.17 267.947 296.17 256.535 C 296.27 245.122 287.761 236.711 276.85 236.711 Z M 275.247 267.243 C 271.544 267.243 268.642 265.343 267.14 263.139 L 267.14 249.725 C 268.642 247.723 271.845 245.621 275.247 245.621 C 281.655 245.621 286.559 249.625 286.559 256.431 C 286.559 263.237 281.655 267.243 275.247 267.243 Z M 249.222 236.711 C 252.124 236.711 253.626 237.213 253.626 237.213 L 253.626 246.121 C 253.626 246.121 245.618 243.418 240.614 249.125 L 240.614 275.451 L 231.004 275.451 L 231.004 237.712 L 239.112 237.712 C 239.913 237.712 240.512 238.412 240.512 239.114 L 240.512 240.716 C 242.316 238.613 246.22 236.71 249.222 236.71 Z M 149.423 271.948 C 148.923 270.747 148.423 269.446 147.923 268.344 C 147.12 266.543 146.319 264.84 145.62 263.239 L 145.52 263.139 C 138.612 248.123 131.206 232.909 123.397 217.895 L 123.097 217.293 C 122.276 215.735 121.476 214.167 120.697 212.588 C 119.694 210.785 118.694 208.885 117.092 207.082 C 113.889 203.078 109.284 200.875 104.38 200.875 C 99.374 200.875 94.87 203.078 91.568 206.881 C 90.066 208.681 88.964 210.584 87.964 212.387 C 87.183 213.965 86.383 215.533 85.564 217.092 L 85.262 217.694 C 77.554 232.708 70.047 247.923 63.14 262.938 L 63.04 263.137 C 62.34 264.741 61.537 266.442 60.736 268.242 C 60.236 269.344 59.736 270.545 59.236 271.846 C 57.934 275.549 57.533 279.053 58.036 282.658 C 59.136 290.166 64.14 296.47 71.048 299.275 C 73.651 300.377 76.354 300.877 79.156 300.877 C 79.957 300.877 80.957 300.777 81.759 300.676 C 85.063 300.276 88.466 299.176 91.77 297.274 C 95.874 294.971 99.778 291.669 104.182 286.864 C 108.586 291.669 112.59 294.971 116.594 297.274 C 119.899 299.176 123.301 300.276 126.604 300.676 C 127.405 300.778 128.407 300.876 129.208 300.876 C 132.011 300.876 134.813 300.376 137.315 299.275 C 144.323 296.47 149.227 290.065 150.329 282.658 C 151.124 279.155 150.724 275.653 149.423 271.948 Z M 104.279 277.153 C 98.873 270.346 95.369 263.94 94.169 258.536 C 93.669 256.233 93.569 254.231 93.869 252.429 C 94.069 250.827 94.67 249.425 95.471 248.224 C 97.373 245.523 100.576 243.82 104.281 243.82 C 107.985 243.82 111.288 245.422 113.091 248.224 C 113.891 249.424 114.491 250.828 114.693 252.429 C 114.993 254.232 114.893 256.333 114.393 258.536 C 113.187 263.84 109.683 270.246 104.279 277.153 Z M 144.217 281.858 C 143.517 287.063 140.013 291.568 135.109 293.571 C 132.707 294.571 130.103 294.871 127.502 294.571 C 125 294.27 122.496 293.469 119.895 291.969 C 116.291 289.965 112.688 286.864 108.483 282.258 C 115.089 274.151 119.093 266.742 120.595 260.137 C 121.296 257.033 121.397 254.231 121.095 251.627 C 120.696 249.125 119.795 246.822 118.393 244.82 C 115.288 240.314 110.083 237.713 104.278 237.713 C 98.473 237.713 93.268 240.416 90.165 244.82 C 88.765 246.822 87.862 249.125 87.462 251.627 C 87.062 254.231 87.162 257.133 87.962 260.137 C 89.463 266.742 93.567 274.25 100.073 282.357 C 95.969 286.963 92.265 290.067 88.661 292.069 C 86.058 293.571 83.557 294.372 81.055 294.671 C 78.353 294.971 75.749 294.571 73.447 293.671 C 68.543 291.669 65.039 287.163 64.339 281.958 C 64.039 279.456 64.239 276.954 65.24 274.151 C 65.54 273.149 66.041 272.149 66.541 270.948 C 67.242 269.346 68.041 267.643 68.843 265.942 L 68.944 265.742 C 75.85 250.827 83.257 235.612 90.965 220.798 L 91.265 220.196 C 92.067 218.696 92.868 217.094 93.668 215.592 C 94.469 213.99 95.369 212.488 96.471 211.186 C 98.573 208.786 101.375 207.483 104.479 207.483 C 107.583 207.483 110.385 208.786 112.487 211.186 C 113.589 212.491 114.489 213.993 115.29 215.592 C 116.092 217.094 116.893 218.696 117.692 220.196 L 117.993 220.798 C 125.583 235.673 132.892 250.691 139.915 265.843 L 139.915 265.943 C 140.717 267.547 141.417 269.347 142.218 270.951 C 142.718 272.15 143.219 273.15 143.519 274.151 C 144.319 276.751 144.619 279.256 144.217 281.858 Z" style="fill: rgb(113, 128, 150);"/>
</svg>