<?xml version="1.0" encoding="utf-8"?>
<svg viewBox="28.958 358.44 150 56.325" width="150" height="56.325" xmlns="http://www.w3.org/2000/svg">
  <path d="M 77.42 379.101 C 74.484 379.101 71.206 380.232 70.52 383.955 C 70.446 384.35 70.708 384.539 70.961 384.596 L 73.971 384.957 C 74.249 384.943 74.437 384.64 74.491 384.355 C 74.748 383.075 75.802 382.469 76.979 382.469 C 77.615 382.469 78.329 382.687 78.705 383.272 C 79.136 383.922 79.105 384.807 79.105 385.558 L 79.105 386 C 77.317 386.205 74.963 386.33 73.289 387.083 C 71.356 387.943 70 389.689 70 392.258 C 70 395.549 72.016 397.193 74.613 397.193 C 76.806 397.193 78.018 396.678 79.709 394.906 C 80.27 395.741 80.449 396.119 81.474 396.992 C 81.706 397.125 81.997 397.092 82.195 396.913 L 82.195 396.953 C 82.811 396.39 83.932 395.368 84.562 394.827 C 84.814 394.617 84.759 394.27 84.562 393.985 C 83.999 393.186 83.399 392.542 83.399 391.056 L 83.399 386.122 C 83.399 384.032 83.577 382.105 82.076 380.666 C 80.891 379.501 78.919 379.101 77.42 379.101 Z M 117.858 379.101 C 114.921 379.101 111.646 380.232 110.958 383.955 C 110.884 384.35 111.145 384.539 111.399 384.596 L 114.409 384.957 C 114.687 384.943 114.877 384.64 114.93 384.355 C 115.188 383.075 116.24 382.469 117.417 382.469 C 118.054 382.469 118.767 382.687 119.143 383.272 C 119.573 383.922 119.504 384.807 119.504 385.558 L 119.504 386 C 117.715 386.205 115.402 386.33 113.727 387.083 C 111.793 387.943 110.438 389.689 110.438 392.258 C 110.438 395.549 112.456 397.193 115.052 397.193 C 117.242 397.193 118.453 396.678 120.147 394.906 C 120.707 395.741 120.887 396.119 121.912 396.992 C 122.144 397.125 122.435 397.093 122.633 396.913 L 122.633 396.953 C 123.25 396.39 124.37 395.368 125.001 394.827 C 125.251 394.617 125.193 394.27 125.001 393.985 C 124.437 393.186 123.838 392.542 123.838 391.056 L 123.838 386.122 C 123.838 384.032 123.972 382.105 122.474 380.666 C 121.288 379.501 119.357 379.101 117.858 379.101 Z M 95.111 379.261 C 93.214 379.261 91.807 380.219 91.059 382.271 L 91.02 382.271 L 91.02 380.144 C 90.998 379.843 90.758 379.603 90.457 379.582 L 87.569 379.582 C 87.238 379.586 86.971 379.853 86.967 380.184 L 86.967 396.431 C 86.995 396.729 87.231 396.965 87.529 396.994 L 90.619 396.994 C 90.949 396.989 91.216 396.722 91.22 396.392 L 91.22 387.766 C 91.22 385.886 91.13 383.313 93.346 383.313 C 95.536 383.313 95.232 385.956 95.232 387.766 L 95.232 396.392 C 95.232 396.698 95.482 396.973 95.794 396.994 L 98.884 396.994 C 99.214 396.989 99.481 396.722 99.485 396.392 L 99.485 387.766 C 99.485 386.843 99.448 385.499 99.766 384.677 C 100.083 383.857 100.862 383.314 101.612 383.314 C 102.505 383.314 103.187 383.626 103.417 384.718 C 103.561 385.368 103.497 387.084 103.497 387.768 L 103.497 396.393 C 103.497 396.7 103.747 396.974 104.059 396.995 L 107.147 396.995 C 107.478 396.991 107.746 396.724 107.75 396.393 L 107.75 386.123 C 107.75 384.378 107.925 382.397 106.947 381.028 C 106.083 379.798 104.671 379.262 103.377 379.262 C 101.562 379.262 99.874 380.22 99.125 382.272 C 98.26 380.22 97.04 379.262 95.111 379.262 Z M 147.625 379.261 C 143.162 379.261 140.685 383.186 140.685 388.247 C 140.685 393.275 143.135 397.313 147.625 397.313 C 151.945 397.313 154.686 393.367 154.686 388.407 C 154.686 383.281 152.203 379.261 147.626 379.261 Z M 165.236 379.261 C 163.104 379.261 161.886 380.328 161.024 382.551 L 160.984 382.551 L 160.984 380.062 C 160.929 379.812 160.691 379.636 160.422 379.622 L 157.573 379.622 C 157.268 379.615 157.008 379.84 156.971 380.142 L 156.971 396.389 C 156.976 396.704 157.219 396.964 157.533 396.991 L 160.583 396.991 C 160.913 396.985 161.179 396.719 161.184 396.389 L 161.184 387.644 C 161.184 386.548 161.277 385.548 161.706 384.555 C 162.052 383.768 162.721 383.272 163.471 383.272 C 165.599 383.272 165.396 385.866 165.396 387.644 L 165.396 396.47 C 165.436 396.755 165.671 396.972 165.959 396.991 L 169.047 396.991 C 169.349 396.99 169.605 396.769 169.65 396.471 L 169.65 386.241 C 169.65 384.667 169.653 382.482 168.847 381.184 C 167.983 379.784 166.617 379.261 165.237 379.261 Z M 128.168 379.542 C 127.854 379.542 127.608 379.792 127.605 380.144 L 127.605 382.471 C 127.607 382.818 127.847 383.071 128.168 383.073 L 133.463 383.073 L 127.405 392.019 C 127.035 392.595 127.005 393.249 127.005 393.624 L 127.005 395.991 C 127.005 396.332 127.376 396.704 127.726 396.512 C 131.178 394.628 135.316 394.795 138.438 396.472 C 138.816 396.679 139.2 396.292 139.2 395.952 L 139.2 393.463 C 139.182 393.09 138.968 392.754 138.638 392.58 C 136.866 391.561 134.81 391.25 132.861 391.296 L 138.117 383.594 C 138.603 382.902 138.875 382.485 138.879 382.15 L 138.879 380.144 C 138.879 379.799 138.643 379.542 138.317 379.542 L 128.168 379.542 Z M 147.625 382.592 C 148.605 382.592 149.325 383.028 149.672 384.156 C 150.072 385.457 150.113 387.08 150.113 388.449 C 150.113 390.534 150.016 393.985 147.625 393.985 C 145.208 393.985 145.218 389.712 145.218 387.726 C 145.218 385.746 145.351 382.591 147.625 382.591 Z M 79.065 388.529 L 79.065 389.21 C 79.065 390.444 79.109 391.482 78.502 392.58 C 78.012 393.472 77.242 394.024 76.376 394.024 C 75.196 394.024 74.49 393.067 74.49 391.698 C 74.491 389 76.836 388.529 79.064 388.529 Z M 119.502 388.529 L 119.502 389.21 C 119.502 390.444 119.547 391.482 118.94 392.58 C 118.45 393.472 117.683 394.024 116.814 394.024 C 115.632 394.024 114.928 393.067 114.928 391.698 C 114.93 389 117.271 388.529 119.502 388.529 Z M 139.522 397.515 L 139.522 399.841 L 141.086 399.841 L 141.086 397.515 L 139.521 397.515 Z M 94.148 397.915 L 94.148 414.483 L 95.592 414.483 L 95.592 412.999 C 95.902 413.587 96.252 414.029 96.676 414.323 C 97.1 414.618 97.586 414.765 98.12 414.765 C 99.181 414.765 100.096 414.223 100.888 413.12 C 101.68 412.017 102.092 410.42 102.092 408.386 C 102.092 407.054 101.922 405.952 101.572 405.016 C 101.22 404.083 100.752 403.388 100.166 402.93 C 99.581 402.471 98.916 402.208 98.201 402.208 C 97.704 402.203 97.216 402.342 96.797 402.609 C 96.379 402.876 96.042 403.311 95.713 403.853 L 95.713 397.915 L 94.148 397.915 Z M 108.992 401.808 C 107.904 401.808 107.04 402.13 106.425 402.771 C 105.81 403.411 105.502 404.235 105.502 405.258 C 105.502 405.853 105.635 406.355 105.862 406.823 C 106.09 407.293 106.417 407.668 106.825 407.947 C 107.236 408.225 108.055 408.591 109.272 408.989 C 110.114 409.26 110.617 409.491 110.837 409.671 C 111.155 409.934 111.318 410.279 111.318 410.754 C 111.318 411.304 111.128 411.762 110.756 412.118 C 110.386 412.476 109.869 412.639 109.191 412.639 C 108.513 412.639 107.955 412.449 107.547 412.037 C 107.138 411.625 106.918 410.998 106.825 410.151 L 105.26 410.472 C 105.613 413.046 106.897 414.324 109.112 414.323 C 110.293 414.323 111.196 413.988 111.879 413.281 C 112.562 412.573 112.922 411.618 112.922 410.472 C 112.922 409.853 112.813 409.316 112.602 408.867 C 112.408 408.445 112.103 408.085 111.718 407.825 C 111.336 407.565 110.488 407.219 109.19 406.782 C 108.248 406.452 107.696 406.212 107.506 406.062 C 107.186 405.807 107.024 405.46 107.024 405.018 C 107.024 404.566 107.174 404.184 107.506 403.895 C 107.838 403.606 108.35 403.453 109.031 403.453 C 110.227 403.453 110.896 404.111 111.036 405.419 L 112.561 405.179 C 112.456 404.35 112.275 403.696 111.999 403.252 C 111.704 402.787 111.288 402.412 110.795 402.168 C 110.276 401.905 109.679 401.808 108.992 401.808 Z M 118.582 401.808 C 117.326 401.808 116.269 402.324 115.452 403.412 C 114.633 404.502 114.247 406.077 114.247 408.147 C 114.247 410.141 114.641 411.703 115.451 412.761 C 116.261 413.817 117.311 414.326 118.621 414.326 C 119.661 414.326 120.524 414.014 121.228 413.363 C 121.932 412.713 122.443 411.754 122.712 410.474 L 121.107 410.194 C 120.647 411.834 119.797 412.637 118.619 412.64 C 117.869 412.64 117.257 412.322 116.733 411.637 C 116.209 410.952 115.913 409.935 115.85 408.588 L 122.75 408.588 L 122.75 408.026 C 122.75 406.002 122.347 404.482 121.546 403.412 C 120.748 402.343 119.776 401.808 118.581 401.808 Z M 128.088 401.808 C 127.713 401.808 127.386 401.935 127.085 402.208 C 126.785 402.482 126.445 403.049 126.083 403.893 L 126.083 402.046 L 124.678 402.046 L 124.678 414.042 L 126.243 414.042 L 126.243 407.785 C 126.243 406.912 126.325 406.072 126.524 405.297 C 126.637 404.853 126.851 404.502 127.127 404.255 C 127.403 404.007 127.717 403.895 128.05 403.895 C 128.418 403.895 128.784 404.041 129.173 404.335 L 129.694 402.45 C 129.147 402.013 128.612 401.808 128.088 401.808 Z M 147.263 401.808 C 146.025 401.808 145.004 402.329 144.215 403.373 C 143.428 404.415 143.01 405.981 143.01 408.066 C 143.01 410.134 143.431 411.702 144.215 412.759 C 144.996 413.816 145.975 414.324 147.183 414.324 C 148.18 414.324 149.038 413.954 149.75 413.201 C 150.463 412.449 150.896 411.342 151.074 409.912 L 149.549 409.672 C 149.436 410.694 149.169 411.429 148.746 411.917 C 148.324 412.403 147.816 412.639 147.221 412.639 C 146.464 412.639 145.819 412.286 145.335 411.555 C 144.851 410.825 144.615 409.657 144.615 408.025 C 144.615 406.443 144.869 405.302 145.376 404.575 C 145.883 403.846 146.529 403.451 147.302 403.451 C 147.818 403.451 148.258 403.651 148.626 404.053 C 148.996 404.454 149.24 405.09 149.388 405.899 L 150.913 405.579 C 150.73 404.315 150.324 403.361 149.669 402.729 C 149.014 402.097 148.22 401.809 147.263 401.809 Z M 156.21 401.808 C 154.956 401.808 153.898 402.324 153.08 403.412 C 152.262 404.502 151.876 406.077 151.876 408.147 C 151.876 410.141 152.27 411.703 153.08 412.761 C 153.891 413.817 154.94 414.326 156.25 414.326 C 157.288 414.326 158.152 414.014 158.857 413.363 C 159.561 412.713 160.071 411.754 160.341 410.474 L 158.736 410.194 C 158.276 411.834 157.463 412.637 156.29 412.64 C 155.54 412.64 154.888 412.322 154.364 411.637 C 153.84 410.952 153.545 409.935 153.481 408.588 L 160.381 408.588 L 160.381 408.026 C 160.381 406.002 159.978 404.482 159.177 403.412 C 158.381 402.343 157.407 401.808 156.21 401.808 Z M 165.477 401.808 C 164.387 401.808 163.525 402.13 162.91 402.771 C 162.294 403.411 161.987 404.235 161.987 405.258 C 161.987 405.853 162.081 406.355 162.308 406.823 C 162.534 407.291 162.86 407.668 163.271 407.947 C 163.679 408.225 164.502 408.591 165.717 408.989 C 166.557 409.26 167.103 409.491 167.322 409.671 C 167.64 409.934 167.803 410.279 167.803 410.754 C 167.803 411.304 167.613 411.762 167.241 412.118 C 166.871 412.476 166.354 412.639 165.676 412.639 C 164.997 412.639 164.44 412.449 164.032 412.037 C 163.624 411.625 163.36 410.998 163.269 410.151 L 161.704 410.472 C 162.057 413.046 163.339 414.324 165.556 414.323 C 166.738 414.323 167.68 413.988 168.364 413.281 C 169.049 412.573 169.407 411.618 169.407 410.472 C 169.407 409.853 169.298 409.316 169.087 408.867 C 168.874 408.418 168.544 408.085 168.163 407.825 C 167.783 407.565 166.973 407.219 165.675 406.782 C 164.733 406.452 164.141 406.212 163.95 406.062 C 163.63 405.807 163.468 405.46 163.468 405.018 C 163.468 404.566 163.658 404.184 163.989 403.895 C 164.322 403.606 164.837 403.453 165.515 403.453 C 166.711 403.453 167.38 404.111 167.52 405.419 L 169.045 405.179 C 168.938 404.35 168.76 403.696 168.483 403.252 C 168.188 402.787 167.771 402.412 167.278 402.168 C 166.764 401.905 166.163 401.808 165.478 401.808 Z M 129.693 402.048 L 133.183 414.043 L 134.667 414.043 L 138.158 402.048 L 136.553 402.048 L 134.507 409.39 C 134.259 410.277 134.041 411.043 133.905 411.676 C 133.735 410.879 133.571 410.042 133.342 409.229 L 131.337 402.049 L 129.693 402.049 Z M 139.521 402.048 L 139.521 414.043 L 141.086 414.043 L 141.086 402.048 L 139.521 402.048 Z M 88.091 402.208 C 86.851 402.208 85.851 402.765 85.043 403.853 C 84.233 404.941 83.799 406.518 83.799 408.587 C 83.799 410.581 84.199 412.103 85.003 413.16 C 85.806 414.216 86.876 414.765 88.173 414.765 C 89.203 414.765 90.043 414.413 90.74 413.762 C 91.436 413.112 91.917 412.153 92.184 410.874 L 90.619 410.632 C 90.163 412.272 89.335 413.076 88.172 413.079 C 87.429 413.079 86.805 412.761 86.287 412.076 C 85.768 411.391 85.467 410.374 85.403 409.028 L 92.223 409.028 L 92.263 408.465 C 92.263 406.441 91.853 404.881 91.058 403.812 C 90.265 402.742 89.274 402.208 88.091 402.208 Z M 70.481 402.489 L 73.289 414.485 L 74.933 414.485 L 76.779 405.257 L 77.1 407.303 L 78.584 414.485 L 80.189 414.485 L 83.037 402.489 L 81.553 402.489 L 79.988 409.429 L 79.468 411.755 L 78.986 409.429 L 77.622 402.489 L 76.018 402.489 L 74.574 409.51 L 74.092 411.998 L 73.53 409.431 L 72.086 402.491 L 70.48 402.491 Z M 170.331 402.61 L 170.331 403.172 L 171.856 403.172 L 171.856 407.184 L 172.458 407.184 L 172.458 403.172 L 173.983 403.172 L 173.983 402.61 L 170.331 402.61 Z M 174.584 402.61 L 174.584 407.183 L 175.147 407.183 L 175.147 403.293 L 176.47 407.183 L 177.032 407.183 L 178.356 403.371 L 178.356 407.183 L 178.958 407.183 L 178.958 402.61 L 178.116 402.61 L 177.032 405.82 C 176.923 406.14 176.845 406.373 176.792 406.541 L 176.55 405.859 L 175.466 402.61 L 174.584 402.61 Z M 118.539 403.452 C 119.319 403.452 119.961 403.83 120.465 404.575 C 120.812 405.086 121.036 405.865 121.107 406.902 L 115.932 406.902 C 115.982 405.849 116.279 405.036 116.774 404.414 C 117.27 403.791 117.84 403.452 118.539 403.452 Z M 156.17 403.452 C 156.947 403.452 157.591 403.83 158.096 404.575 C 158.442 405.086 158.667 405.865 158.738 406.902 L 153.563 406.902 C 153.613 405.849 153.909 405.036 154.405 404.414 C 154.899 403.794 155.469 403.452 156.17 403.452 Z M 88.091 403.894 C 88.862 403.894 89.481 404.271 89.977 405.017 C 90.32 405.528 90.549 406.307 90.619 407.343 L 85.524 407.343 C 85.574 406.291 85.834 405.438 86.326 404.816 C 86.816 404.194 87.397 403.894 88.091 403.894 Z M 98.041 403.894 C 98.736 403.894 99.328 404.28 99.806 405.017 C 100.283 405.755 100.487 406.893 100.487 408.468 C 100.487 410.002 100.261 411.146 99.767 411.919 C 99.27 412.691 98.68 413.082 98.041 413.082 C 97.571 413.082 97.143 412.924 96.757 412.6 C 96.369 412.277 96.085 411.813 95.874 411.196 C 95.662 410.578 95.554 409.628 95.554 408.387 C 95.554 406.925 95.814 405.83 96.315 405.057 C 96.817 404.284 97.401 403.894 98.041 403.894 Z" style="fill: rgb(113, 128, 150);"/>
  <path d="M 47.993 391.177 L 42.016 393.743 L 47.552 396.11 L 53.972 393.743 L 47.993 391.176 Z M 39.007 394.385 L 38.807 405.939 L 47.552 409.79 L 47.552 397.795 L 39.007 394.385 Z M 56.98 394.385 L 49.077 397.395 L 49.077 408.707 L 56.98 405.497 L 56.98 394.385 Z M 66.408 358.44 L 60.389 361.007 L 65.966 363.375 L 72.386 361.007 L 66.408 358.44 Z M 58.063 361.851 L 58.063 373.405 L 65.524 375.572 L 65.766 365.06 L 58.063 361.851 Z M 74.753 362.493 L 67.691 365.503 L 67.691 376.855 L 74.752 373.646 L 74.752 362.493 Z M 38.145 374.701 L 32.167 377.269 L 37.703 379.636 L 44.123 377.269 L 38.145 374.701 Z M 29.158 377.911 L 28.958 389.464 L 37.703 393.316 L 37.703 381.32 L 29.158 377.911 Z M 47.131 377.911 L 39.228 380.921 L 39.228 392.232 L 47.131 389.023 L 47.131 377.911 Z M 57.401 374.275 L 51.424 376.843 L 56.959 379.21 L 63.379 376.843 L 57.401 374.275 Z M 48.415 377.485 L 48.215 389.038 L 56.959 392.889 L 56.959 380.895 L 48.415 377.485 Z M 66.387 377.485 L 58.484 380.495 L 58.484 391.806 L 66.387 388.597 L 66.387 377.484 Z M 85.217 358.44 L 79.239 361.007 L 84.774 363.375 L 91.194 361.007 L 85.216 358.44 Z M 76.23 361.65 L 76.03 373.203 L 84.774 377.054 L 84.774 365.06 L 76.23 361.65 Z M 94.202 361.65 L 86.299 364.658 L 86.299 375.971 L 94.202 372.762 L 94.202 361.649 Z" style="fill: rgb(160, 174, 192);"/>
</svg>