<svg fill="none" height="60" viewBox="0 0 273 60" width="273" xmlns="http://www.w3.org/2000/svg"><path d="m89.2109 47.5156c2.6407 0 4.9453-.3906 6.9141-1.1718 1.9688-.7813 3.4922-1.9219 4.57-3.4219 1.078-1.5157 1.617-3.3047 1.617-5.3672 0-1.0469-.132-2-.398-2.8594s-.633-1.6094-1.102-2.25c-.468-.6562-1.0776-1.25-1.8276-1.7812-.7344-.5313-1.5391-.9922-2.4141-1.3829-.8594-.4062-1.8672-.7968-3.0234-1.1718l-7.4063-2.3672c-1.2187-.4063-2.1094-.9297-2.6718-1.5703-.5469-.6563-.8204-1.5078-.8204-2.5547 0-1.0781.3438-1.961 1.0313-2.6484.6875-.6876 1.5469-1.1641 2.5781-1.4297 1.0469-.2657 2.2813-.3985 3.7031-.3985 2.8438 0 5.5782.7578 8.2032 2.2735.3906.2343.7734.3515 1.1484.3515.5937 0 1.1015-.25 1.5235-.75s.633-1.0547.633-1.664c0-.2813-.055-.5391-.164-.7735-.094-.25-.25-.4609-.469-.6328-1.1251-.9531-2.7266-1.7656-4.8048-2.4375-2.0624-.6719-4.2265-1.0078-6.4921-1.0078-3.6407 0-6.6329.8359-8.9766 2.5078s-3.5156 3.9453-3.5156 6.8203c0 2.2969.5937 4.1172 1.7812 5.461 1.1875 1.3281 3.0625 2.4218 5.625 3.2812l7.4531 2.4844c1.6876.5625 2.8907 1.2031 3.6094 1.9219.7344.7187 1.1016 1.7578 1.1016 3.1172 0 1.5781-.6797 2.7734-2.0391 3.5859-1.3437.7969-3.1015 1.1953-5.2734 1.1953-3.4219 0-6.5703-.9922-9.4453-2.9766-.0938-.0625-.1953-.1093-.3047-.1406-.1094-.0312-.2188-.0469-.3281-.0469-.2813 0-.5782.1016-.8907.3047-.2968.2032-.5625.461-.7968.7735-.2344.2968-.4297.625-.586.9843-.1406.3594-.2109.6954-.2109 1.0078 0 .375.1172.6563.3516.8438 3.0312 2.5938 7.0703 3.8906 12.1171 3.8906zm29.3671-3.6797c-2.172 0-3.875-.75-5.109-2.25-1.219-1.5-1.828-3.5859-1.828-6.2578 0-2.7031.609-4.8125 1.828-6.3281 1.234-1.5156 2.937-2.2734 5.109-2.2734s3.867.7656 5.086 2.2968c1.234 1.5157 1.852 3.6172 1.852 6.3047 0 2.6719-.61 4.7578-1.828 6.2578-1.219 1.5-2.922 2.25-5.11 2.25zm0 3.4922c1.594 0 3.055-.2187 4.383-.6562 1.328-.4531 2.453-1.0547 3.375-1.8047.937-.7656 1.726-1.6641 2.367-2.6953.656-1.0313 1.133-2.1172 1.43-3.2578.312-1.1563.469-2.3516.469-3.586 0-1.625-.258-3.1562-.774-4.5937s-1.266-2.7188-2.25-3.8438c-.969-1.125-2.226-2.0078-3.773-2.6484-1.547-.6563-3.289-.9844-5.227-.9844-1.953 0-3.711.336-5.273 1.0078-1.563.6563-2.828 1.5547-3.797 2.6953-.953 1.125-1.688 2.4063-2.203 3.8438-.5 1.4219-.75 2.9297-.75 4.5234 0 1.5625.25 3.0547.75 4.4766.5 1.4062 1.226 2.6797 2.179 3.8203.969 1.125 2.235 2.0234 3.797 2.6953 1.563.6719 3.328 1.0078 5.297 1.0078zm21.727-.3281c.703 0 1.304-.2188 1.804-.6562.516-.4532.774-1.0782.774-1.875v-17.3204h3.515c.594 0 1.04-.1562 1.336-.4687.313-.3125.469-.7109.469-1.1953 0-.4532-.156-.8438-.469-1.1719-.312-.3281-.757-.4922-1.336-.4922h-3.515v-2.0859c0-1.0469.055-1.8828.164-2.5078.109-.6407.305-1.1172.586-1.4297s.594-.5157.937-.6094c.344-.0937.821-.1406 1.43-.1406h1.992c.563 0 .992-.1875 1.289-.5625.297-.3906.446-.8516.446-1.3828 0-.5469-.157-1.0235-.469-1.4297-.297-.4063-.719-.6094-1.266-.6094h-2.93c-2.265 0-4.054.6406-5.367 1.9219-1.312 1.2656-1.968 3.2812-1.968 6.0468v2.7891h-2.649c-.016 0-.031 0-.047 0-.578 0-1.023.1641-1.336.4922-.312.3281-.468.7187-.468 1.1719 0 .4687.156.8594.468 1.1718.328.3126.789.4766 1.383.4922h2.649v17.3204c0 .7968.25 1.4218.75 1.875.515.4374 1.125.6562 1.828.6562zm18.797.2344h.281.351.282c.343 0 .632-.0078.867-.0235.234 0 .5-.0078.797-.0234s.554-.0469.773-.0937c.219-.0469.438-.1016.656-.1641.235-.0625.43-.1485.586-.2578.157-.1094.297-.2344.422-.375.125-.1407.219-.3047.281-.4922.063-.2031.094-.4297.094-.6797 0-.3438-.078-.6641-.234-.9609-.141-.2969-.367-.5391-.68-.7266-.297-.2031-.656-.3047-1.078-.3047-.062 0-.117 0-.164 0l-1.711.1172h-.211c-.641 0-1.156-.1719-1.547-.5156-.39-.3594-.664-.8438-.82-1.4532-.156-.625-.235-1.4062-.235-2.3437v-11.7891h4.102c.609 0 1.063-.1484 1.359-.4453.297-.3125.446-.7109.446-1.1953s-.157-.8828-.469-1.1953c-.297-.3281-.742-.4922-1.336-.4922h-4.102v-6.6562c0-.6563-.179-1.1407-.539-1.4532-.343-.3281-.796-.4921-1.359-.4921-.687 0-1.266.2109-1.734.6328-.453.4062-.719.9453-.797 1.6172l-.703 6.3515h-2.649c-.593 0-1.047.1563-1.359.4688-.313.3125-.469.7031-.469 1.1718 0 .4688.164.8672.492 1.1953.328.3282.789.4922 1.383.4922h2.602v13.0078c0 2.2344.57 3.9766 1.711 5.2266 1.156 1.2344 2.726 1.8516 4.711 1.8516zm13.476-.2344h16.805c.703 0 1.25-.2266 1.64-.6797.391-.4687.586-1.0078.586-1.6172 0-.6093-.203-1.1484-.609-1.6172-.391-.4687-.93-.7031-1.617-.7031h-13.945v-26.1797c0-.8906-.282-1.5781-.844-2.0625-.563-.5-1.242-.75-2.039-.75s-1.485.25-2.063.75c-.578.4844-.867 1.1719-.867 2.0625v27.8907c0 .7968.289 1.4843.867 2.0624.594.5626 1.289.8438 2.086.8438zm29.156.3281c3.172 0 5.438-1.3437 6.797-4.0312v1.2656c0 1.0625.461 1.7969 1.383 2.2031.359.1563.734.2344 1.125.2344.688 0 1.281-.2109 1.781-.6328.5-.4375.75-1.0469.75-1.8281v-12.8438c0-2.8906-.843-5.0156-2.531-6.375-1.687-1.375-3.977-2.0625-6.867-2.0625-3.203 0-6.07.6328-8.602 1.8984-.578.2813-.867.7266-.867 1.336 0 .5.172.9531.516 1.3594.359.4062.789.6093 1.289.6093h.187c.063-.0156.125-.0312.188-.0468.078-.0157.148-.0391.211-.0703.875-.3438 1.515-.586 1.922-.7266.422-.1563 1.132-.3438 2.132-.5625 1-.2344 1.938-.3516 2.813-.3516 2.969 0 4.453 1.5313 4.453 4.5938v2.0625c-1.437 0-2.656.0156-3.656.0468-1 .0157-2.024.0704-3.07.1641-1.047.0781-1.922.1953-2.626.3516-.687.1406-1.367.3359-2.039.5859-.671.2344-1.211.5313-1.617.8906-.39.3438-.75.7657-1.078 1.2657-.312.5-.539 1.0703-.68 1.7109-.125.6406-.187 1.375-.187 2.2031 0 2.1563.773 3.8203 2.32 4.9922s3.531 1.7578 5.953 1.7578zm.446-3.3515c-1.157 0-2.086-.2891-2.789-.8672-.703-.5938-1.055-1.5156-1.055-2.7656 0-.4532.031-.8516.094-1.1954.078-.3593.203-.6796.375-.9609s.375-.5156.609-.7031c.25-.2032.578-.375.984-.5156.422-.1563.868-.2735 1.336-.3516.469-.0938 1.055-.1641 1.758-.211.719-.0624 1.446-.1015 2.18-.1171.75-.0157 1.656-.0235 2.719-.0235v.6094c0 2.0625-.625 3.7656-1.875 5.1094-1.25 1.3281-2.696 1.9922-4.336 1.9922zm20.414 3.0234c.703 0 1.304-.2188 1.804-.6562.516-.4376.774-1.0391.774-1.8047v-10.6641c.016-2.1406.625-3.8672 1.828-5.1797s2.641-1.9687 4.312-1.9687c1.438 0 2.602.4687 3.493 1.4062.89.9375 1.336 2.2891 1.336 4.0547v12.3516c0 .7812.25 1.3906.75 1.8281.5.4219 1.093.6328 1.781.6328.703 0 1.312-.2109 1.828-.6328.516-.4375.773-1.0469.773-1.8281v-12.3047c0-1.5313-.226-2.8828-.679-4.0547s-1.078-2.1094-1.875-2.8125-1.703-1.2266-2.719-1.5703c-1-.3594-2.078-.5391-3.234-.5391-1.782 0-3.328.3438-4.641 1.0313-1.313.6718-2.297 1.6562-2.953 2.9531v-1.3125c0-.7344-.25-1.3047-.75-1.7109-.5-.4219-1.102-.6329-1.805-.6329s-1.312.2188-1.828.6563c-.516.4219-.773 1.0078-.773 1.7578v18.5391c0 .7812.25 1.3906.75 1.8281.515.4219 1.125.6328 1.828.6328zm33.773.3281c3.688 0 6.297-1.3672 7.828-4.1015v1.289c0 1.6406.844 2.461 2.532 2.461.703 0 1.312-.2188 1.828-.6563.515-.4375.773-1.0391.773-1.8047v-28.7578c0-.75-.25-1.3359-.75-1.7578s-1.101-.6328-1.805-.6328c-.703 0-1.312.2109-1.828.6328-.5.4219-.75 1.0078-.75 1.7578v11.3672c-1.547-2.5781-4.039-3.8672-7.476-3.8672-3.219 0-5.774 1.0938-7.664 3.2813-1.875 2.1875-2.813 5.0547-2.813 8.6015 0 1.625.219 3.1719.656 4.6406.454 1.4532 1.094 2.7422 1.922 3.8672s1.891 2.0235 3.188 2.6954c1.297.6562 2.75.9843 4.359.9843zm1.172-3.4922c-.922 0-1.75-.1797-2.484-.539-.735-.375-1.328-.8516-1.782-1.4297-.437-.5938-.804-1.2813-1.101-2.0625-.297-.7813-.508-1.5469-.633-2.2969-.109-.7656-.164-1.5469-.164-2.3437 0-.8125.063-1.6016.187-2.3672.126-.7657.336-1.5235.633-2.2735.313-.75.703-1.3984 1.172-1.9453.469-.5625 1.063-1.0078 1.781-1.3359.735-.3438 1.563-.5156 2.485-.5156 1.156 0 2.164.2422 3.023.7265.875.4688 1.555 1.1172 2.039 1.9453.5.8125.867 1.711 1.102 2.6954.25.9687.375 2.0078.375 3.1171 0 2.8282-.508 4.9766-1.524 6.4453-1 1.4532-2.703 2.1797-5.109 2.1797z" fill="#fff"/><path d="m60 6h-56c-2.1 0-4 1.9-4 4v29.3c0 2.1 1.9 4 4 4h25.3v5.3h-8c-1.6 0-2.7 1.1-2.7 2.7s1.1 2.7 2.7 2.7h21.3c1.6 0 2.7-1.1 2.7-2.7s-1.1-2.7-2.7-2.7h-8v-5.3h25.4c2.1 0 4-1.9 4-4v-29.3c0-2.1-1.9-4-4-4zm-1.3 32h-53.4v-26.7h53.3v26.7z" fill="#e44e83"/></svg>