<svg width="169" height="29" viewBox="0 0 312 55" fill="none" xmlns="http://www.w3.org/2000/svg">
<path d="M23.9391 53C14.0031 53 9.03506 48.272 9.03506 38.816V24.992H3.41906C2.89106 24.992 2.43506 24.824 2.05106 24.488C1.71506 24.152 1.54706 23.72 1.54706 23.192V17.36C1.54706 16.832 1.71506 16.4 2.05106 16.064C2.43506 15.728 2.89106 15.56 3.41906 15.56H9.03506V3.68C9.03506 3.152 9.20306 2.72 9.53906 2.384C9.92306 2.048 10.3551 1.88 10.8351 1.88H19.1871C19.7151 1.88 20.1471 2.048 20.4831 2.384C20.8191 2.72 20.9871 3.152 20.9871 3.68V15.56H29.9871C30.5151 15.56 30.9471 15.728 31.2831 16.064C31.6671 16.4 31.8591 16.832 31.8591 17.36V23.192C31.8591 23.72 31.6671 24.152 31.2831 24.488C30.9471 24.824 30.5151 24.992 29.9871 24.992H20.9871V37.808C20.9871 41.36 22.3551 43.136 25.0911 43.136H30.6351C31.1631 43.136 31.5951 43.304 31.9311 43.64C32.2671 43.976 32.4351 44.408 32.4351 44.936V51.2C32.4351 51.68 32.2671 52.112 31.9311 52.496C31.5951 52.832 31.1631 53 30.6351 53H23.9391ZM40.1964 53C39.6684 53 39.2364 52.832 38.9004 52.496C38.5644 52.16 38.3964 51.728 38.3964 51.2V17.36C38.3964 16.832 38.5644 16.4 38.9004 16.064C39.2364 15.728 39.6684 15.56 40.1964 15.56H48.4764C49.0044 15.56 49.4364 15.752 49.7724 16.136C50.1564 16.472 50.3484 16.88 50.3484 17.36V20.24C52.9884 17.12 56.5404 15.56 61.0044 15.56H64.1724C64.7004 15.56 65.1324 15.728 65.4684 16.064C65.8044 16.4 65.9724 16.832 65.9724 17.36V24.776C65.9724 25.256 65.8044 25.688 65.4684 26.072C65.1324 26.408 64.7004 26.576 64.1724 26.576H57.1884C55.2204 26.576 53.6844 27.128 52.5804 28.232C51.5244 29.288 50.9964 30.8 50.9964 32.768V51.2C50.9964 51.728 50.8044 52.16 50.4204 52.496C50.0844 52.832 49.6524 53 49.1244 53H40.1964ZM81.6909 53.72C79.1469 53.72 76.8189 53.24 74.7069 52.28C72.6429 51.272 71.0109 49.928 69.8109 48.248C68.6589 46.52 68.0829 44.624 68.0829 42.56C68.0829 39.248 69.4269 36.584 72.1149 34.568C74.8509 32.552 78.5949 31.16 83.3469 30.392L92.3469 29.024V28.016C92.3469 26.192 91.9629 24.848 91.1949 23.984C90.4269 23.12 89.1309 22.688 87.3069 22.688C86.2029 22.688 85.2909 22.88 84.5709 23.264C83.8509 23.648 83.1069 24.176 82.3389 24.848C81.6669 25.424 81.1629 25.808 80.8269 26C80.6829 26.384 80.4189 26.576 80.0349 26.576H72.1869C71.7069 26.576 71.2989 26.432 70.9629 26.144C70.6749 25.808 70.5549 25.424 70.6029 24.992C70.6509 23.696 71.2749 22.256 72.4749 20.672C73.7229 19.088 75.5949 17.72 78.0909 16.568C80.6349 15.416 83.7549 14.84 87.4509 14.84C93.3549 14.84 97.7229 16.16 100.555 18.8C103.387 21.392 104.803 24.896 104.803 29.312V51.2C104.803 51.68 104.635 52.112 104.299 52.496C103.963 52.832 103.531 53 103.003 53H94.6509C94.1709 53 93.7389 52.832 93.3549 52.496C93.0189 52.112 92.8509 51.68 92.8509 51.2V48.68C91.7949 50.168 90.3069 51.392 88.3869 52.352C86.5149 53.264 84.2829 53.72 81.6909 53.72ZM85.0749 45.512C87.2829 45.512 89.0589 44.792 90.4029 43.352C91.7949 41.912 92.4909 39.8 92.4909 37.016V36.008L86.3709 37.088C82.0509 37.856 79.8909 39.368 79.8909 41.624C79.8909 42.824 80.3949 43.784 81.4029 44.504C82.4109 45.176 83.6349 45.512 85.0749 45.512ZM130.136 53.72C124.712 53.72 120.32 52.28 116.96 49.4C113.6 46.472 111.8 42.416 111.56 37.232L111.488 34.352L111.56 31.4C111.752 26.216 113.528 22.16 116.888 19.232C120.296 16.304 124.712 14.84 130.136 14.84C134.216 14.84 137.648 15.584 140.432 17.072C143.264 18.512 145.352 20.264 146.696 22.328C148.088 24.344 148.832 26.192 148.928 27.872C148.976 28.352 148.808 28.784 148.424 29.168C148.088 29.504 147.656 29.672 147.128 29.672H137.984C137.456 29.672 137.048 29.552 136.76 29.312C136.472 29.072 136.208 28.712 135.968 28.232C135.392 26.744 134.648 25.688 133.736 25.064C132.872 24.44 131.744 24.128 130.352 24.128C126.416 24.128 124.376 26.672 124.232 31.76L124.16 34.496L124.232 36.872C124.328 39.464 124.88 41.384 125.888 42.632C126.944 43.832 128.432 44.432 130.352 44.432C131.84 44.432 133.016 44.12 133.88 43.496C134.744 42.872 135.44 41.816 135.968 40.328C136.208 39.848 136.472 39.488 136.76 39.248C137.048 39.008 137.456 38.888 137.984 38.888H147.128C147.608 38.888 148.016 39.056 148.352 39.392C148.736 39.68 148.928 40.064 148.928 40.544C148.928 42.08 148.256 43.88 146.912 45.944C145.616 48.008 143.552 49.832 140.72 51.416C137.888 52.952 134.36 53.72 130.136 53.72ZM157.196 53C156.716 53 156.284 52.832 155.9 52.496C155.564 52.112 155.396 51.68 155.396 51.2V3.68C155.396 3.152 155.564 2.72 155.9 2.384C156.284 2.048 156.716 1.88 157.196 1.88H165.548C166.076 1.88 166.508 2.048 166.844 2.384C167.18 2.72 167.348 3.152 167.348 3.68V27.8L177.356 16.784C177.452 16.688 177.62 16.52 177.86 16.28C178.148 16.04 178.436 15.872 178.724 15.776C179.012 15.632 179.348 15.56 179.732 15.56H189.38C189.812 15.56 190.172 15.728 190.46 16.064C190.796 16.352 190.964 16.712 190.964 17.144C190.964 17.672 190.772 18.08 190.388 18.368L177.428 32.336L192.188 50.264C192.572 50.648 192.764 51.008 192.764 51.344C192.764 51.824 192.596 52.232 192.26 52.568C191.972 52.856 191.588 53 191.108 53H181.244C180.62 53 180.14 52.904 179.804 52.712C179.516 52.52 179.156 52.208 178.724 51.776L167.348 38.096V51.2C167.348 51.68 167.18 52.112 166.844 52.496C166.508 52.832 166.076 53 165.548 53H157.196ZM216.666 53C206.73 53 201.762 48.272 201.762 38.816V24.992H196.146C195.618 24.992 195.162 24.824 194.778 24.488C194.442 24.152 194.274 23.72 194.274 23.192V17.36C194.274 16.832 194.442 16.4 194.778 16.064C195.162 15.728 195.618 15.56 196.146 15.56H201.762V3.68C201.762 3.152 201.93 2.72 202.266 2.384C202.65 2.048 203.082 1.88 203.562 1.88H211.914C212.442 1.88 212.874 2.048 213.21 2.384C213.546 2.72 213.714 3.152 213.714 3.68V15.56H222.714C223.242 15.56 223.674 15.728 224.01 16.064C224.394 16.4 224.586 16.832 224.586 17.36V23.192C224.586 23.72 224.394 24.152 224.01 24.488C223.674 24.824 223.242 24.992 222.714 24.992H213.714V37.808C213.714 41.36 215.082 43.136 217.818 43.136H223.362C223.89 43.136 224.322 43.304 224.658 43.64C224.994 43.976 225.162 44.408 225.162 44.936V51.2C225.162 51.68 224.994 52.112 224.658 52.496C224.322 52.832 223.89 53 223.362 53H216.666ZM242.355 53.72C239.811 53.72 237.483 53.24 235.371 52.28C233.307 51.272 231.675 49.928 230.475 48.248C229.323 46.52 228.747 44.624 228.747 42.56C228.747 39.248 230.091 36.584 232.779 34.568C235.515 32.552 239.259 31.16 244.011 30.392L253.011 29.024V28.016C253.011 26.192 252.627 24.848 251.859 23.984C251.091 23.12 249.795 22.688 247.971 22.688C246.867 22.688 245.955 22.88 245.235 23.264C244.515 23.648 243.771 24.176 243.003 24.848C242.331 25.424 241.827 25.808 241.491 26C241.347 26.384 241.083 26.576 240.699 26.576H232.851C232.371 26.576 231.963 26.432 231.627 26.144C231.339 25.808 231.219 25.424 231.267 24.992C231.315 23.696 231.939 22.256 233.139 20.672C234.387 19.088 236.259 17.72 238.755 16.568C241.299 15.416 244.419 14.84 248.115 14.84C254.019 14.84 258.387 16.16 261.219 18.8C264.051 21.392 265.467 24.896 265.467 29.312V51.2C265.467 51.68 265.299 52.112 264.963 52.496C264.627 52.832 264.195 53 263.667 53H255.315C254.835 53 254.403 52.832 254.019 52.496C253.683 52.112 253.515 51.68 253.515 51.2V48.68C252.459 50.168 250.971 51.392 249.051 52.352C247.179 53.264 244.947 53.72 242.355 53.72ZM245.739 45.512C247.947 45.512 249.723 44.792 251.067 43.352C252.459 41.912 253.155 39.8 253.155 37.016V36.008L247.035 37.088C242.715 37.856 240.555 39.368 240.555 41.624C240.555 42.824 241.059 43.784 242.067 44.504C243.075 45.176 244.299 45.512 245.739 45.512ZM275.392 53C274.912 53 274.48 52.832 274.096 52.496C273.76 52.112 273.592 51.68 273.592 51.2V3.68C273.592 3.152 273.76 2.72 274.096 2.384C274.48 2.048 274.912 1.88 275.392 1.88H283.744C284.272 1.88 284.704 2.048 285.04 2.384C285.376 2.72 285.544 3.152 285.544 3.68V27.8L295.552 16.784C295.648 16.688 295.816 16.52 296.056 16.28C296.344 16.04 296.632 15.872 296.92 15.776C297.208 15.632 297.544 15.56 297.928 15.56H307.576C308.008 15.56 308.368 15.728 308.656 16.064C308.992 16.352 309.16 16.712 309.16 17.144C309.16 17.672 308.968 18.08 308.584 18.368L295.624 32.336L310.384 50.264C310.768 50.648 310.96 51.008 310.96 51.344C310.96 51.824 310.792 52.232 310.456 52.568C310.168 52.856 309.784 53 309.304 53H299.44C298.816 53 298.336 52.904 298 52.712C297.712 52.52 297.352 52.208 296.92 51.776L285.544 38.096V51.2C285.544 51.68 285.376 52.112 285.04 52.496C284.704 52.832 284.272 53 283.744 53H275.392Z" fill="#51509C"/>
<path d="M23.9391 53C14.0031 53 9.03506 48.272 9.03506 38.816V24.992H3.41906C2.89106 24.992 2.43506 24.824 2.05106 24.488C1.71506 24.152 1.54706 23.72 1.54706 23.192V17.36C1.54706 16.832 1.71506 16.4 2.05106 16.064C2.43506 15.728 2.89106 15.56 3.41906 15.56H9.03506V3.68C9.03506 3.152 9.20306 2.72 9.53906 2.384C9.92306 2.048 10.3551 1.88 10.8351 1.88H19.1871C19.7151 1.88 20.1471 2.048 20.4831 2.384C20.8191 2.72 20.9871 3.152 20.9871 3.68V15.56H29.9871C30.5151 15.56 30.9471 15.728 31.2831 16.064C31.6671 16.4 31.8591 16.832 31.8591 17.36V23.192C31.8591 23.72 31.6671 24.152 31.2831 24.488C30.9471 24.824 30.5151 24.992 29.9871 24.992H20.9871V37.808C20.9871 41.36 22.3551 43.136 25.0911 43.136H30.6351C31.1631 43.136 31.5951 43.304 31.9311 43.64C32.2671 43.976 32.4351 44.408 32.4351 44.936V51.2C32.4351 51.68 32.2671 52.112 31.9311 52.496C31.5951 52.832 31.1631 53 30.6351 53H23.9391ZM40.1964 53C39.6684 53 39.2364 52.832 38.9004 52.496C38.5644 52.16 38.3964 51.728 38.3964 51.2V17.36C38.3964 16.832 38.5644 16.4 38.9004 16.064C39.2364 15.728 39.6684 15.56 40.1964 15.56H48.4764C49.0044 15.56 49.4364 15.752 49.7724 16.136C50.1564 16.472 50.3484 16.88 50.3484 17.36V20.24C52.9884 17.12 56.5404 15.56 61.0044 15.56H64.1724C64.7004 15.56 65.1324 15.728 65.4684 16.064C65.8044 16.4 65.9724 16.832 65.9724 17.36V24.776C65.9724 25.256 65.8044 25.688 65.4684 26.072C65.1324 26.408 64.7004 26.576 64.1724 26.576H57.1884C55.2204 26.576 53.6844 27.128 52.5804 28.232C51.5244 29.288 50.9964 30.8 50.9964 32.768V51.2C50.9964 51.728 50.8044 52.16 50.4204 52.496C50.0844 52.832 49.6524 53 49.1244 53H40.1964ZM81.6909 53.72C79.1469 53.72 76.8189 53.24 74.7069 52.28C72.6429 51.272 71.0109 49.928 69.8109 48.248C68.6589 46.52 68.0829 44.624 68.0829 42.56C68.0829 39.248 69.4269 36.584 72.1149 34.568C74.8509 32.552 78.5949 31.16 83.3469 30.392L92.3469 29.024V28.016C92.3469 26.192 91.9629 24.848 91.1949 23.984C90.4269 23.12 89.1309 22.688 87.3069 22.688C86.2029 22.688 85.2909 22.88 84.5709 23.264C83.8509 23.648 83.1069 24.176 82.3389 24.848C81.6669 25.424 81.1629 25.808 80.8269 26C80.6829 26.384 80.4189 26.576 80.0349 26.576H72.1869C71.7069 26.576 71.2989 26.432 70.9629 26.144C70.6749 25.808 70.5549 25.424 70.6029 24.992C70.6509 23.696 71.2749 22.256 72.4749 20.672C73.7229 19.088 75.5949 17.72 78.0909 16.568C80.6349 15.416 83.7549 14.84 87.4509 14.84C93.3549 14.84 97.7229 16.16 100.555 18.8C103.387 21.392 104.803 24.896 104.803 29.312V51.2C104.803 51.68 104.635 52.112 104.299 52.496C103.963 52.832 103.531 53 103.003 53H94.6509C94.1709 53 93.7389 52.832 93.3549 52.496C93.0189 52.112 92.8509 51.68 92.8509 51.2V48.68C91.7949 50.168 90.3069 51.392 88.3869 52.352C86.5149 53.264 84.2829 53.72 81.6909 53.72ZM85.0749 45.512C87.2829 45.512 89.0589 44.792 90.4029 43.352C91.7949 41.912 92.4909 39.8 92.4909 37.016V36.008L86.3709 37.088C82.0509 37.856 79.8909 39.368 79.8909 41.624C79.8909 42.824 80.3949 43.784 81.4029 44.504C82.4109 45.176 83.6349 45.512 85.0749 45.512ZM130.136 53.72C124.712 53.72 120.32 52.28 116.96 49.4C113.6 46.472 111.8 42.416 111.56 37.232L111.488 34.352L111.56 31.4C111.752 26.216 113.528 22.16 116.888 19.232C120.296 16.304 124.712 14.84 130.136 14.84C134.216 14.84 137.648 15.584 140.432 17.072C143.264 18.512 145.352 20.264 146.696 22.328C148.088 24.344 148.832 26.192 148.928 27.872C148.976 28.352 148.808 28.784 148.424 29.168C148.088 29.504 147.656 29.672 147.128 29.672H137.984C137.456 29.672 137.048 29.552 136.76 29.312C136.472 29.072 136.208 28.712 135.968 28.232C135.392 26.744 134.648 25.688 133.736 25.064C132.872 24.44 131.744 24.128 130.352 24.128C126.416 24.128 124.376 26.672 124.232 31.76L124.16 34.496L124.232 36.872C124.328 39.464 124.88 41.384 125.888 42.632C126.944 43.832 128.432 44.432 130.352 44.432C131.84 44.432 133.016 44.12 133.88 43.496C134.744 42.872 135.44 41.816 135.968 40.328C136.208 39.848 136.472 39.488 136.76 39.248C137.048 39.008 137.456 38.888 137.984 38.888H147.128C147.608 38.888 148.016 39.056 148.352 39.392C148.736 39.68 148.928 40.064 148.928 40.544C148.928 42.08 148.256 43.88 146.912 45.944C145.616 48.008 143.552 49.832 140.72 51.416C137.888 52.952 134.36 53.72 130.136 53.72ZM157.196 53C156.716 53 156.284 52.832 155.9 52.496C155.564 52.112 155.396 51.68 155.396 51.2V3.68C155.396 3.152 155.564 2.72 155.9 2.384C156.284 2.048 156.716 1.88 157.196 1.88H165.548C166.076 1.88 166.508 2.048 166.844 2.384C167.18 2.72 167.348 3.152 167.348 3.68V27.8L177.356 16.784C177.452 16.688 177.62 16.52 177.86 16.28C178.148 16.04 178.436 15.872 178.724 15.776C179.012 15.632 179.348 15.56 179.732 15.56H189.38C189.812 15.56 190.172 15.728 190.46 16.064C190.796 16.352 190.964 16.712 190.964 17.144C190.964 17.672 190.772 18.08 190.388 18.368L177.428 32.336L192.188 50.264C192.572 50.648 192.764 51.008 192.764 51.344C192.764 51.824 192.596 52.232 192.26 52.568C191.972 52.856 191.588 53 191.108 53H181.244C180.62 53 180.14 52.904 179.804 52.712C179.516 52.52 179.156 52.208 178.724 51.776L167.348 38.096V51.2C167.348 51.68 167.18 52.112 166.844 52.496C166.508 52.832 166.076 53 165.548 53H157.196ZM216.666 53C206.73 53 201.762 48.272 201.762 38.816V24.992H196.146C195.618 24.992 195.162 24.824 194.778 24.488C194.442 24.152 194.274 23.72 194.274 23.192V17.36C194.274 16.832 194.442 16.4 194.778 16.064C195.162 15.728 195.618 15.56 196.146 15.56H201.762V3.68C201.762 3.152 201.93 2.72 202.266 2.384C202.65 2.048 203.082 1.88 203.562 1.88H211.914C212.442 1.88 212.874 2.048 213.21 2.384C213.546 2.72 213.714 3.152 213.714 3.68V15.56H222.714C223.242 15.56 223.674 15.728 224.01 16.064C224.394 16.4 224.586 16.832 224.586 17.36V23.192C224.586 23.72 224.394 24.152 224.01 24.488C223.674 24.824 223.242 24.992 222.714 24.992H213.714V37.808C213.714 41.36 215.082 43.136 217.818 43.136H223.362C223.89 43.136 224.322 43.304 224.658 43.64C224.994 43.976 225.162 44.408 225.162 44.936V51.2C225.162 51.68 224.994 52.112 224.658 52.496C224.322 52.832 223.89 53 223.362 53H216.666ZM242.355 53.72C239.811 53.72 237.483 53.24 235.371 52.28C233.307 51.272 231.675 49.928 230.475 48.248C229.323 46.52 228.747 44.624 228.747 42.56C228.747 39.248 230.091 36.584 232.779 34.568C235.515 32.552 239.259 31.16 244.011 30.392L253.011 29.024V28.016C253.011 26.192 252.627 24.848 251.859 23.984C251.091 23.12 249.795 22.688 247.971 22.688C246.867 22.688 245.955 22.88 245.235 23.264C244.515 23.648 243.771 24.176 243.003 24.848C242.331 25.424 241.827 25.808 241.491 26C241.347 26.384 241.083 26.576 240.699 26.576H232.851C232.371 26.576 231.963 26.432 231.627 26.144C231.339 25.808 231.219 25.424 231.267 24.992C231.315 23.696 231.939 22.256 233.139 20.672C234.387 19.088 236.259 17.72 238.755 16.568C241.299 15.416 244.419 14.84 248.115 14.84C254.019 14.84 258.387 16.16 261.219 18.8C264.051 21.392 265.467 24.896 265.467 29.312V51.2C265.467 51.68 265.299 52.112 264.963 52.496C264.627 52.832 264.195 53 263.667 53H255.315C254.835 53 254.403 52.832 254.019 52.496C253.683 52.112 253.515 51.68 253.515 51.2V48.68C252.459 50.168 250.971 51.392 249.051 52.352C247.179 53.264 244.947 53.72 242.355 53.72ZM245.739 45.512C247.947 45.512 249.723 44.792 251.067 43.352C252.459 41.912 253.155 39.8 253.155 37.016V36.008L247.035 37.088C242.715 37.856 240.555 39.368 240.555 41.624C240.555 42.824 241.059 43.784 242.067 44.504C243.075 45.176 244.299 45.512 245.739 45.512ZM275.392 53C274.912 53 274.48 52.832 274.096 52.496C273.76 52.112 273.592 51.68 273.592 51.2V3.68C273.592 3.152 273.76 2.72 274.096 2.384C274.48 2.048 274.912 1.88 275.392 1.88H283.744C284.272 1.88 284.704 2.048 285.04 2.384C285.376 2.72 285.544 3.152 285.544 3.68V27.8L295.552 16.784C295.648 16.688 295.816 16.52 296.056 16.28C296.344 16.04 296.632 15.872 296.92 15.776C297.208 15.632 297.544 15.56 297.928 15.56H307.576C308.008 15.56 308.368 15.728 308.656 16.064C308.992 16.352 309.16 16.712 309.16 17.144C309.16 17.672 308.968 18.08 308.584 18.368L295.624 32.336L310.384 50.264C310.768 50.648 310.96 51.008 310.96 51.344C310.96 51.824 310.792 52.232 310.456 52.568C310.168 52.856 309.784 53 309.304 53H299.44C298.816 53 298.336 52.904 298 52.712C297.712 52.52 297.352 52.208 296.92 51.776L285.544 38.096V51.2C285.544 51.68 285.376 52.112 285.04 52.496C284.704 52.832 284.272 53 283.744 53H275.392Z" fill="#51509C"/>
<path d="M23.9391 53C14.0031 53 9.03506 48.272 9.03506 38.816V24.992H3.41906C2.89106 24.992 2.43506 24.824 2.05106 24.488C1.71506 24.152 1.54706 23.72 1.54706 23.192V17.36C1.54706 16.832 1.71506 16.4 2.05106 16.064C2.43506 15.728 2.89106 15.56 3.41906 15.56H9.03506V3.68C9.03506 3.152 9.20306 2.72 9.53906 2.384C9.92306 2.048 10.3551 1.88 10.8351 1.88H19.1871C19.7151 1.88 20.1471 2.048 20.4831 2.384C20.8191 2.72 20.9871 3.152 20.9871 3.68V15.56H29.9871C30.5151 15.56 30.9471 15.728 31.2831 16.064C31.6671 16.4 31.8591 16.832 31.8591 17.36V23.192C31.8591 23.72 31.6671 24.152 31.2831 24.488C30.9471 24.824 30.5151 24.992 29.9871 24.992H20.9871V37.808C20.9871 41.36 22.3551 43.136 25.0911 43.136H30.6351C31.1631 43.136 31.5951 43.304 31.9311 43.64C32.2671 43.976 32.4351 44.408 32.4351 44.936V51.2C32.4351 51.68 32.2671 52.112 31.9311 52.496C31.5951 52.832 31.1631 53 30.6351 53H23.9391ZM40.1964 53C39.6684 53 39.2364 52.832 38.9004 52.496C38.5644 52.16 38.3964 51.728 38.3964 51.2V17.36C38.3964 16.832 38.5644 16.4 38.9004 16.064C39.2364 15.728 39.6684 15.56 40.1964 15.56H48.4764C49.0044 15.56 49.4364 15.752 49.7724 16.136C50.1564 16.472 50.3484 16.88 50.3484 17.36V20.24C52.9884 17.12 56.5404 15.56 61.0044 15.56H64.1724C64.7004 15.56 65.1324 15.728 65.4684 16.064C65.8044 16.4 65.9724 16.832 65.9724 17.36V24.776C65.9724 25.256 65.8044 25.688 65.4684 26.072C65.1324 26.408 64.7004 26.576 64.1724 26.576H57.1884C55.2204 26.576 53.6844 27.128 52.5804 28.232C51.5244 29.288 50.9964 30.8 50.9964 32.768V51.2C50.9964 51.728 50.8044 52.16 50.4204 52.496C50.0844 52.832 49.6524 53 49.1244 53H40.1964ZM81.6909 53.72C79.1469 53.72 76.8189 53.24 74.7069 52.28C72.6429 51.272 71.0109 49.928 69.8109 48.248C68.6589 46.52 68.0829 44.624 68.0829 42.56C68.0829 39.248 69.4269 36.584 72.1149 34.568C74.8509 32.552 78.5949 31.16 83.3469 30.392L92.3469 29.024V28.016C92.3469 26.192 91.9629 24.848 91.1949 23.984C90.4269 23.12 89.1309 22.688 87.3069 22.688C86.2029 22.688 85.2909 22.88 84.5709 23.264C83.8509 23.648 83.1069 24.176 82.3389 24.848C81.6669 25.424 81.1629 25.808 80.8269 26C80.6829 26.384 80.4189 26.576 80.0349 26.576H72.1869C71.7069 26.576 71.2989 26.432 70.9629 26.144C70.6749 25.808 70.5549 25.424 70.6029 24.992C70.6509 23.696 71.2749 22.256 72.4749 20.672C73.7229 19.088 75.5949 17.72 78.0909 16.568C80.6349 15.416 83.7549 14.84 87.4509 14.84C93.3549 14.84 97.7229 16.16 100.555 18.8C103.387 21.392 104.803 24.896 104.803 29.312V51.2C104.803 51.68 104.635 52.112 104.299 52.496C103.963 52.832 103.531 53 103.003 53H94.6509C94.1709 53 93.7389 52.832 93.3549 52.496C93.0189 52.112 92.8509 51.68 92.8509 51.2V48.68C91.7949 50.168 90.3069 51.392 88.3869 52.352C86.5149 53.264 84.2829 53.72 81.6909 53.72ZM85.0749 45.512C87.2829 45.512 89.0589 44.792 90.4029 43.352C91.7949 41.912 92.4909 39.8 92.4909 37.016V36.008L86.3709 37.088C82.0509 37.856 79.8909 39.368 79.8909 41.624C79.8909 42.824 80.3949 43.784 81.4029 44.504C82.4109 45.176 83.6349 45.512 85.0749 45.512ZM130.136 53.72C124.712 53.72 120.32 52.28 116.96 49.4C113.6 46.472 111.8 42.416 111.56 37.232L111.488 34.352L111.56 31.4C111.752 26.216 113.528 22.16 116.888 19.232C120.296 16.304 124.712 14.84 130.136 14.84C134.216 14.84 137.648 15.584 140.432 17.072C143.264 18.512 145.352 20.264 146.696 22.328C148.088 24.344 148.832 26.192 148.928 27.872C148.976 28.352 148.808 28.784 148.424 29.168C148.088 29.504 147.656 29.672 147.128 29.672H137.984C137.456 29.672 137.048 29.552 136.76 29.312C136.472 29.072 136.208 28.712 135.968 28.232C135.392 26.744 134.648 25.688 133.736 25.064C132.872 24.44 131.744 24.128 130.352 24.128C126.416 24.128 124.376 26.672 124.232 31.76L124.16 34.496L124.232 36.872C124.328 39.464 124.88 41.384 125.888 42.632C126.944 43.832 128.432 44.432 130.352 44.432C131.84 44.432 133.016 44.12 133.88 43.496C134.744 42.872 135.44 41.816 135.968 40.328C136.208 39.848 136.472 39.488 136.76 39.248C137.048 39.008 137.456 38.888 137.984 38.888H147.128C147.608 38.888 148.016 39.056 148.352 39.392C148.736 39.68 148.928 40.064 148.928 40.544C148.928 42.08 148.256 43.88 146.912 45.944C145.616 48.008 143.552 49.832 140.72 51.416C137.888 52.952 134.36 53.72 130.136 53.72ZM157.196 53C156.716 53 156.284 52.832 155.9 52.496C155.564 52.112 155.396 51.68 155.396 51.2V3.68C155.396 3.152 155.564 2.72 155.9 2.384C156.284 2.048 156.716 1.88 157.196 1.88H165.548C166.076 1.88 166.508 2.048 166.844 2.384C167.18 2.72 167.348 3.152 167.348 3.68V27.8L177.356 16.784C177.452 16.688 177.62 16.52 177.86 16.28C178.148 16.04 178.436 15.872 178.724 15.776C179.012 15.632 179.348 15.56 179.732 15.56H189.38C189.812 15.56 190.172 15.728 190.46 16.064C190.796 16.352 190.964 16.712 190.964 17.144C190.964 17.672 190.772 18.08 190.388 18.368L177.428 32.336L192.188 50.264C192.572 50.648 192.764 51.008 192.764 51.344C192.764 51.824 192.596 52.232 192.26 52.568C191.972 52.856 191.588 53 191.108 53H181.244C180.62 53 180.14 52.904 179.804 52.712C179.516 52.52 179.156 52.208 178.724 51.776L167.348 38.096V51.2C167.348 51.68 167.18 52.112 166.844 52.496C166.508 52.832 166.076 53 165.548 53H157.196ZM216.666 53C206.73 53 201.762 48.272 201.762 38.816V24.992H196.146C195.618 24.992 195.162 24.824 194.778 24.488C194.442 24.152 194.274 23.72 194.274 23.192V17.36C194.274 16.832 194.442 16.4 194.778 16.064C195.162 15.728 195.618 15.56 196.146 15.56H201.762V3.68C201.762 3.152 201.93 2.72 202.266 2.384C202.65 2.048 203.082 1.88 203.562 1.88H211.914C212.442 1.88 212.874 2.048 213.21 2.384C213.546 2.72 213.714 3.152 213.714 3.68V15.56H222.714C223.242 15.56 223.674 15.728 224.01 16.064C224.394 16.4 224.586 16.832 224.586 17.36V23.192C224.586 23.72 224.394 24.152 224.01 24.488C223.674 24.824 223.242 24.992 222.714 24.992H213.714V37.808C213.714 41.36 215.082 43.136 217.818 43.136H223.362C223.89 43.136 224.322 43.304 224.658 43.64C224.994 43.976 225.162 44.408 225.162 44.936V51.2C225.162 51.68 224.994 52.112 224.658 52.496C224.322 52.832 223.89 53 223.362 53H216.666ZM242.355 53.72C239.811 53.72 237.483 53.24 235.371 52.28C233.307 51.272 231.675 49.928 230.475 48.248C229.323 46.52 228.747 44.624 228.747 42.56C228.747 39.248 230.091 36.584 232.779 34.568C235.515 32.552 239.259 31.16 244.011 30.392L253.011 29.024V28.016C253.011 26.192 252.627 24.848 251.859 23.984C251.091 23.12 249.795 22.688 247.971 22.688C246.867 22.688 245.955 22.88 245.235 23.264C244.515 23.648 243.771 24.176 243.003 24.848C242.331 25.424 241.827 25.808 241.491 26C241.347 26.384 241.083 26.576 240.699 26.576H232.851C232.371 26.576 231.963 26.432 231.627 26.144C231.339 25.808 231.219 25.424 231.267 24.992C231.315 23.696 231.939 22.256 233.139 20.672C234.387 19.088 236.259 17.72 238.755 16.568C241.299 15.416 244.419 14.84 248.115 14.84C254.019 14.84 258.387 16.16 261.219 18.8C264.051 21.392 265.467 24.896 265.467 29.312V51.2C265.467 51.68 265.299 52.112 264.963 52.496C264.627 52.832 264.195 53 263.667 53H255.315C254.835 53 254.403 52.832 254.019 52.496C253.683 52.112 253.515 51.68 253.515 51.2V48.68C252.459 50.168 250.971 51.392 249.051 52.352C247.179 53.264 244.947 53.72 242.355 53.72ZM245.739 45.512C247.947 45.512 249.723 44.792 251.067 43.352C252.459 41.912 253.155 39.8 253.155 37.016V36.008L247.035 37.088C242.715 37.856 240.555 39.368 240.555 41.624C240.555 42.824 241.059 43.784 242.067 44.504C243.075 45.176 244.299 45.512 245.739 45.512ZM275.392 53C274.912 53 274.48 52.832 274.096 52.496C273.76 52.112 273.592 51.68 273.592 51.2V3.68C273.592 3.152 273.76 2.72 274.096 2.384C274.48 2.048 274.912 1.88 275.392 1.88H283.744C284.272 1.88 284.704 2.048 285.04 2.384C285.376 2.72 285.544 3.152 285.544 3.68V27.8L295.552 16.784C295.648 16.688 295.816 16.52 296.056 16.28C296.344 16.04 296.632 15.872 296.92 15.776C297.208 15.632 297.544 15.56 297.928 15.56H307.576C308.008 15.56 308.368 15.728 308.656 16.064C308.992 16.352 309.16 16.712 309.16 17.144C309.16 17.672 308.968 18.08 308.584 18.368L295.624 32.336L310.384 50.264C310.768 50.648 310.96 51.008 310.96 51.344C310.96 51.824 310.792 52.232 310.456 52.568C310.168 52.856 309.784 53 309.304 53H299.44C298.816 53 298.336 52.904 298 52.712C297.712 52.52 297.352 52.208 296.92 51.776L285.544 38.096V51.2C285.544 51.68 285.376 52.112 285.04 52.496C284.704 52.832 284.272 53 283.744 53H275.392Z" fill="#51509C"/>
<path d="M9.03506 24.992H10.0351V23.992H9.03506V24.992ZM2.05106 24.488L1.34396 25.1951L1.3675 25.2186L1.39256 25.2406L2.05106 24.488ZM2.05106 16.064L1.39256 15.3114L1.3675 15.3333L1.34396 15.3569L2.05106 16.064ZM9.03506 15.56V16.56H10.0351V15.56H9.03506ZM9.53906 2.384L8.88056 1.63142L8.8555 1.65335L8.83196 1.67689L9.53906 2.384ZM20.4831 2.384L19.776 3.0911L19.776 3.09111L20.4831 2.384ZM20.9871 15.56H19.9871V16.56H20.9871V15.56ZM31.2831 16.064L30.576 16.7711L30.5995 16.7947L30.6246 16.8166L31.2831 16.064ZM31.2831 24.488L30.6246 23.7354L30.5995 23.7573L30.576 23.7809L31.2831 24.488ZM20.9871 24.992V23.992H19.9871V24.992H20.9871ZM31.9311 43.64L32.6382 42.9329L32.6382 42.9329L31.9311 43.64ZM31.9311 52.496L32.6382 53.2031L32.6617 53.1796L32.6836 53.1545L31.9311 52.496ZM23.9391 52C19.1132 52 15.6795 50.851 13.4505 48.7296C11.2307 46.6171 10.0351 43.3769 10.0351 38.816H8.03506C8.03506 43.7111 9.32344 47.5629 12.0717 50.1784C14.8106 52.785 18.8289 54 23.9391 54V52ZM10.0351 38.816V24.992H8.03506V38.816H10.0351ZM9.03506 23.992H3.41906V25.992H9.03506V23.992ZM3.41906 23.992C3.12406 23.992 2.90445 23.9059 2.70957 23.7354L1.39256 25.2406C1.96568 25.7421 2.65807 25.992 3.41906 25.992V23.992ZM2.75817 23.7809C2.63137 23.6541 2.54706 23.4871 2.54706 23.192H0.547063C0.547063 23.9529 0.798752 24.6499 1.34396 25.1951L2.75817 23.7809ZM2.54706 23.192V17.36H0.547063V23.192H2.54706ZM2.54706 17.36C2.54706 17.0649 2.63137 16.8979 2.75817 16.7711L1.34396 15.3569C0.798752 15.9021 0.547063 16.5991 0.547063 17.36H2.54706ZM2.70957 16.8166C2.90445 16.6461 3.12406 16.56 3.41906 16.56V14.56C2.65807 14.56 1.96568 14.8099 1.39256 15.3114L2.70957 16.8166ZM3.41906 16.56H9.03506V14.56H3.41906V16.56ZM10.0351 15.56V3.68H8.03506V15.56H10.0351ZM10.0351 3.68C10.0351 3.38491 10.1194 3.2179 10.2462 3.09111L8.83196 1.67689C8.28675 2.22209 8.03506 2.91908 8.03506 3.68H10.0351ZM10.1976 3.13657C10.4118 2.94915 10.6134 2.88 10.8351 2.88V0.879997C10.0967 0.879997 9.43436 1.14685 8.88056 1.63142L10.1976 3.13657ZM10.8351 2.88H19.1871V0.879997H10.8351V2.88ZM19.1871 2.88C19.4821 2.88 19.6492 2.96431 19.776 3.0911L21.1902 1.67689C20.645 1.13169 19.948 0.879997 19.1871 0.879997V2.88ZM19.776 3.09111C19.9028 3.2179 19.9871 3.38491 19.9871 3.68H21.9871C21.9871 2.91908 21.7354 2.22209 21.1902 1.67689L19.776 3.09111ZM19.9871 3.68V15.56H21.9871V3.68H19.9871ZM20.9871 16.56H29.9871V14.56H20.9871V16.56ZM29.9871 16.56C30.2821 16.56 30.4492 16.6443 30.576 16.7711L31.9902 15.3569C31.445 14.8117 30.748 14.56 29.9871 14.56V16.56ZM30.6246 16.8166C30.7831 16.9553 30.8591 17.1089 30.8591 17.36H32.8591C32.8591 16.5551 32.5511 15.8447 31.9416 15.3114L30.6246 16.8166ZM30.8591 17.36V23.192H32.8591V17.36H30.8591ZM30.8591 23.192C30.8591 23.4431 30.7831 23.5967 30.6246 23.7354L31.9416 25.2406C32.5511 24.7073 32.8591 23.9969 32.8591 23.192H30.8591ZM30.576 23.7809C30.4492 23.9077 30.2821 23.992 29.9871 23.992V25.992C30.748 25.992 31.445 25.7403 31.9902 25.1951L30.576 23.7809ZM29.9871 23.992H20.9871V25.992H29.9871V23.992ZM19.9871 24.992V37.808H21.9871V24.992H19.9871ZM19.9871 37.808C19.9871 39.6844 20.3436 41.2753 21.2208 42.4142C22.1362 43.6026 23.4889 44.136 25.0911 44.136V42.136C23.9572 42.136 23.2579 41.7814 22.8053 41.1938C22.3145 40.5567 21.9871 39.4836 21.9871 37.808H19.9871ZM25.0911 44.136H30.6351V42.136H25.0911V44.136ZM30.6351 44.136C30.9301 44.136 31.0972 44.2203 31.224 44.3471L32.6382 42.9329C32.093 42.3877 31.396 42.136 30.6351 42.136V44.136ZM31.224 44.3471C31.3508 44.4739 31.4351 44.6409 31.4351 44.936H33.4351C33.4351 44.1751 33.1834 43.4781 32.6382 42.9329L31.224 44.3471ZM31.4351 44.936V51.2H33.4351V44.936H31.4351ZM31.4351 51.2C31.4351 51.4217 31.3659 51.6233 31.1785 51.8375L32.6836 53.1545C33.1682 52.6007 33.4351 51.9383 33.4351 51.2H31.4351ZM31.224 51.7889C31.0972 51.9157 30.9301 52 30.6351 52V54C31.396 54 32.093 53.7483 32.6382 53.2031L31.224 51.7889ZM30.6351 52H23.9391V54H30.6351V52ZM38.9004 52.496L38.1933 53.2031L38.1933 53.2031L38.9004 52.496ZM38.9004 16.064L39.6075 16.7711L39.6075 16.7711L38.9004 16.064ZM49.7724 16.136L49.0199 16.7945L49.0638 16.8447L49.1139 16.8886L49.7724 16.136ZM50.3484 20.24H49.3484V22.9699L51.1118 20.8859L50.3484 20.24ZM65.4684 16.064L64.7613 16.7711L64.7613 16.7711L65.4684 16.064ZM65.4684 26.072L66.1755 26.7791L66.1991 26.7556L66.221 26.7305L65.4684 26.072ZM52.5804 28.232L53.2875 28.9391L53.2875 28.9391L52.5804 28.232ZM50.4204 52.496L49.7619 51.7434L49.7369 51.7653L49.7133 51.7889L50.4204 52.496ZM40.1964 52C39.9014 52 39.7343 51.9157 39.6075 51.7889L38.1933 53.2031C38.7385 53.7483 39.4355 54 40.1964 54V52ZM39.6075 51.7889C39.4807 51.6621 39.3964 51.4951 39.3964 51.2H37.3964C37.3964 51.9609 37.6481 52.6579 38.1933 53.2031L39.6075 51.7889ZM39.3964 51.2V17.36H37.3964V51.2H39.3964ZM39.3964 17.36C39.3964 17.0649 39.4807 16.8979 39.6075 16.7711L38.1933 15.3569C37.6481 15.9021 37.3964 16.5991 37.3964 17.36H39.3964ZM39.6075 16.7711C39.7343 16.6443 39.9014 16.56 40.1964 16.56V14.56C39.4355 14.56 38.7385 14.8117 38.1933 15.3569L39.6075 16.7711ZM40.1964 16.56H48.4764V14.56H40.1964V16.56ZM48.4764 16.56C48.7275 16.56 48.8812 16.636 49.0199 16.7945L50.525 15.4775C49.9917 14.868 49.2813 14.56 48.4764 14.56V16.56ZM49.1139 16.8886C49.2964 17.0483 49.3484 17.1883 49.3484 17.36H51.3484C51.3484 16.5717 51.0165 15.8957 50.4309 15.3834L49.1139 16.8886ZM49.3484 17.36V20.24H51.3484V17.36H49.3484ZM51.1118 20.8859C53.5428 18.0129 56.8039 16.56 61.0044 16.56V14.56C56.277 14.56 52.434 16.2271 49.5851 19.5941L51.1118 20.8859ZM61.0044 16.56H64.1724V14.56H61.0044V16.56ZM64.1724 16.56C64.4675 16.56 64.6345 16.6443 64.7613 16.7711L66.1755 15.3569C65.6303 14.8117 64.9334 14.56 64.1724 14.56V16.56ZM64.7613 16.7711C64.8881 16.8979 64.9724 17.0649 64.9724 17.36H66.9724C66.9724 16.5991 66.7208 15.9021 66.1755 15.3569L64.7613 16.7711ZM64.9724 17.36V24.776H66.9724V17.36H64.9724ZM64.9724 24.776C64.9724 24.9977 64.9033 25.1993 64.7159 25.4135L66.221 26.7305C66.7056 26.1767 66.9724 25.5143 66.9724 24.776H64.9724ZM64.7613 25.3649C64.6345 25.4917 64.4675 25.576 64.1724 25.576V27.576C64.9334 27.576 65.6303 27.3243 66.1755 26.7791L64.7613 25.3649ZM64.1724 25.576H57.1884V27.576H64.1724V25.576ZM57.1884 25.576C55.028 25.576 53.2107 26.1875 51.8733 27.5249L53.2875 28.9391C54.1582 28.0685 55.4129 27.576 57.1884 27.576V25.576ZM51.8733 27.5249C50.5759 28.8223 49.9964 30.6222 49.9964 32.768H51.9964C51.9964 30.9778 52.473 29.7537 53.2875 28.9391L51.8733 27.5249ZM49.9964 32.768V51.2H51.9964V32.768H49.9964ZM49.9964 51.2C49.9964 51.4511 49.9204 51.6047 49.7619 51.7434L51.0789 53.2486C51.6884 52.7153 51.9964 52.0049 51.9964 51.2H49.9964ZM49.7133 51.7889C49.5865 51.9157 49.4195 52 49.1244 52V54C49.8854 54 50.5823 53.7483 51.1275 53.2031L49.7133 51.7889ZM49.1244 52H40.1964V54H49.1244V52ZM74.7069 52.28L74.2681 53.1786L74.2805 53.1846L74.2931 53.1904L74.7069 52.28ZM69.8109 48.248L68.9789 48.8027L68.9878 48.8161L68.9972 48.8292L69.8109 48.248ZM72.1149 34.568L71.5217 33.7629L71.5149 33.768L72.1149 34.568ZM83.3469 30.392L83.1967 29.4033L83.1874 29.4048L83.3469 30.392ZM92.3469 29.024L92.4972 30.0126L93.3469 29.8835V29.024H92.3469ZM91.1949 23.984L90.4475 24.6484L90.4475 24.6484L91.1949 23.984ZM84.5709 23.264L85.0415 24.1464L85.0415 24.1464L84.5709 23.264ZM82.3389 24.848L82.9898 25.6073L82.9974 25.6006L82.3389 24.848ZM80.8269 26L80.3308 25.1318L80.0174 25.3109L79.8906 25.6489L80.8269 26ZM70.9629 26.144L70.2037 26.7948L70.2537 26.8532L70.3121 26.9033L70.9629 26.144ZM70.6029 24.992L71.5968 25.1024L71.6009 25.0658L71.6023 25.029L70.6029 24.992ZM72.4749 20.672L71.6894 20.0531L71.6836 20.0606L71.6778 20.0681L72.4749 20.672ZM78.0909 16.568L77.6784 15.657L77.6719 15.66L78.0909 16.568ZM100.555 18.8L99.873 19.5315L99.8798 19.5377L100.555 18.8ZM104.299 52.496L105.006 53.2031L105.03 53.1796L105.052 53.1545L104.299 52.496ZM93.3549 52.496L92.6024 53.1545L92.6463 53.2047L92.6964 53.2486L93.3549 52.496ZM92.8509 48.68H93.8509V45.543L92.0354 48.1013L92.8509 48.68ZM88.3869 52.352L88.8249 53.251L88.8342 53.2464L88.3869 52.352ZM90.4029 43.352L89.684 42.657L89.6779 42.6633L89.6719 42.6697L90.4029 43.352ZM92.4909 36.008H93.4909V34.8161L92.3172 35.0232L92.4909 36.008ZM86.3709 37.088L86.1972 36.1032L86.1959 36.1034L86.3709 37.088ZM81.4029 44.504L80.8217 45.3177L80.8348 45.3271L80.8482 45.336L81.4029 44.504ZM81.6909 52.72C79.2758 52.72 77.0907 52.2651 75.1207 51.3696L74.2931 53.1904C76.5472 54.2149 79.0181 54.72 81.6909 54.72V52.72ZM75.1458 51.3814C73.214 50.438 71.7175 49.1968 70.6247 47.6668L68.9972 48.8292C70.3044 50.6592 72.0718 52.106 74.2681 53.1786L75.1458 51.3814ZM70.643 47.6933C69.5998 46.1285 69.0829 44.4253 69.0829 42.56H67.0829C67.0829 44.8227 67.7181 46.9115 68.9789 48.8027L70.643 47.6933ZM69.0829 42.56C69.0829 39.5681 70.2744 37.1984 72.7149 35.368L71.5149 33.768C68.5794 35.9696 67.0829 38.9279 67.0829 42.56H69.0829ZM72.7081 35.3731C75.2741 33.4824 78.8502 32.1317 83.5065 31.3792L83.1874 29.4048C78.3397 30.1883 74.4278 31.6216 71.5217 33.7629L72.7081 35.3731ZM83.4972 31.3806L92.4972 30.0126L92.1967 28.0354L83.1967 29.4034L83.4972 31.3806ZM93.3469 29.024V28.016H91.3469V29.024H93.3469ZM93.3469 28.016C93.3469 26.0818 92.9445 24.4471 91.9423 23.3196L90.4475 24.6484C90.9813 25.2489 91.3469 26.3022 91.3469 28.016H93.3469ZM91.9423 23.3196C90.8982 22.145 89.2538 21.688 87.3069 21.688V23.688C89.0081 23.688 89.9557 24.095 90.4475 24.6484L91.9423 23.3196ZM87.3069 21.688C86.0942 21.688 85.0072 21.898 84.1003 22.3816L85.0415 24.1464C85.5747 23.862 86.3117 23.688 87.3069 23.688V21.688ZM84.1004 22.3816C83.2987 22.8092 82.4923 23.3851 81.6804 24.0954L82.9974 25.6006C83.7216 24.9669 84.4032 24.4868 85.0415 24.1464L84.1004 22.3816ZM81.6881 24.0887C81.0189 24.6624 80.5771 24.991 80.3308 25.1318L81.3231 26.8682C81.7487 26.625 82.315 26.1856 82.9897 25.6073L81.6881 24.0887ZM79.8906 25.6489C79.8698 25.7045 79.8702 25.6687 79.9328 25.6233C79.9621 25.6019 79.9921 25.5884 80.0163 25.5812C80.0391 25.5744 80.0476 25.576 80.0349 25.576V27.576C80.3999 27.576 80.7775 27.4819 81.1091 27.2407C81.4357 27.0032 81.6401 26.6795 81.7633 26.3511L79.8906 25.6489ZM80.0349 25.576H72.1869V27.576H80.0349V25.576ZM72.1869 25.576C71.9239 25.576 71.7526 25.5038 71.6137 25.3847L70.3121 26.9033C70.8453 27.3602 71.49 27.576 72.1869 27.576V25.576ZM71.7222 25.4932C71.6107 25.3632 71.58 25.2535 71.5968 25.1024L69.6091 24.8816C69.5298 25.5945 69.7391 26.2528 70.2037 26.7948L71.7222 25.4932ZM71.6023 25.029C71.6396 24.021 72.1343 22.7777 73.272 21.2759L71.6778 20.0681C70.4156 21.7343 69.6623 23.371 69.6036 24.955L71.6023 25.029ZM73.2604 21.2909C74.3819 19.8674 76.1078 18.5847 78.51 17.476L77.6719 15.66C75.0821 16.8553 73.064 18.3086 71.6894 20.0531L73.2604 21.2909ZM78.5034 17.479C80.8831 16.4014 83.8534 15.84 87.4509 15.84V13.84C83.6565 13.84 80.3868 14.4306 77.6784 15.657L78.5034 17.479ZM87.4509 15.84C93.2309 15.84 97.3028 17.1355 99.8731 19.5315L101.237 18.0685C98.143 15.1845 93.479 13.84 87.4509 13.84V15.84ZM99.8798 19.5377C102.473 21.911 103.803 25.1302 103.803 29.312H105.803C105.803 24.6618 104.301 20.873 101.23 18.0623L99.8798 19.5377ZM103.803 29.312V51.2H105.803V29.312H103.803ZM103.803 51.2C103.803 51.4217 103.734 51.6233 103.546 51.8375L105.052 53.1545C105.536 52.6007 105.803 51.9383 105.803 51.2H103.803ZM103.592 51.7889C103.465 51.9157 103.298 52 103.003 52V54C103.764 54 104.461 53.7483 105.006 53.2031L103.592 51.7889ZM103.003 52H94.6509V54H103.003V52ZM94.6509 52C94.4293 52 94.2276 51.9308 94.0134 51.7434L92.6964 53.2486C93.2502 53.7332 93.9126 54 94.6509 54V52ZM94.1075 51.8375C93.9201 51.6233 93.8509 51.4217 93.8509 51.2H91.8509C91.8509 51.9383 92.1178 52.6007 92.6024 53.1545L94.1075 51.8375ZM93.8509 51.2V48.68H91.8509V51.2H93.8509ZM92.0354 48.1013C91.0899 49.4336 89.7388 50.558 87.9397 51.4576L88.8342 53.2464C90.875 52.226 92.5 50.9024 93.6664 49.2587L92.0354 48.1013ZM87.949 51.453C86.2426 52.2843 84.1674 52.72 81.6909 52.72V54.72C84.3984 54.72 86.7872 54.2437 88.8249 53.251L87.949 51.453ZM85.0749 46.512C87.5231 46.512 89.577 45.7025 91.134 44.0343L89.6719 42.6697C88.5409 43.8815 87.0428 44.512 85.0749 44.512V46.512ZM91.1219 44.047C92.7546 42.358 93.4909 39.9569 93.4909 37.016H91.4909C91.4909 39.6431 90.8352 41.466 89.684 42.657L91.1219 44.047ZM93.4909 37.016V36.008H91.4909V37.016H93.4909ZM92.3172 35.0232L86.1972 36.1032L86.5447 38.0728L92.6647 36.9928L92.3172 35.0232ZM86.1959 36.1034C83.9758 36.4981 82.1905 37.1016 80.9375 37.9788C79.6419 38.8857 78.8909 40.1112 78.8909 41.624H80.8909C80.8909 40.8808 81.22 40.2223 82.0844 39.6172C82.9914 38.9824 84.4461 38.4459 86.546 38.0726L86.1959 36.1034ZM78.8909 41.624C78.8909 43.1591 79.561 44.4172 80.8217 45.3177L81.9842 43.6903C81.2289 43.1508 80.8909 42.4889 80.8909 41.624H78.8909ZM80.8482 45.336C82.0494 46.1369 83.4754 46.512 85.0749 46.512V44.512C83.7945 44.512 82.7724 44.2151 81.9576 43.6719L80.8482 45.336ZM116.96 49.4L116.303 50.1539L116.309 50.1593L116.96 49.4ZM111.56 37.232L110.56 37.257L110.56 37.2676L110.561 37.2782L111.56 37.232ZM111.488 34.352L110.488 34.3276L110.487 34.3523L110.488 34.377L111.488 34.352ZM111.56 31.4L110.56 31.363L110.56 31.3756L111.56 31.4ZM116.888 19.232L116.236 18.4735L116.231 18.4781L116.888 19.232ZM140.432 17.072L139.96 17.9539L139.969 17.9588L139.978 17.9634L140.432 17.072ZM146.696 22.328L145.858 22.8737L145.865 22.885L145.873 22.8962L146.696 22.328ZM148.928 27.872L147.929 27.929L147.931 27.9503L147.933 27.9715L148.928 27.872ZM148.424 29.168L149.131 29.8751L149.131 29.8751L148.424 29.168ZM136.76 29.312L137.4 28.5438L137.4 28.5438L136.76 29.312ZM135.968 28.232L135.035 28.593L135.052 28.637L135.073 28.6792L135.968 28.232ZM133.736 25.064L133.15 25.8747L133.161 25.8821L133.171 25.8893L133.736 25.064ZM124.232 31.76L123.232 31.7317L123.232 31.7337L124.232 31.76ZM124.16 34.496L123.16 34.4697L123.159 34.498L123.16 34.5263L124.16 34.496ZM124.232 36.872L123.232 36.9023L123.232 36.909L124.232 36.872ZM125.888 42.632L125.11 43.2603L125.123 43.2768L125.137 43.2926L125.888 42.632ZM133.88 43.496L134.465 44.3067L134.465 44.3067L133.88 43.496ZM135.968 40.328L135.073 39.8808L135.046 39.9357L135.025 39.9936L135.968 40.328ZM136.76 39.248L136.12 38.4798L136.12 38.4798L136.76 39.248ZM148.352 39.392L147.645 40.0991L147.695 40.1494L147.752 40.192L148.352 39.392ZM146.912 45.944L146.074 45.3983L146.069 45.4052L146.065 45.4122L146.912 45.944ZM140.72 51.416L141.196 52.2951L141.208 52.2888L140.72 51.416ZM130.136 52.72C124.894 52.72 120.751 51.3325 117.61 48.6407L116.309 50.1593C119.889 53.2275 124.529 54.72 130.136 54.72V52.72ZM117.617 48.6461C114.497 45.9272 112.788 42.1459 112.559 37.1858L110.561 37.2782C110.811 42.6861 112.703 47.0168 116.303 50.1539L117.617 48.6461ZM112.559 37.207L112.487 34.327L110.488 34.377L110.56 37.257L112.559 37.207ZM112.487 34.3764L112.559 31.4244L110.56 31.3756L110.488 34.3276L112.487 34.3764ZM112.559 31.437C112.743 26.4796 114.427 22.7024 117.545 19.9859L116.231 18.4781C112.628 21.6176 110.761 25.9524 110.56 31.363L112.559 31.437ZM117.539 19.9905C120.73 17.249 124.899 15.84 130.136 15.84V13.84C124.524 13.84 119.861 15.359 116.236 18.4735L117.539 19.9905ZM130.136 15.84C134.098 15.84 137.358 16.5628 139.96 17.9539L140.903 16.1901C137.938 14.6052 134.333 13.84 130.136 13.84V15.84ZM139.978 17.9634C142.698 19.3464 144.633 20.9934 145.858 22.8737L147.534 21.7823C146.07 19.5346 143.829 17.6776 140.885 16.1806L139.978 17.9634ZM145.873 22.8962C147.205 24.8259 147.848 26.4976 147.929 27.929L149.926 27.815C149.816 25.8864 148.97 23.8621 147.519 21.7598L145.873 22.8962ZM147.933 27.9715C147.947 28.1131 147.919 28.2589 147.717 28.4609L149.131 29.8751C149.697 29.3091 150.005 28.5909 149.923 27.7725L147.933 27.9715ZM147.717 28.4609C147.59 28.5877 147.423 28.672 147.128 28.672V30.672C147.889 30.672 148.586 30.4203 149.131 29.8751L147.717 28.4609ZM147.128 28.672H137.984V30.672H147.128V28.672ZM137.984 28.672C137.595 28.672 137.447 28.5831 137.4 28.5438L136.12 30.0802C136.648 30.5209 137.316 30.672 137.984 30.672V28.672ZM137.4 28.5438C137.253 28.4216 137.065 28.1906 136.862 27.7848L135.073 28.6792C135.35 29.2334 135.69 29.7224 136.12 30.0802L137.4 28.5438ZM136.9 27.871C136.282 26.2745 135.438 25.0171 134.3 24.2387L133.171 25.8893C133.857 26.3589 134.501 27.2135 135.035 28.593L136.9 27.871ZM134.321 24.2533C133.241 23.4734 131.89 23.128 130.352 23.128V25.128C131.598 25.128 132.502 25.4066 133.15 25.8747L134.321 24.2533ZM130.352 23.128C128.15 23.128 126.339 23.8523 125.09 25.4104C123.876 26.9239 123.307 29.0844 123.232 31.7317L125.231 31.7883C125.3 29.3476 125.824 27.6921 126.65 26.6616C127.44 25.6757 128.617 25.128 130.352 25.128V23.128ZM123.232 31.7337L123.16 34.4697L125.159 34.5223L125.231 31.7863L123.232 31.7337ZM123.16 34.5263L123.232 36.9023L125.231 36.8417L125.159 34.4657L123.16 34.5263ZM123.232 36.909C123.332 39.5941 123.905 41.7689 125.11 43.2603L126.666 42.0037C125.854 40.9991 125.324 39.3339 125.231 36.835L123.232 36.909ZM125.137 43.2926C126.421 44.7516 128.207 45.432 130.352 45.432V43.432C128.656 43.432 127.466 42.9124 126.638 41.9714L125.137 43.2926ZM130.352 45.432C131.969 45.432 133.375 45.0939 134.465 44.3067L133.294 42.6853C132.656 43.1461 131.71 43.432 130.352 43.432V45.432ZM134.465 44.3067C135.555 43.5192 136.345 42.2546 136.91 40.6624L135.025 39.9936C134.534 41.3774 133.932 42.2247 133.294 42.6853L134.465 44.3067ZM136.862 40.7752C137.065 40.3694 137.253 40.1384 137.4 40.0162L136.12 38.4798C135.69 38.8376 135.35 39.3266 135.073 39.8808L136.862 40.7752ZM137.4 40.0162C137.447 39.9769 137.595 39.888 137.984 39.888V37.888C137.316 37.888 136.648 38.0391 136.12 38.4798L137.4 40.0162ZM137.984 39.888H147.128V37.888H137.984V39.888ZM147.128 39.888C147.345 39.888 147.498 39.9528 147.645 40.0991L149.059 38.6849C148.533 38.1592 147.87 37.888 147.128 37.888V39.888ZM147.752 40.192C147.884 40.2911 147.928 40.3788 147.928 40.544H149.928C149.928 39.7492 149.587 39.0689 148.952 38.592L147.752 40.192ZM147.928 40.544C147.928 41.8018 147.37 43.4074 146.074 45.3983L147.75 46.4897C149.141 44.3526 149.928 42.3582 149.928 40.544H147.928ZM146.065 45.4122C144.883 47.295 142.964 49.0149 140.232 50.5432L141.208 52.2888C144.139 50.6491 146.349 48.721 147.759 46.4758L146.065 45.4122ZM140.243 50.537C137.596 51.9727 134.243 52.72 130.136 52.72V54.72C134.476 54.72 138.18 53.9313 141.196 52.295L140.243 50.537ZM155.9 52.496L155.148 53.1545L155.192 53.2047L155.242 53.2486L155.9 52.496ZM155.9 2.384L155.242 1.63142L155.217 1.65335L155.193 1.67689L155.9 2.384ZM166.844 2.384L166.137 3.0911L166.137 3.09111L166.844 2.384ZM167.348 27.8H166.348V30.3879L168.089 28.4724L167.348 27.8ZM177.356 16.784L176.649 16.0769L176.632 16.0938L176.616 16.1116L177.356 16.784ZM177.86 16.28L177.22 15.5118L177.185 15.5408L177.153 15.5729L177.86 16.28ZM178.724 15.776L179.041 16.7247L179.108 16.7022L179.172 16.6704L178.724 15.776ZM190.46 16.064L189.701 16.7148L189.751 16.7732L189.81 16.8233L190.46 16.064ZM190.388 18.368L189.788 17.568L189.717 17.6219L189.655 17.6878L190.388 18.368ZM177.428 32.336L176.695 31.6558L176.101 32.2967L176.656 32.9716L177.428 32.336ZM192.188 50.264L191.416 50.8996L191.447 50.9369L191.481 50.9711L192.188 50.264ZM192.26 52.568L192.968 53.2751L192.968 53.2751L192.26 52.568ZM179.804 52.712L179.25 53.5441L179.278 53.5632L179.308 53.5802L179.804 52.712ZM178.724 51.776L177.956 52.4154L177.985 52.4507L178.017 52.4831L178.724 51.776ZM167.348 38.096L168.117 37.4566L166.348 35.3295V38.096H167.348ZM166.844 52.496L167.552 53.2031L167.575 53.1796L167.597 53.1545L166.844 52.496ZM157.196 52C156.975 52 156.773 51.9308 156.559 51.7434L155.242 53.2486C155.796 53.7332 156.458 54 157.196 54V52ZM156.653 51.8375C156.466 51.6233 156.396 51.4217 156.396 51.2H154.396C154.396 51.9383 154.663 52.6007 155.148 53.1545L156.653 51.8375ZM156.396 51.2V3.68H154.396V51.2H156.396ZM156.396 3.68C156.396 3.38491 156.481 3.2179 156.608 3.09111L155.193 1.67689C154.648 2.22209 154.396 2.91908 154.396 3.68H156.396ZM156.559 3.13657C156.773 2.94915 156.975 2.88 157.196 2.88V0.879997C156.458 0.879997 155.796 1.14685 155.242 1.63142L156.559 3.13657ZM157.196 2.88H165.548V0.879997H157.196V2.88ZM165.548 2.88C165.844 2.88 166.011 2.96431 166.137 3.0911L167.552 1.67689C167.006 1.13169 166.309 0.879997 165.548 0.879997V2.88ZM166.137 3.09111C166.264 3.2179 166.348 3.38491 166.348 3.68H168.348C168.348 2.91908 168.097 2.22209 167.552 1.67689L166.137 3.09111ZM166.348 3.68V27.8H168.348V3.68H166.348ZM168.089 28.4724L178.097 17.4564L176.616 16.1116L166.608 27.1276L168.089 28.4724ZM178.064 17.4911C178.16 17.3951 178.328 17.2271 178.568 16.9871L177.153 15.5729C176.913 15.8129 176.745 15.9809 176.649 16.0769L178.064 17.4911ZM178.501 17.0482C178.715 16.8699 178.895 16.7732 179.041 16.7247L178.408 14.8273C177.978 14.9708 177.582 15.2101 177.22 15.5118L178.501 17.0482ZM179.172 16.6704C179.297 16.608 179.474 16.56 179.732 16.56V14.56C179.223 14.56 178.728 14.656 178.277 14.8816L179.172 16.6704ZM179.732 16.56H189.38V14.56H179.732V16.56ZM189.38 16.56C189.512 16.56 189.598 16.5942 189.701 16.7148L191.22 15.4132C190.747 14.8618 190.112 14.56 189.38 14.56V16.56ZM189.81 16.8233C189.93 16.9266 189.964 17.012 189.964 17.144H191.964C191.964 16.412 191.663 15.7774 191.111 15.3047L189.81 16.8233ZM189.964 17.144C189.964 17.3936 189.893 17.4896 189.788 17.568L190.988 19.168C191.652 18.6704 191.964 17.9504 191.964 17.144H189.964ZM189.655 17.6878L176.695 31.6558L178.162 33.0162L191.122 19.0482L189.655 17.6878ZM176.656 32.9716L191.416 50.8996L192.96 49.6284L178.2 31.7004L176.656 32.9716ZM191.481 50.9711C191.625 51.1149 191.701 51.223 191.738 51.2926C191.773 51.3585 191.764 51.3718 191.764 51.344H193.764C193.764 50.6191 193.356 50.0177 192.896 49.5569L191.481 50.9711ZM191.764 51.344C191.764 51.5618 191.7 51.7146 191.553 51.8609L192.968 53.2751C193.493 52.7494 193.764 52.0862 193.764 51.344H191.764ZM191.553 51.8609C191.486 51.9282 191.374 52 191.108 52V54C191.803 54 192.459 53.7838 192.968 53.2751L191.553 51.8609ZM191.108 52H181.244V54H191.108V52ZM181.244 52C180.699 52 180.42 51.9119 180.301 51.8438L179.308 53.5802C179.861 53.8961 180.542 54 181.244 54V52ZM180.359 51.8799C180.152 51.742 179.847 51.4839 179.432 51.0689L178.017 52.4831C178.466 52.9321 178.881 53.298 179.25 53.5441L180.359 51.8799ZM179.493 51.1366L168.117 37.4566L166.58 38.7354L177.956 52.4154L179.493 51.1366ZM166.348 38.096V51.2H168.348V38.096H166.348ZM166.348 51.2C166.348 51.4217 166.279 51.6233 166.092 51.8375L167.597 53.1545C168.082 52.6007 168.348 51.9383 168.348 51.2H166.348ZM166.137 51.7889C166.011 51.9157 165.844 52 165.548 52V54C166.309 54 167.006 53.7483 167.552 53.2031L166.137 51.7889ZM165.548 52H157.196V54H165.548V52ZM201.762 24.992H202.762V23.992H201.762V24.992ZM194.778 24.488L194.071 25.1951L194.094 25.2186L194.119 25.2406L194.778 24.488ZM194.778 16.064L194.119 15.3114L194.094 15.3333L194.071 15.3569L194.778 16.064ZM201.762 15.56V16.56H202.762V15.56H201.762ZM202.266 2.384L201.607 1.63142L201.582 1.65335L201.559 1.67689L202.266 2.384ZM213.21 2.384L212.503 3.0911L212.503 3.09111L213.21 2.384ZM213.714 15.56H212.714V16.56H213.714V15.56ZM224.01 16.064L223.303 16.7711L223.326 16.7947L223.351 16.8166L224.01 16.064ZM224.01 24.488L223.351 23.7354L223.326 23.7573L223.303 23.7809L224.01 24.488ZM213.714 24.992V23.992H212.714V24.992H213.714ZM224.658 43.64L225.365 42.9329L225.365 42.9329L224.658 43.64ZM224.658 52.496L225.365 53.2031L225.388 53.1796L225.41 53.1545L224.658 52.496ZM216.666 52C211.84 52 208.406 50.851 206.177 48.7296C203.957 46.6171 202.762 43.3769 202.762 38.816H200.762C200.762 43.7111 202.05 47.5629 204.798 50.1784C207.537 52.785 211.556 54 216.666 54V52ZM202.762 38.816V24.992H200.762V38.816H202.762ZM201.762 23.992H196.146V25.992H201.762V23.992ZM196.146 23.992C195.851 23.992 195.631 23.9059 195.436 23.7354L194.119 25.2406C194.692 25.7421 195.385 25.992 196.146 25.992V23.992ZM195.485 23.7809C195.358 23.6541 195.274 23.4871 195.274 23.192H193.274C193.274 23.9529 193.525 24.6499 194.071 25.1951L195.485 23.7809ZM195.274 23.192V17.36H193.274V23.192H195.274ZM195.274 17.36C195.274 17.0649 195.358 16.8979 195.485 16.7711L194.071 15.3569C193.525 15.9021 193.274 16.5991 193.274 17.36H195.274ZM195.436 16.8166C195.631 16.6461 195.851 16.56 196.146 16.56V14.56C195.385 14.56 194.692 14.8099 194.119 15.3114L195.436 16.8166ZM196.146 16.56H201.762V14.56H196.146V16.56ZM202.762 15.56V3.68H200.762V15.56H202.762ZM202.762 3.68C202.762 3.38491 202.846 3.2179 202.973 3.09111L201.559 1.67689C201.013 2.22209 200.762 2.91908 200.762 3.68H202.762ZM202.924 3.13657C203.138 2.94915 203.34 2.88 203.562 2.88V0.879997C202.823 0.879997 202.161 1.14685 201.607 1.63142L202.924 3.13657ZM203.562 2.88H211.914V0.879997H203.562V2.88ZM211.914 2.88C212.209 2.88 212.376 2.96431 212.503 3.0911L213.917 1.67689C213.372 1.13169 212.675 0.879997 211.914 0.879997V2.88ZM212.503 3.09111C212.629 3.2179 212.714 3.38491 212.714 3.68H214.714C214.714 2.91908 214.462 2.22209 213.917 1.67689L212.503 3.09111ZM212.714 3.68V15.56H214.714V3.68H212.714ZM213.714 16.56H222.714V14.56H213.714V16.56ZM222.714 16.56C223.009 16.56 223.176 16.6443 223.303 16.7711L224.717 15.3569C224.172 14.8117 223.475 14.56 222.714 14.56V16.56ZM223.351 16.8166C223.51 16.9553 223.586 17.1089 223.586 17.36H225.586C225.586 16.5551 225.278 15.8447 224.668 15.3114L223.351 16.8166ZM223.586 17.36V23.192H225.586V17.36H223.586ZM223.586 23.192C223.586 23.4431 223.51 23.5967 223.351 23.7354L224.668 25.2406C225.278 24.7073 225.586 23.9969 225.586 23.192H223.586ZM223.303 23.7809C223.176 23.9077 223.009 23.992 222.714 23.992V25.992C223.475 25.992 224.172 25.7403 224.717 25.1951L223.303 23.7809ZM222.714 23.992H213.714V25.992H222.714V23.992ZM212.714 24.992V37.808H214.714V24.992H212.714ZM212.714 37.808C212.714 39.6844 213.07 41.2753 213.947 42.4142C214.863 43.6026 216.215 44.136 217.818 44.136V42.136C216.684 42.136 215.984 41.7814 215.532 41.1938C215.041 40.5567 214.714 39.4836 214.714 37.808H212.714ZM217.818 44.136H223.362V42.136H217.818V44.136ZM223.362 44.136C223.657 44.136 223.824 44.2203 223.951 44.3471L225.365 42.9329C224.82 42.3877 224.123 42.136 223.362 42.136V44.136ZM223.951 44.3471C224.077 44.4739 224.162 44.6409 224.162 44.936H226.162C226.162 44.1751 225.91 43.4781 225.365 42.9329L223.951 44.3471ZM224.162 44.936V51.2H226.162V44.936H224.162ZM224.162 51.2C224.162 51.4217 224.092 51.6233 223.905 51.8375L225.41 53.1545C225.895 52.6007 226.162 51.9383 226.162 51.2H224.162ZM223.951 51.7889C223.824 51.9157 223.657 52 223.362 52V54C224.123 54 224.82 53.7483 225.365 53.2031L223.951 51.7889ZM223.362 52H216.666V54H223.362V52ZM235.371 52.28L234.932 53.1786L234.945 53.1846L234.957 53.1904L235.371 52.28ZM230.475 48.248L229.643 48.8027L229.652 48.8161L229.661 48.8292L230.475 48.248ZM232.779 34.568L232.186 33.7629L232.179 33.768L232.779 34.568ZM244.011 30.392L243.861 29.4033L243.851 29.4048L244.011 30.392ZM253.011 29.024L253.161 30.0126L254.011 29.8835V29.024H253.011ZM251.859 23.984L251.112 24.6484L251.112 24.6484L251.859 23.984ZM245.235 23.264L245.706 24.1464L245.706 24.1464L245.235 23.264ZM243.003 24.848L243.654 25.6073L243.662 25.6006L243.003 24.848ZM241.491 26L240.995 25.1318L240.681 25.3109L240.555 25.6489L241.491 26ZM231.627 26.144L230.868 26.7948L230.918 26.8532L230.976 26.9033L231.627 26.144ZM231.267 24.992L232.261 25.1024L232.265 25.0658L232.266 25.029L231.267 24.992ZM233.139 20.672L232.354 20.0531L232.348 20.0606L232.342 20.0681L233.139 20.672ZM238.755 16.568L238.342 15.657L238.336 15.66L238.755 16.568ZM261.219 18.8L260.537 19.5315L260.544 19.5377L261.219 18.8ZM264.963 52.496L265.67 53.2031L265.694 53.1796L265.716 53.1545L264.963 52.496ZM254.019 52.496L253.266 53.1545L253.31 53.2047L253.36 53.2486L254.019 52.496ZM253.515 48.68H254.515V45.543L252.699 48.1013L253.515 48.68ZM249.051 52.352L249.489 53.251L249.498 53.2464L249.051 52.352ZM251.067 43.352L250.348 42.657L250.342 42.6633L250.336 42.6697L251.067 43.352ZM253.155 36.008H254.155V34.8161L252.981 35.0232L253.155 36.008ZM247.035 37.088L246.861 36.1032L246.86 36.1034L247.035 37.088ZM242.067 44.504L241.486 45.3177L241.499 45.3271L241.512 45.336L242.067 44.504ZM242.355 52.72C239.94 52.72 237.755 52.2651 235.785 51.3696L234.957 53.1904C237.211 54.2149 239.682 54.72 242.355 54.72V52.72ZM235.81 51.3814C233.878 50.438 232.382 49.1968 231.289 47.6668L229.661 48.8292C230.968 50.6592 232.736 52.106 234.932 53.1786L235.81 51.3814ZM231.307 47.6933C230.264 46.1285 229.747 44.4253 229.747 42.56H227.747C227.747 44.8227 228.382 46.9115 229.643 48.8027L231.307 47.6933ZM229.747 42.56C229.747 39.5681 230.939 37.1984 233.379 35.368L232.179 33.768C229.243 35.9696 227.747 38.9279 227.747 42.56H229.747ZM233.372 35.3731C235.938 33.4824 239.514 32.1317 244.171 31.3792L243.851 29.4048C239.004 30.1883 235.092 31.6216 232.186 33.7629L233.372 35.3731ZM244.161 31.3806L253.161 30.0126L252.861 28.0354L243.861 29.4034L244.161 31.3806ZM254.011 29.024V28.016H252.011V29.024H254.011ZM254.011 28.016C254.011 26.0818 253.609 24.4471 252.606 23.3196L251.112 24.6484C251.645 25.2489 252.011 26.3022 252.011 28.016H254.011ZM252.606 23.3196C251.562 22.145 249.918 21.688 247.971 21.688V23.688C249.672 23.688 250.62 24.095 251.112 24.6484L252.606 23.3196ZM247.971 21.688C246.758 21.688 245.671 21.898 244.764 22.3816L245.706 24.1464C246.239 23.862 246.976 23.688 247.971 23.688V21.688ZM244.764 22.3816C243.963 22.8092 243.156 23.3851 242.344 24.0954L243.662 25.6006C244.386 24.9669 245.067 24.4868 245.706 24.1464L244.764 22.3816ZM242.352 24.0887C241.683 24.6624 241.241 24.991 240.995 25.1318L241.987 26.8682C242.413 26.625 242.979 26.1856 243.654 25.6073L242.352 24.0887ZM240.555 25.6489C240.534 25.7045 240.534 25.6687 240.597 25.6233C240.626 25.6019 240.656 25.5884 240.68 25.5812C240.703 25.5744 240.712 25.576 240.699 25.576V27.576C241.064 27.576 241.442 27.4819 241.773 27.2407C242.1 27.0032 242.304 26.6795 242.427 26.3511L240.555 25.6489ZM240.699 25.576H232.851V27.576H240.699V25.576ZM232.851 25.576C232.588 25.576 232.417 25.5038 232.278 25.3847L230.976 26.9033C231.509 27.3602 232.154 27.576 232.851 27.576V25.576ZM232.386 25.4932C232.275 25.3632 232.244 25.2535 232.261 25.1024L230.273 24.8816C230.194 25.5945 230.403 26.2528 230.868 26.7948L232.386 25.4932ZM232.266 25.029C232.304 24.021 232.798 22.7777 233.936 21.2759L232.342 20.0681C231.08 21.7343 230.326 23.371 230.268 24.955L232.266 25.029ZM233.924 21.2909C235.046 19.8674 236.772 18.5847 239.174 17.476L238.336 15.66C235.746 16.8553 233.728 18.3086 232.354 20.0531L233.924 21.2909ZM239.168 17.479C241.547 16.4014 244.517 15.84 248.115 15.84V13.84C244.321 13.84 241.051 14.4306 238.342 15.657L239.168 17.479ZM248.115 15.84C253.895 15.84 257.967 17.1355 260.537 19.5315L261.901 18.0685C258.807 15.1845 254.143 13.84 248.115 13.84V15.84ZM260.544 19.5377C263.137 21.911 264.467 25.1302 264.467 29.312H266.467C266.467 24.6618 264.965 20.873 261.894 18.0623L260.544 19.5377ZM264.467 29.312V51.2H266.467V29.312H264.467ZM264.467 51.2C264.467 51.4217 264.398 51.6233 264.21 51.8375L265.716 53.1545C266.2 52.6007 266.467 51.9383 266.467 51.2H264.467ZM264.256 51.7889C264.129 51.9157 263.962 52 263.667 52V54C264.428 54 265.125 53.7483 265.67 53.2031L264.256 51.7889ZM263.667 52H255.315V54H263.667V52ZM255.315 52C255.093 52 254.892 51.9308 254.678 51.7434L253.36 53.2486C253.914 53.7332 254.577 54 255.315 54V52ZM254.772 51.8375C254.584 51.6233 254.515 51.4217 254.515 51.2H252.515C252.515 51.9383 252.782 52.6007 253.266 53.1545L254.772 51.8375ZM254.515 51.2V48.68H252.515V51.2H254.515ZM252.699 48.1013C251.754 49.4336 250.403 50.558 248.604 51.4576L249.498 53.2464C251.539 52.226 253.164 50.9024 254.331 49.2587L252.699 48.1013ZM248.613 51.453C246.907 52.2843 244.832 52.72 242.355 52.72V54.72C245.062 54.72 247.451 54.2437 249.489 53.251L248.613 51.453ZM245.739 46.512C248.187 46.512 250.241 45.7025 251.798 44.0343L250.336 42.6697C249.205 43.8815 247.707 44.512 245.739 44.512V46.512ZM251.786 44.047C253.419 42.358 254.155 39.9569 254.155 37.016H252.155C252.155 39.6431 251.499 41.466 250.348 42.657L251.786 44.047ZM254.155 37.016V36.008H252.155V37.016H254.155ZM252.981 35.0232L246.861 36.1032L247.209 38.0728L253.329 36.9928L252.981 35.0232ZM246.86 36.1034C244.64 36.4981 242.855 37.1016 241.602 37.9788C240.306 38.8857 239.555 40.1112 239.555 41.624H241.555C241.555 40.8808 241.884 40.2223 242.748 39.6172C243.655 38.9824 245.11 38.4459 247.21 38.0726L246.86 36.1034ZM239.555 41.624C239.555 43.1591 240.225 44.4172 241.486 45.3177L242.648 43.6903C241.893 43.1508 241.555 42.4889 241.555 41.624H239.555ZM241.512 45.336C242.714 46.1369 244.139 46.512 245.739 46.512V44.512C244.459 44.512 243.436 44.2151 242.622 43.6719L241.512 45.336ZM274.096 52.496L273.343 53.1545L273.387 53.2047L273.437 53.2486L274.096 52.496ZM274.096 2.384L273.437 1.63142L273.412 1.65335L273.389 1.67689L274.096 2.384ZM285.04 2.384L284.333 3.0911L284.333 3.09111L285.04 2.384ZM285.544 27.8H284.544V30.3879L286.284 28.4724L285.544 27.8ZM295.552 16.784L294.845 16.0769L294.828 16.0938L294.812 16.1116L295.552 16.784ZM296.056 16.28L295.416 15.5118L295.381 15.5408L295.349 15.5729L296.056 16.28ZM296.92 15.776L297.236 16.7247L297.303 16.7022L297.367 16.6704L296.92 15.776ZM308.656 16.064L307.896 16.7148L307.947 16.7732L308.005 16.8233L308.656 16.064ZM308.584 18.368L307.984 17.568L307.912 17.6219L307.851 17.6878L308.584 18.368ZM295.624 32.336L294.891 31.6558L294.296 32.2967L294.852 32.9716L295.624 32.336ZM310.384 50.264L309.612 50.8996L309.642 50.9369L309.677 50.9711L310.384 50.264ZM310.456 52.568L311.163 53.2751L311.163 53.2751L310.456 52.568ZM298 52.712L297.445 53.5441L297.474 53.5632L297.504 53.5802L298 52.712ZM296.92 51.776L296.151 52.4154L296.18 52.4507L296.213 52.4831L296.92 51.776ZM285.544 38.096L286.313 37.4566L284.544 35.3295V38.096H285.544ZM285.04 52.496L285.747 53.2031L285.77 53.1796L285.792 53.1545L285.04 52.496ZM275.392 52C275.17 52 274.968 51.9308 274.754 51.7434L273.437 53.2486C273.991 53.7332 274.653 54 275.392 54V52ZM274.848 51.8375C274.661 51.6233 274.592 51.4217 274.592 51.2H272.592C272.592 51.9383 272.859 52.6007 273.343 53.1545L274.848 51.8375ZM274.592 51.2V3.68H272.592V51.2H274.592ZM274.592 3.68C274.592 3.38491 274.676 3.2179 274.803 3.09111L273.389 1.67689C272.843 2.22209 272.592 2.91908 272.592 3.68H274.592ZM274.754 3.13657C274.968 2.94915 275.17 2.88 275.392 2.88V0.879997C274.653 0.879997 273.991 1.14685 273.437 1.63142L274.754 3.13657ZM275.392 2.88H283.744V0.879997H275.392V2.88ZM283.744 2.88C284.039 2.88 284.206 2.96431 284.333 3.0911L285.747 1.67689C285.202 1.13169 284.505 0.879997 283.744 0.879997V2.88ZM284.333 3.09111C284.459 3.2179 284.544 3.38491 284.544 3.68H286.544C286.544 2.91908 286.292 2.22209 285.747 1.67689L284.333 3.09111ZM284.544 3.68V27.8H286.544V3.68H284.544ZM286.284 28.4724L296.292 17.4564L294.812 16.1116L284.804 27.1276L286.284 28.4724ZM296.259 17.4911C296.355 17.3951 296.523 17.2271 296.763 16.9871L295.349 15.5729C295.109 15.8129 294.941 15.9809 294.845 16.0769L296.259 17.4911ZM296.696 17.0482C296.91 16.8699 297.09 16.7732 297.236 16.7247L296.604 14.8273C296.173 14.9708 295.778 15.2101 295.416 15.5118L296.696 17.0482ZM297.367 16.6704C297.492 16.608 297.669 16.56 297.928 16.56V14.56C297.418 14.56 296.924 14.656 296.473 14.8816L297.367 16.6704ZM297.928 16.56H307.576V14.56H297.928V16.56ZM307.576 16.56C307.708 16.56 307.793 16.5942 307.896 16.7148L309.415 15.4132C308.942 14.8618 308.308 14.56 307.576 14.56V16.56ZM308.005 16.8233C308.126 16.9266 308.16 17.012 308.16 17.144H310.16C310.16 16.412 309.858 15.7774 309.307 15.3047L308.005 16.8233ZM308.16 17.144C308.16 17.3936 308.088 17.4896 307.984 17.568L309.184 19.168C309.847 18.6704 310.16 17.9504 310.16 17.144H308.16ZM307.851 17.6878L294.891 31.6558L296.357 33.0162L309.317 19.0482L307.851 17.6878ZM294.852 32.9716L309.612 50.8996L311.156 49.6284L296.396 31.7004L294.852 32.9716ZM309.677 50.9711C309.82 51.1149 309.896 51.223 309.933 51.2926C309.969 51.3585 309.96 51.3718 309.96 51.344H311.96C311.96 50.6191 311.552 50.0177 311.091 49.5569L309.677 50.9711ZM309.96 51.344C309.96 51.5618 309.895 51.7146 309.749 51.8609L311.163 53.2751C311.689 52.7494 311.96 52.0862 311.96 51.344H309.96ZM309.749 51.8609C309.681 51.9282 309.569 52 309.304 52V54C309.998 54 310.654 53.7838 311.163 53.2751L309.749 51.8609ZM309.304 52H299.44V54H309.304V52ZM299.44 52C298.894 52 298.615 51.9119 298.496 51.8438L297.504 53.5802C298.056 53.8961 298.737 54 299.44 54V52ZM298.554 51.8799C298.348 51.742 298.042 51.4839 297.627 51.0689L296.213 52.4831C296.662 52.9321 297.076 53.298 297.445 53.5441L298.554 51.8799ZM297.689 51.1366L286.313 37.4566L284.775 38.7354L296.151 52.4154L297.689 51.1366ZM284.544 38.096V51.2H286.544V38.096H284.544ZM284.544 51.2C284.544 51.4217 284.475 51.6233 284.287 51.8375L285.792 53.1545C286.277 52.6007 286.544 51.9383 286.544 51.2H284.544ZM284.333 51.7889C284.206 51.9157 284.039 52 283.744 52V54C284.505 54 285.202 53.7483 285.747 53.2031L284.333 51.7889ZM283.744 52H275.392V54H283.744V52Z" fill="#51509C"/>
</svg>
