<svg width="50" height="50" viewBox="0 0 512 512" fill="none" xmlns="http://www.w3.org/2000/svg">
<g clip-path="url(#clip0_817:4)">
<path d="M255.616 511.249C396.789 511.249 511.232 396.806 511.232 255.633C511.232 114.46 396.789 0.0170898 255.616 0.0170898C114.443 0.0170898 0 114.46 0 255.633C0 396.806 114.443 511.249 255.616 511.249Z" fill="#65B1EF"/>
<path d="M131.392 470.129C131.344 470.225 131.28 470.289 131.232 470.385C131.616 470.481 131.984 470.609 132.368 470.689L131.392 470.129ZM115.312 109.857L114.8 108.817C119.072 108.177 119.36 105.169 122.608 104.065C126.304 102.849 125.04 104.177 128.672 104.065C131.616 103.937 133.408 106.081 136.768 104.513C135.952 105.953 134.624 106.945 133.296 107.921C130.528 109.889 127.696 111.905 124.4 112.673C121.104 113.425 117.232 112.625 115.312 109.857Z" fill="#E9EFF4"/>
<path d="M166.448 337.697C166.384 339.953 165.056 341.921 163.904 343.825C158.768 352.209 155.648 361.921 154.96 371.761C154.272 381.185 154.688 392.801 146.48 397.441C141.792 400.049 135.2 399.585 132.08 403.985C131.104 405.313 130.64 406.993 130.176 408.561C128.16 415.905 126.128 423.249 124.112 430.593C121.49 430.359 118.871 430.092 116.256 429.793C119.328 430.769 121.456 434.929 119.616 437.777C116.672 436.225 112.8 438.065 111.168 441.025C109.616 443.969 109.84 447.553 110.704 450.801C113.376 460.401 121.584 468.145 131.248 470.449C129.568 473.633 124.432 472.241 121.296 470.113C98.9121 454.977 82.0161 431.921 74.3041 406.017C71.5841 396.881 69.8401 387.169 64.5121 379.313C60.0641 372.673 53.3441 367.809 48.8961 361.169C42.6561 351.633 41.4881 339.265 34.2561 330.545C30.2081 325.569 23.9521 319.457 27.5361 314.129C28.9761 311.937 32.0481 309.857 30.8321 307.537C30.4321 306.785 29.6161 306.321 28.9761 305.681C26.5441 303.073 28.2241 298.977 29.4401 295.617C31.4561 289.777 31.4561 283.537 30.5921 277.297C24.5121 271.857 19.7121 265.105 16.7041 257.521C14.9121 252.897 12.5281 247.121 7.56806 247.057C6.28806 243.473 4.96006 239.889 3.68006 236.305C3.21606 237.585 1.95206 238.385 0.560059 238.561C4.40006 179.985 28.0161 126.833 64.7681 85.649C65.5841 85.297 66.3841 84.833 67.2001 84.369C75.9201 79.281 82.8641 71.649 91.2961 66.097C93.0241 64.945 94.9921 63.841 97.1361 64.065C99.2161 64.241 101.184 66.369 100.432 68.337C100.144 69.153 99.4561 69.793 98.7521 70.305C88.8492 78.7317 78.0544 86.0499 66.5601 92.129C65.1841 92.817 63.7281 93.633 63.1041 95.025C61.9361 97.393 63.9041 100.337 66.4001 101.201C68.8801 102.065 71.6641 101.553 74.2081 100.977C72.0641 104.033 71.4241 108.145 72.5281 111.729C74.8961 111.953 75.6481 108.721 76.3521 106.465C79.2321 97.505 93.5201 93.857 92.5921 84.417C96.4641 86.433 100.4 81.921 102.768 78.225C105.136 74.465 110.4 70.769 113.296 74.065C113.456 75.905 113.68 77.761 113.856 79.617C118.944 78.337 124.096 77.009 129.184 75.729C126.288 77.761 125.312 82.097 126.976 85.217C128.656 88.337 132.816 89.905 136.112 88.625C136.064 91.345 133.632 93.425 131.424 95.041C125.824 99.265 119.808 103.601 113.28 105.681L114.784 108.801C114.624 108.865 114.448 108.929 114.272 108.929C110.112 109.329 105.712 106.337 101.264 106.913C98.5441 107.265 95.2001 107.265 93.6321 110.033C93.4081 110.385 92.4321 115.233 93.1201 114.833C95.5521 113.441 97.9681 112.049 100.352 110.673C101.088 112.641 101.264 114.833 100.864 116.977C103.808 116.689 106.88 117.313 109.488 118.881C106.768 125.185 99.7761 129.409 92.8961 128.881C92.8321 126.801 92.7201 124.721 92.6561 122.641C86.9921 122.177 82.3681 127.041 79.5361 131.905C76.6561 136.817 74.4641 142.433 69.7121 145.553C66.8321 147.521 63.2961 148.273 60.1761 149.889C57.1201 151.569 54.2881 154.753 54.9281 158.161C55.2161 159.777 56.2561 161.281 56.2081 162.961C56.0321 166.081 52.4001 167.537 49.9681 169.553C45.8081 173.025 44.7681 179.393 40.3201 182.449C37.0881 184.705 32.8001 184.657 29.0401 185.809C25.2801 186.961 21.5201 190.721 23.0401 194.369C21.1841 195.009 18.9281 193.617 18.7521 191.649C12.1121 204.721 7.72806 218.945 5.93606 233.521C9.23206 235.825 12.5761 230.561 13.2161 226.577C13.9041 222.593 17.3761 217.377 20.6081 219.745C19.8561 225.473 19.1041 231.137 18.3681 236.865C18.1921 237.969 18.0801 239.121 18.6081 240.097C19.2481 241.313 20.6241 241.825 21.6801 242.689C24.6241 245.233 24.2241 249.745 24.4001 253.617C24.5761 258.353 26.1441 262.977 28.6241 267.025C28.3841 266.209 28.2241 265.409 28.0481 264.593C32.5601 265.169 37.2481 263.713 40.6561 260.705C42.4481 259.089 43.9521 257.009 46.2081 256.193C48.5281 255.329 51.0721 255.953 53.4401 256.593C60.7841 258.609 68.5921 260.865 73.5041 266.641C75.9841 269.585 77.5521 273.297 80.5121 275.713C87.2161 281.377 98.5601 278.881 104.688 285.185C109.6 290.273 108.688 298.481 107.36 305.473C104 303.633 99.5041 308.257 101.472 311.553C103.264 309.585 105.344 307.505 107.952 307.505C110.608 307.441 112.928 311.089 110.96 312.769C115.584 306.865 126.912 309.297 128.704 316.641C135.184 317.105 141.712 317.553 148.192 318.081C146.944 327.585 166.848 328.145 166.448 337.697ZM127.04 70.193C124.544 71.425 121.104 70.033 120.176 67.409C119.232 64.785 121.008 61.537 123.728 60.913C125.44 60.513 127.824 60.705 128.352 59.025C128.512 58.513 128.416 57.953 128.416 57.425C128.352 54.257 131.184 51.633 134.24 50.833C137.296 50.049 140.528 50.657 143.632 51.265C144.738 53.574 145.053 56.1831 144.528 58.689C142.4 58.785 140.272 58.865 138.144 58.961C138.336 62.497 137.984 66.945 134.704 68.257C131.76 69.425 127.92 67.249 125.472 69.233L127.04 70.193ZM160.176 34.881C165.984 32.097 170.896 27.713 176.624 24.769C186.48 19.713 197.984 19.265 209.056 18.913L284.656 16.561C278.816 19.761 272.976 22.977 267.12 26.177C262.352 28.801 256.928 31.489 251.696 30.001C251.584 34.209 255.408 38.113 259.632 38.081C249.28 44.481 234.912 37.937 223.984 43.313C219.408 45.569 215.712 49.825 210.672 50.625C207.76 51.089 204.736 50.305 201.84 50.945C196.992 52.001 193.936 56.593 190.352 60.017C186.224 63.969 180.16 66.673 174.768 64.785C169.376 62.897 166.56 54.881 170.88 51.137C173.008 49.297 176.048 48.993 178.56 47.697C181.072 46.417 183.056 42.977 181.168 40.881C180.352 39.969 179.008 39.617 178.256 38.641C177.44 37.585 177.52 36.081 176.848 34.929C174.288 30.433 167.168 36.481 162.32 34.673L160.176 34.881ZM236.704 56.145C240.112 55.361 243.072 53.345 246.256 51.873C249.44 50.401 253.232 49.537 256.352 51.089C257.28 53.409 254.608 55.521 252.256 56.353C247.724 57.9413 242.866 58.3649 238.128 57.585L236.704 56.145ZM442.736 81.569C441.768 81.6843 440.787 81.6247 439.84 81.393C435.504 80.465 432.208 77.121 428.496 74.689C419.936 69.025 408.256 68.289 399.008 72.913C401.2 69.729 402.304 65.793 402.064 61.921L400.736 62.385C385.584 53.601 367.824 44.481 351.296 50.385C347.472 51.777 344.016 53.857 340.144 55.185C336.032 56.625 331.472 57.217 327.952 59.761C324.368 62.305 322.464 67.921 325.536 70.977C328.144 73.585 332.304 72.881 335.952 73.233C339.536 73.585 343.648 77.153 341.68 80.225C325.84 87.633 309.952 95.105 294.112 102.577C301.392 104.945 306.208 113.201 304.64 120.721C299.312 121.649 294.176 118.417 288.8 118.065C280.992 117.665 273.536 124.545 273.376 132.353C273.152 140.161 280.32 147.377 288.128 147.265C293.968 147.201 299.696 143.681 305.36 145.169C305.584 139.841 309.232 135.329 312.976 131.521C320.256 124.225 330.656 117.633 340.384 121.217C343.568 122.369 346.288 124.513 348.944 126.641C354.784 131.265 360.624 135.937 366.48 140.625C368.336 138.721 370.176 136.801 372.032 134.961C375.216 138.321 378.4 141.665 381.632 145.073C383.248 143.969 384.928 142.929 386.544 141.825C387.696 144.833 388.912 147.777 390.08 150.785C390.544 147.489 390.944 144.257 391.344 141.009C395.168 141.121 399.216 141.233 402.672 139.505C406.144 137.825 408.688 133.665 407.232 130.081C406.48 128.177 404.688 126.673 404.336 124.641C403.584 120.593 409.36 117.825 413.12 119.665C416.816 121.457 418.672 125.681 420.24 129.553C421.104 125.617 421.904 121.745 422.784 117.809C426.417 127.325 431.59 136.18 438.096 144.017C426.24 141.761 413.744 143.057 402.656 147.617C406.192 152.593 412.256 155.537 418.336 155.297C421.056 155.233 424.064 154.609 426.144 156.337C427.712 157.665 428.112 159.809 428.4 161.777C429.328 167.329 430.256 172.817 431.12 178.305C424.864 173.169 415.856 173.745 407.696 173.585C399.536 173.361 390 171.105 386.992 163.537C383.76 167.185 382.32 172.385 383.248 177.249C374.8 175.233 365.088 172.001 362.656 163.665C356.064 166.097 347.856 161.889 346.064 155.121C345.424 152.753 345.248 149.857 343.168 148.593C341.904 147.841 340.272 147.953 338.768 148.129C326.224 149.585 313.728 150.977 301.248 152.433C294.432 153.249 287.376 154.065 281.36 157.409C275.344 160.705 270.56 167.185 271.248 174.017C259.744 180.849 249.984 190.737 243.392 202.369C241.312 205.953 239.52 210.065 240.336 214.113C240.912 217.233 242.992 219.889 243.632 222.961C244.736 228.225 241.728 233.313 240.464 238.513C236.88 253.313 248.112 267.249 258.528 278.449C263.44 283.649 269.12 289.313 276.288 289.601C280.736 289.777 284.96 287.809 289.12 286.177C301.024 281.489 313.984 279.345 326.752 279.857C323.856 282.113 326.864 287.025 330.464 287.777C334.048 288.529 337.92 287.361 341.392 288.577C349.312 291.409 348.224 303.025 344.64 310.609C346.432 310.257 348.288 309.905 350.128 309.569C349.158 312.096 348.176 314.619 347.184 317.137C358.048 318.513 362.16 332.801 359.632 343.489C357.152 354.193 350.8 364.017 350.624 375.009C350.576 381.025 352.416 386.865 354.272 392.577C358.912 407.089 363.536 421.601 368.176 436.161C381.136 437.713 388.576 421.233 400.608 416.081C405.12 414.113 410.432 413.713 413.968 410.353C417.376 407.121 416.272 399.537 411.888 399.537C417.84 398.897 422.928 393.457 423.104 387.441C423.168 385.761 422.928 384.081 423.152 382.417C423.552 380.049 425.056 377.969 426.496 375.937C435.68 362.753 441.632 347.649 447.584 332.737C449.136 328.737 450.704 324.817 452.256 320.817C458.144 305.953 463.984 291.153 469.872 276.289C472.176 270.449 474.496 264.673 476.8 258.817C473.616 264.081 465.296 263.393 460.544 259.457C455.744 255.537 453.248 249.569 449.488 244.657C446.304 240.433 442.016 236.689 440.512 231.537C439.648 228.593 439.808 225.409 439.296 222.337C438.128 215.681 433.744 210.145 430.736 204.129C427.728 198.113 426.16 190.321 430.384 185.041C442.544 206.257 453.6 228.097 463.6 250.481C464.704 247.009 467.248 244.001 470.48 242.321C472.848 241.041 475.504 240.529 478 239.489C484.592 236.593 489.152 229.601 489.152 222.433C489.088 215.265 484.528 208.273 477.872 205.441C474.576 204.049 470.816 203.601 467.696 201.681C464.576 199.841 462.32 195.617 464.288 192.545C466.128 189.649 470.592 189.713 473.648 191.329C476.72 193.009 478.976 195.841 481.856 197.745C483.936 199.137 486.368 200.049 488.624 201.329C500.832 208.321 503.84 224.225 506.4 238.097C507.792 245.553 509.36 252.961 511.216 260.241C511.28 258.673 511.264 257.057 511.264 255.505C511.2 188.273 485.2 127.169 442.736 81.569ZM466.144 165.569C464.464 165.457 462.912 164.353 461.568 163.313C459.376 161.585 457.168 159.553 456.528 156.833C455.776 153.601 457.328 149.889 455.6 147.009C454.784 145.617 453.344 144.753 452.128 143.777C448.944 141.233 446.624 137.585 445.76 133.665C445.008 130.193 446.096 125.569 449.632 124.993C451.312 124.705 453.152 125.633 453.904 127.185L451.536 128.465C455.52 128.929 457.376 134.945 454.32 137.537C453.92 137.937 453.392 138.289 453.392 138.865C453.392 139.217 453.616 139.553 453.92 139.793C456.4 142.513 460.112 143.489 463.344 145.217C466.576 146.897 469.76 150.017 469.248 153.601C468.208 154.001 467.232 154.353 466.192 154.753C465.088 155.857 465.968 157.825 467.12 158.913C468.272 160.001 469.776 161.105 469.84 162.721C469.84 164.465 467.872 165.681 466.144 165.569ZM467.808 343.457L463.632 346.417C465.088 351.537 462.176 357.537 457.232 359.537C454.624 360.593 451.152 361.057 450.272 363.729C449.536 366.001 451.296 368.305 451.536 370.673C451.92 374.609 448.24 377.553 445.584 380.481C442.928 383.409 441.52 388.913 445.056 390.673C445.872 391.089 446.816 391.169 447.728 391.249C451.568 391.585 455.776 391.697 458.912 389.457C467.904 383.041 459.36 365.633 468.24 359.041C469.504 358.113 471.088 357.441 471.776 356.033C473.872 351.889 466.144 347.777 467.808 343.457Z" fill="#E9EFF4"/>
</g>
<defs>
<clipPath id="clip0_817:4">
<rect width="511.266" height="511.266" fill="white"/>
</clipPath>
</defs>
</svg>
