<svg width="402" height="292" viewBox="0 0 402 292" fill="none" xmlns="http://www.w3.org/2000/svg">
<g clip-path="url(#clip0)">
<path d="M217.881 233C178.137 233 158.265 214.088 158.265 176.264V120.968H135.801C133.689 120.968 131.865 120.296 130.329 118.952C128.985 117.608 128.313 115.88 128.313 113.768V90.44C128.313 88.328 128.985 86.6 130.329 85.256C131.865 83.912 133.689 83.24 135.801 83.24H158.265V35.72C158.265 33.608 158.937 31.88 160.281 30.536C161.817 29.192 163.545 28.52 165.465 28.52H198.873C200.985 28.52 202.713 29.192 204.057 30.536C205.401 31.88 206.073 33.608 206.073 35.72V83.24H242.073C244.185 83.24 245.913 83.912 247.257 85.256C248.793 86.6 249.561 88.328 249.561 90.44V113.768C249.561 115.88 248.793 117.608 247.257 118.952C245.913 120.296 244.185 120.968 242.073 120.968H206.073V172.232C206.073 186.44 211.545 193.544 222.489 193.544H244.665C246.777 193.544 248.505 194.216 249.849 195.56C251.193 196.904 251.865 198.632 251.865 200.744V225.8C251.865 227.72 251.193 229.448 249.849 230.984C248.505 232.328 246.777 233 244.665 233H217.881Z" fill="#51509C"/>
<path d="M158.265 120.968H159.265V119.968H158.265V120.968ZM130.329 118.952L129.622 119.659L129.646 119.683L129.671 119.705L130.329 118.952ZM130.329 85.256L129.671 84.5034L129.646 84.5253L129.622 84.5489L130.329 85.256ZM158.265 83.24V84.24H159.265V83.24H158.265ZM160.281 30.536L159.623 29.7834L159.598 29.8053L159.574 29.8289L160.281 30.536ZM204.057 30.536L203.35 31.2431L204.057 30.536ZM206.073 83.24H205.073V84.24H206.073V83.24ZM247.257 85.256L246.55 85.9631L246.574 85.9866L246.599 86.0086L247.257 85.256ZM247.257 118.952L246.599 118.199L246.574 118.221L246.55 118.245L247.257 118.952ZM206.073 120.968V119.968H205.073V120.968H206.073ZM249.849 195.56L250.556 194.853L249.849 195.56ZM249.849 230.984L250.556 231.691L250.58 231.668L250.602 231.643L249.849 230.984ZM217.881 232C198.151 232 183.54 227.305 173.859 218.092C164.187 208.887 159.265 195.009 159.265 176.264H157.265C157.265 195.343 162.28 209.833 172.48 219.54C182.671 229.239 197.867 234 217.881 234V232ZM159.265 176.264V120.968H157.265V176.264H159.265ZM158.265 119.968H135.801V121.968H158.265V119.968ZM135.801 119.968C133.922 119.968 132.335 119.378 130.988 118.199L129.671 119.705C131.396 121.214 133.456 121.968 135.801 121.968V119.968ZM131.036 118.245C129.902 117.11 129.313 115.647 129.313 113.768H127.313C127.313 116.113 128.069 118.106 129.622 119.659L131.036 118.245ZM129.313 113.768V90.44H127.313V113.768H129.313ZM129.313 90.44C129.313 88.5609 129.902 87.0979 131.036 85.9631L129.622 84.5489C128.069 86.1021 127.313 88.0951 127.313 90.44H129.313ZM130.988 86.0086C132.335 84.83 133.922 84.24 135.801 84.24V82.24C133.456 82.24 131.396 82.9939 129.671 84.5034L130.988 86.0086ZM135.801 84.24H158.265V82.24H135.801V84.24ZM159.265 83.24V35.72H157.265V83.24H159.265ZM159.265 35.72C159.265 33.8409 159.854 32.3779 160.988 31.2431L159.574 29.8289C158.021 31.3821 157.265 33.3751 157.265 35.72H159.265ZM160.94 31.2886C162.306 30.0931 163.804 29.52 165.465 29.52V27.52C163.287 27.52 161.329 28.2908 159.623 29.7834L160.94 31.2886ZM165.465 29.52H198.873V27.52H165.465V29.52ZM198.873 29.52C200.752 29.52 202.215 30.1083 203.35 31.2431L204.764 29.8289C203.211 28.2757 201.218 27.52 198.873 27.52V29.52ZM203.35 31.2431C204.485 32.3779 205.073 33.8409 205.073 35.72H207.073C207.073 33.3751 206.318 31.3821 204.764 29.8289L203.35 31.2431ZM205.073 35.72V83.24H207.073V35.72H205.073ZM206.073 84.24H242.073V82.24H206.073V84.24ZM242.073 84.24C243.952 84.24 245.415 84.8283 246.55 85.9631L247.964 84.5489C246.411 82.9957 244.418 82.24 242.073 82.24V84.24ZM246.599 86.0086C247.909 87.1553 248.561 88.6049 248.561 90.44H250.561C250.561 88.0511 249.677 86.0447 247.916 84.5034L246.599 86.0086ZM248.561 90.44V113.768H250.561V90.44H248.561ZM248.561 113.768C248.561 115.603 247.909 117.053 246.599 118.199L247.916 119.705C249.677 118.163 250.561 116.157 250.561 113.768H248.561ZM246.55 118.245C245.415 119.38 243.952 119.968 242.073 119.968V121.968C244.418 121.968 246.411 121.212 247.964 119.659L246.55 118.245ZM242.073 119.968H206.073V121.968H242.073V119.968ZM205.073 120.968V172.232H207.073V120.968H205.073ZM205.073 172.232C205.073 179.436 206.456 185.023 209.385 188.826C212.352 192.679 216.783 194.544 222.489 194.544V192.544C217.251 192.544 213.474 190.857 210.969 187.606C208.427 184.305 207.073 179.236 207.073 172.232H205.073ZM222.489 194.544H244.665V192.544H222.489V194.544ZM244.665 194.544C246.544 194.544 248.007 195.132 249.142 196.267L250.556 194.853C249.003 193.3 247.01 192.544 244.665 192.544V194.544ZM249.142 196.267C250.277 197.402 250.865 198.865 250.865 200.744H252.865C252.865 198.399 252.11 196.406 250.556 194.853L249.142 196.267ZM250.865 200.744V225.8H252.865V200.744H250.865ZM250.865 225.8C250.865 227.462 250.292 228.959 249.097 230.326L250.602 231.643C252.094 229.937 252.865 227.978 252.865 225.8H250.865ZM249.142 230.277C248.007 231.412 246.544 232 244.665 232V234C247.01 234 249.003 233.244 250.556 231.691L249.142 230.277ZM244.665 232H217.881V234H244.665V232Z" fill="#51509C"/>
</g>
<defs>
<clipPath id="clip0">
<rect width="402" height="292" fill="white"/>
</clipPath>
</defs>
</svg>
